<svg width="24" height="25" viewBox="0 0 24 25" fill="none" xmlns="http://www.w3.org/2000/svg">
<path d="M21 8.22881H3C2.59 8.22881 2.25 7.88881 2.25 7.47881C2.25 7.06881 2.59 6.72881 3 6.72881H21C21.41 6.72881 21.75 7.06881 21.75 7.47881C21.75 7.88881 21.41 8.22881 21 8.22881Z" fill="#243976"/>
<path d="M21 13.2288H3C2.59 13.2288 2.25 12.8888 2.25 12.4788C2.25 12.0688 2.59 11.7288 3 11.7288H21C21.41 11.7288 21.75 12.0688 21.75 12.4788C21.75 12.8888 21.41 13.2288 21 13.2288Z" fill="#243976"/>
<path d="M21 18.2288H3C2.59 18.2288 2.25 17.8888 2.25 17.4788C2.25 17.0688 2.59 16.7288 3 16.7288H21C21.41 16.7288 21.75 17.0688 21.75 17.4788C21.75 17.8888 21.41 18.2288 21 18.2288Z" fill="#243976"/>
</svg>
