<svg width="90" height="35" viewBox="0 0 90 35" fill="none" xmlns="http://www.w3.org/2000/svg">
<path d="M8.83551 30.5934L22.5531 21.3082C25.1441 19.5516 25.1441 15.7246 22.5531 13.9679L8.83551 4.68272C5.89975 2.69603 1.92969 4.79775 1.92969 8.35289V26.9337C1.92969 30.4888 5.89975 32.5905 8.83551 30.6038V30.5934Z" stroke="#243976" stroke-width="2" stroke-linecap="round" stroke-linejoin="round"/>
<path d="M42.9899 33.5943L59.8732 22.1656C63.0701 20.0011 63.0701 15.2958 59.8732 13.1314L42.9899 1.70265C39.3751 -0.744114 34.4961 1.84905 34.4961 6.21977V29.0667C34.4961 33.4375 39.3751 36.0306 42.9899 33.5838V33.5943Z" fill="#F7B24D"/>
<path d="M77.4221 27.29L87.6503 20.3679C89.5831 19.0609 89.5831 16.2063 87.6503 14.8993L77.4221 7.97726C75.2281 6.49247 72.2715 8.06091 72.2715 10.7168V24.5714C72.2715 27.2168 75.2281 28.7957 77.4221 27.3109V27.29Z" fill="#E63950"/>
</svg>
