<svg width="15" height="15" viewBox="0 0 15 15" fill="none" xmlns="http://www.w3.org/2000/svg">
<path d="M6.61109 2.59558C6.97773 1.85169 8.03841 1.85169 8.40504 2.59558L9.2634 4.33717C9.40907 4.63273 9.691 4.83756 10.0171 4.88477L11.9175 5.15988C12.7368 5.27848 13.0654 6.28433 12.4741 6.86376L11.0865 8.22366C10.8524 8.45314 10.7456 8.78283 10.8007 9.10602L11.1276 11.0225C11.2672 11.8406 10.407 12.4628 9.67371 12.0743L7.97623 11.1749C7.6834 11.0198 7.33273 11.0198 7.03991 11.1749L5.34243 12.0743C4.6091 12.4628 3.74895 11.8406 3.8885 11.0225L4.21518 9.10747C4.27045 8.78347 4.16298 8.45301 3.92771 8.2235L2.53551 6.86538C1.94201 6.28641 2.27038 5.27821 3.091 5.15981L4.9987 4.88457C5.32499 4.83749 5.60712 4.63261 5.75287 4.3369L6.61109 2.59558Z" stroke="#E63950" stroke-miterlimit="10"/>
</svg>
