<svg width="32" height="33" viewBox="0 0 32 33" fill="none" xmlns="http://www.w3.org/2000/svg">
<g clip-path="url(#clip0_276_7078)">
<rect y="0.3064" width="32" height="32" rx="16" fill="#5181B8"/>
<path fill-rule="evenodd" clip-rule="evenodd" d="M26.1778 11.3295C26.3262 10.835 26.1779 10.4716 25.472 10.4716H23.1381C22.5447 10.4716 22.2713 10.7855 22.1229 11.1318C22.1229 11.1318 20.936 14.0246 19.2546 15.9037C18.7106 16.4477 18.4634 16.6205 18.1666 16.6205C18.0183 16.6205 17.8036 16.4477 17.8036 15.9532V11.3295C17.8036 10.736 17.6314 10.4716 17.1367 10.4716H13.4692C13.0985 10.4716 12.8754 10.747 12.8754 11.0081C12.8754 11.5707 13.7159 11.7004 13.8026 13.2828V16.7197C13.8026 17.4732 13.6666 17.6099 13.3699 17.6099C12.5787 17.6099 10.6542 14.7039 9.51263 11.379C9.28891 10.7327 9.06452 10.4716 8.46805 10.4716H6.13417C5.46735 10.4716 5.33398 10.7855 5.33398 11.1318C5.33398 11.7499 6.12534 14.816 9.01818 18.8709C10.947 21.6399 13.6639 23.1412 16.1365 23.1412C17.6202 23.1412 17.8036 22.8078 17.8036 22.2335V20.1405C17.8036 19.4737 17.9441 19.3407 18.4137 19.3407C18.7601 19.3407 19.3534 19.5137 20.7382 20.8489C22.3206 22.4311 22.5813 23.1412 23.4716 23.1412H25.8054C26.4723 23.1412 26.8057 22.8078 26.6133 22.1498C26.4029 21.494 25.6474 20.5428 24.6448 19.4149C24.1009 18.7719 23.2848 18.0796 23.0378 17.7335C22.6915 17.2884 22.7904 17.0907 23.0378 16.6952C23.0378 16.6952 25.8811 12.6896 26.1778 11.3296V11.3295Z" fill="white"/>
</g>
<defs>
<clipPath id="clip0_276_7078">
<rect width="32" height="32" fill="white" transform="translate(0 0.3064)"/>
</clipPath>
</defs>
</svg>
