<svg width="32" height="33" viewBox="0 0 32 33" fill="none" xmlns="http://www.w3.org/2000/svg">
<g clip-path="url(#clip0_276_7081)">
<rect y="0.3064" width="32" height="32" rx="16" fill="#0DC143"/>
<path d="M23.1676 9.11406C21.4523 7.34829 19.0811 6.38973 16.6595 6.38973C11.5136 6.38973 7.37662 10.5771 7.42707 15.6726C7.42707 17.287 7.88113 18.851 8.63788 20.2636L7.32617 25.0564L12.2199 23.7951C13.582 24.5519 15.0955 24.905 16.6091 24.905C21.7045 24.905 25.8415 20.7177 25.8415 15.6222C25.8415 13.1501 24.8829 10.8294 23.1676 9.11406ZM16.6595 23.3411C15.2973 23.3411 13.9352 22.9879 12.7748 22.2816L12.4721 22.1303L9.54599 22.887L10.3027 20.0114L10.1009 19.7087C7.88113 16.1267 8.94059 11.3843 12.573 9.16451C16.2055 6.94469 20.8973 8.00415 23.1172 11.6366C25.337 15.269 24.2775 19.9609 20.6451 22.1807C19.4847 22.9375 18.0721 23.3411 16.6595 23.3411ZM21.0991 17.7411L20.5442 17.4888C20.5442 17.4888 19.737 17.1357 19.2325 16.8834C19.182 16.8834 19.1316 16.833 19.0811 16.833C18.9298 16.833 18.8289 16.8834 18.728 16.9339C18.728 16.9339 18.6775 16.9843 17.9712 17.7915C17.9208 17.8924 17.8199 17.9429 17.719 17.9429H17.6685C17.6181 17.9429 17.5172 17.8924 17.4667 17.842L17.2145 17.7411C16.6595 17.4888 16.155 17.1861 15.7514 16.7825C15.6505 16.6816 15.4991 16.5807 15.3982 16.4798C15.0451 16.1267 14.6919 15.7231 14.4397 15.269L14.3892 15.1681C14.3388 15.1177 14.3388 15.0672 14.2883 14.9663C14.2883 14.8654 14.2883 14.7645 14.3388 14.7141C14.3388 14.7141 14.5406 14.4618 14.6919 14.3105C14.7928 14.2096 14.8433 14.0582 14.9442 13.9573C15.0451 13.8059 15.0955 13.6041 15.0451 13.4528C14.9946 13.2005 14.3892 11.8384 14.2379 11.5357C14.137 11.3843 14.0361 11.3339 13.8847 11.2834H13.7334C13.6325 11.2834 13.4811 11.2834 13.3298 11.2834C13.2289 11.2834 13.128 11.3339 13.0271 11.3339L12.9766 11.3843C12.8757 11.4348 12.7748 11.5357 12.6739 11.5861C12.573 11.687 12.5226 11.7879 12.4217 11.8888C12.0685 12.3429 11.8667 12.8978 11.8667 13.4528C11.8667 13.8564 11.9676 14.26 12.119 14.6132L12.1694 14.7645C12.6235 15.7231 13.2289 16.5807 14.0361 17.3375L14.2379 17.5393C14.3892 17.6906 14.5406 17.7915 14.6415 17.9429C15.7009 18.851 16.9118 19.5069 18.2739 19.86C18.4253 19.9105 18.6271 19.9105 18.7784 19.9609C18.9298 19.9609 19.1316 19.9609 19.2829 19.9609C19.5352 19.9609 19.8379 19.86 20.0397 19.7591C20.191 19.6582 20.2919 19.6582 20.3928 19.5573L20.4937 19.4564C20.5946 19.3555 20.6955 19.305 20.7964 19.2041C20.8973 19.1032 20.9982 19.0023 21.0487 18.9014C21.1496 18.6996 21.2 18.4474 21.2505 18.1951C21.2505 18.0942 21.2505 17.9429 21.2505 17.842C21.2505 17.842 21.2 17.7915 21.0991 17.7411Z" fill="white"/>
</g>
<defs>
<clipPath id="clip0_276_7081">
<rect width="32" height="32" fill="white" transform="translate(0 0.3064)"/>
</clipPath>
</defs>
</svg>
