<svg width="32" height="33" viewBox="0 0 32 33" fill="none" xmlns="http://www.w3.org/2000/svg">
<g clip-path="url(#clip0_276_7080)">
<rect y="0.3064" width="32" height="32" rx="16" fill="#419FD9"/>
<path fill-rule="evenodd" clip-rule="evenodd" d="M19.5567 24.2293C20.6751 24.7185 21.0944 23.6934 21.0944 23.6934L24.0534 8.8288C24.0301 7.82695 22.6788 8.43272 22.6788 8.43272L6.11335 14.9331C6.11335 14.9331 5.32119 15.2127 5.39109 15.7019C5.46098 16.1912 6.09005 16.4242 6.09005 16.4242L10.2605 17.8221C10.2605 17.8221 11.5187 21.946 11.7749 22.7382C12.0079 23.507 12.2176 23.5303 12.2176 23.5303C12.4506 23.6235 12.6603 23.4604 12.6603 23.4604L15.363 21.014L19.5567 24.2293ZM20.279 11.4616C20.279 11.4616 20.8615 11.1121 20.8382 11.4616C20.8382 11.4616 20.9313 11.5082 20.6285 11.8343C20.3489 12.1139 13.7553 18.0318 12.87 18.824C12.8001 18.8706 12.7535 18.9405 12.7535 19.0336L12.4972 21.2237C12.4506 21.4567 12.1477 21.48 12.0778 21.2703L10.9828 17.6823C10.9362 17.5425 10.9828 17.3794 11.1226 17.2862L20.279 11.4616Z" fill="white"/>
</g>
<defs>
<clipPath id="clip0_276_7080">
<rect width="32" height="32" fill="white" transform="translate(0 0.3064)"/>
</clipPath>
</defs>
</svg>
