<svg width="32" height="33" viewBox="0 0 32 33" fill="none" xmlns="http://www.w3.org/2000/svg">
<g clip-path="url(#clip0_276_7079)">
<rect y="0.3064" width="32" height="32" rx="16" fill="#FF0000"/>
<path fill-rule="evenodd" clip-rule="evenodd" d="M23.8253 9.7331C24.682 9.96374 25.3574 10.6392 25.5881 11.4959C26.0164 13.0609 25.9999 16.3229 25.9999 16.3229C25.9999 16.3229 25.9999 19.5683 25.5881 21.1334C25.3574 21.99 24.682 22.6655 23.8253 22.8961C22.2602 23.308 16 23.308 16 23.308C16 23.308 9.75616 23.308 8.17462 22.8797C7.31795 22.649 6.6425 21.9736 6.41186 21.1169C6 19.5683 6 16.3064 6 16.3064C6 16.3064 6 13.0609 6.41186 11.4959C6.6425 10.6392 7.33443 9.94727 8.17462 9.71662C9.73969 9.30476 16 9.30476 16 9.30476C16 9.30476 22.2602 9.30476 23.8253 9.7331ZM19.2124 16.3064L14.0065 19.3048V13.3081L19.2124 16.3064Z" fill="white"/>
</g>
<defs>
<clipPath id="clip0_276_7079">
<rect width="32" height="32" fill="white" transform="translate(0 0.3064)"/>
</clipPath>
</defs>
</svg>
