<svg width="32" height="33" viewBox="0 0 32 33" fill="none" xmlns="http://www.w3.org/2000/svg">
<g clip-path="url(#clip0_276_7077)">
<rect y="0.3064" width="32" height="32" rx="16" fill="#EE8208"/>
<path d="M16.0004 8.8665C17.2574 8.8665 18.28 9.88903 18.28 11.1461C18.28 12.4021 17.2572 13.4247 16.0004 13.4247C14.7441 13.4247 13.7213 12.4021 13.7213 11.1461C13.721 9.88877 14.7443 8.8665 16.0004 8.8665ZM16.0004 16.6499C19.0369 16.6499 21.5062 14.1813 21.5062 11.1461C21.5062 8.10935 19.0371 5.63972 16.0004 5.63972C12.9641 5.63972 10.4945 8.10962 10.4945 11.1461C10.4945 14.1813 12.9641 16.6499 16.0004 16.6499ZM18.2278 21.1408C19.3604 20.8829 20.4413 20.4353 21.4248 19.8171C21.7868 19.5893 22.0436 19.227 22.1385 18.8099C22.2335 18.3928 22.1588 17.9551 21.931 17.5931C21.8184 17.4136 21.6715 17.2581 21.4987 17.1355C21.3259 17.0129 21.1306 16.9255 20.924 16.8785C20.7174 16.8314 20.5036 16.8255 20.2947 16.8611C20.0859 16.8967 19.8861 16.9731 19.7068 17.086C17.4511 18.5041 14.548 18.5031 12.2942 17.086C12.1149 16.9731 11.9152 16.8966 11.7063 16.861C11.4975 16.8254 11.2836 16.8313 11.0771 16.8784C10.8705 16.9255 10.6752 17.0128 10.5025 17.1355C10.3297 17.2581 10.1828 17.4136 10.0702 17.5931C9.84234 17.955 9.76759 18.3927 9.86238 18.8098C9.95717 19.2268 10.2137 19.5892 10.5757 19.8171C11.559 20.4351 12.6397 20.8827 13.7721 21.1408L10.6943 24.2192C10.3918 24.5218 10.2219 24.9322 10.222 25.36C10.222 25.7878 10.3921 26.1981 10.6947 26.5006C10.9972 26.803 11.4076 26.9729 11.8354 26.9729C12.2632 26.9728 12.6735 26.8028 12.976 26.5002L15.9998 23.4758L19.0255 26.5004C19.1751 26.6503 19.3528 26.7691 19.5484 26.8502C19.744 26.9313 19.9536 26.9731 20.1653 26.9731C20.3771 26.9731 20.5867 26.9313 20.7823 26.8502C20.9779 26.7691 21.1555 26.6503 21.3051 26.5004C21.4552 26.3509 21.5742 26.1731 21.6555 25.9774C21.7367 25.7818 21.7785 25.572 21.7785 25.3601C21.7785 25.1482 21.7367 24.9385 21.6555 24.7428C21.5742 24.5471 21.4552 24.3694 21.3051 24.2198L18.2278 21.1408Z" fill="white"/>
</g>
<defs>
<clipPath id="clip0_276_7077">
<rect width="32" height="32" fill="white" transform="translate(0 0.3064)"/>
</clipPath>
</defs>
</svg>
