<svg width="51" height="36" viewBox="0 0 51 36" fill="none" xmlns="http://www.w3.org/2000/svg">
<path d="M31.0597 1.28066C30.5587 1.66236 29.0796 3.02215 27.8153 4.33423L25.4774 6.71983L23.6882 5.55089C22.6862 4.93063 21.8036 4.4058 21.732 4.4058C21.3503 4.4058 18.2013 6.07572 16.6507 7.10153C14.5275 8.53289 10.6151 11.658 9.58929 12.7793C9.08831 13.3279 8.4442 14.6877 7.58538 16.9302C6.89356 18.7671 5.77233 21.7253 5.05665 23.5145C4.34097 25.2798 3.76842 26.8543 3.76842 26.9974C3.76842 27.1406 3.91156 27.3791 4.10241 27.5223C4.38868 27.7608 4.34097 27.9755 3.74457 28.8343C2.83804 30.218 0.333159 35.3947 0.500151 35.5856C0.667143 35.7287 2.24164 35.347 5.19978 34.4405C6.89356 33.9157 7.08441 33.7725 8.6589 32.0549C9.58929 31.0291 10.472 30.2418 10.6389 30.3134C15.1477 31.7448 19.1078 32.1503 22.3284 31.5062C24.7856 31.0052 27.1712 30.8621 28.6979 31.1484C33.0636 31.9356 34.0655 31.9356 37.8825 31.1484C38.4789 31.0291 39.0037 30.9575 39.0514 31.0052C39.0753 31.053 39.2423 31.7209 39.4093 32.4843L39.6717 33.868L44.1089 33.9395C48.1883 33.9872 48.57 33.9634 48.737 33.5817C49.0948 32.6752 50.0491 28.5242 50.3115 26.735C50.6932 24.1824 50.4546 18.1469 49.8821 15.976L49.4527 14.306L47.902 14.139C47.0432 14.0436 45.0632 13.8528 43.4887 13.7335L40.6259 13.4711L40.1011 14.1152C39.5763 14.7593 39.5524 14.7593 38.3119 14.4492C36.8567 14.1152 31.6799 11.5865 30.6064 10.7276L29.8907 10.1312L30.9643 9.12929C33.2544 6.98225 34.9959 4.83521 35.1629 4.0241C35.3538 2.99829 34.9244 1.94863 34.0178 1.18524C33.0874 0.397991 32.2048 0.421848 31.0597 1.28066ZM23.2588 7.43551L24.0222 8.10348L19.251 12.994C14.0026 18.3616 12.8098 19.8406 11.5693 22.5841C11.0922 23.6099 10.4242 24.8265 10.0664 25.2798C9.44615 26.0909 8.13407 26.9974 7.91937 26.7589C7.8478 26.6873 8.08636 26.0432 8.42034 25.2798C9.44615 23.0373 9.47001 22.4648 8.46805 21.4628L7.60924 20.604L8.77818 17.7174C10.0664 14.5207 10.4004 14.0913 13.7879 11.2286C16.2451 9.12929 18.5114 7.50708 20.1098 6.71983C21.4219 6.05186 21.7797 6.12343 23.2588 7.43551ZM30.9643 13.0655C35.1391 15.4511 37.4769 16.3338 39.6001 16.3338C40.1488 16.3338 40.292 16.4769 40.4828 17.2165C41.3178 20.4132 41.3893 23.8007 40.7214 27.3553L40.4112 28.9536L38.7175 29.3592C35.0913 30.1941 33.1113 30.1703 29.0081 29.3353L26.9326 28.9059L23.879 29.6693C21.899 30.1464 20.2052 30.4088 19.1317 30.4088C17.5095 30.4088 15.8157 30.051 16.0065 29.717C16.7461 28.3572 16.8892 27.7131 16.6507 26.8304C16.4121 25.9955 15.3863 24.8981 15.1 25.2082C15.0523 25.2559 15.1716 25.9239 15.3624 26.6873C15.6964 27.9755 15.6964 28.1187 15.267 28.8105C14.8853 29.4785 14.7183 29.5739 14.0265 29.5023C11.2592 29.216 10.0664 27.5223 11.5693 26.0193C13.1915 24.3971 16.1974 23.7292 21.9467 23.7292H25.5489L26.4793 22.7749C27.8391 21.3197 27.696 21.0811 25.7875 21.7014C24.881 21.9877 23.5689 22.2978 22.8532 22.3694L21.5411 22.4886L22.7339 21.272C24.046 19.9122 24.7617 18.2184 24.7617 16.4769C24.7617 15.5466 24.9048 15.308 26.5748 13.5188L28.4117 11.5626L29.2705 12.0636C29.7476 12.3498 30.511 12.8031 30.9643 13.0655ZM47.3533 16.8825C47.902 18.5047 48.1644 20.938 48.1644 23.8962C48.1644 27.0451 48.0929 27.7131 47.401 30.3373C47.1625 31.2915 46.9478 32.1265 46.9478 32.198C46.9478 32.2696 45.588 32.3173 43.9419 32.3173C41.1985 32.3173 40.9361 32.2696 41.0792 31.9118C41.1746 31.6971 41.5086 30.385 41.8665 29.0013C42.8207 25.0174 42.94 21.7968 42.272 17.0972L42.105 15.8328L44.586 15.9044L47.0671 15.976L47.3533 16.8825ZM23.2588 17.3835C23.1872 17.5743 22.9964 18.1469 22.8771 18.6717C22.3284 20.6756 20.6346 22.2978 19.1078 22.2978H18.2729L20.3961 19.9838C21.5411 18.6955 22.6147 17.5266 22.7339 17.3596C23.0679 16.9541 23.4019 16.9779 23.2588 17.3835ZM7.72852 21.9877C8.22949 22.6318 8.13407 24.2301 7.53767 25.3991C7.08441 26.2818 6.82199 26.5203 6.10631 26.6873C5.60533 26.8066 5.15207 26.8543 5.0805 26.8066C4.96122 26.6873 7.15597 21.5821 7.32297 21.5821C7.37068 21.5821 7.56153 21.773 7.72852 21.9877ZM5.48605 30.8144C5.82004 31.1961 6.22559 31.7209 6.36873 32.0072C6.63114 32.5082 6.55957 32.5797 5.39063 33.1761C3.12431 34.3212 2.57562 34.3212 2.57562 33.1761C2.57562 32.8183 4.43639 30.1703 4.69881 30.1703C4.79423 30.1703 5.15207 30.4566 5.48605 30.8144Z" fill="#243976"/>
</svg>
