<svg width="31" height="37" viewBox="0 0 31 37" fill="none" xmlns="http://www.w3.org/2000/svg">
<path d="M2.92439 0.800251C2.35342 1.03012 1.84176 1.54177 1.57481 2.12758L1.36719 2.57991V18.1149V33.6498L1.57481 34.1096C1.84918 34.7102 2.39791 35.2367 2.9763 35.4517L3.40638 35.6149H15.3968C25.2221 35.6075 27.4392 35.5926 27.6691 35.5111C28.0918 35.3553 28.4106 35.081 28.6479 34.6435C28.8629 34.2579 28.8704 34.206 28.9074 33.0047L28.9445 31.7738L29.3079 31.5216C29.5526 31.3585 29.7528 31.1361 29.9011 30.8691L30.131 30.4613V16.2611V2.06084L29.9752 1.72716C29.8047 1.36381 29.4413 0.970802 29.0928 0.778004C28.8852 0.659359 27.8545 0.651943 16.1161 0.637115L3.36189 0.614868L2.92439 0.800251ZM28.685 2.02377C28.7666 2.10534 28.8481 2.24622 28.8704 2.33521C28.8926 2.43161 28.9 8.75682 28.8926 16.3871L28.8704 30.2685L28.6998 30.439L28.5293 30.6096L18.7115 30.6318L8.88626 30.6466V19.5905V8.53436L8.67121 8.31932C8.3746 8.02271 7.98159 8.05237 7.72206 8.39347C7.64791 8.48245 7.63308 10.9962 7.62566 19.5757V30.6466H5.53456C3.49537 30.6466 3.42121 30.6541 3.00596 30.8246L2.58329 31.0026L2.59812 16.8617C2.62037 2.87652 2.62037 2.72821 2.76867 2.48351C2.85024 2.34262 3.05045 2.14983 3.21359 2.05343L3.5102 1.87546H16.0271C28.381 1.87546 28.5367 1.87546 28.685 2.02377ZM27.6468 32.8712C27.6468 33.8797 27.5727 34.206 27.3132 34.3098C27.2464 34.332 21.8629 34.3543 15.3598 34.3543C3.5621 34.3543 3.53244 34.3543 3.25808 34.1986C2.86507 33.9761 2.62778 33.5979 2.62778 33.1752C2.62778 32.7377 2.82058 32.4041 3.24325 32.1223L3.56952 31.9072H15.6119H27.6468V32.8712Z" fill="#243976" stroke="#243976"/>
<path d="M4.58671 3.11382C4.16404 3.17315 4.06764 3.22505 3.949 3.44009C3.81552 3.70704 3.8526 3.95916 4.06764 4.1742C4.20112 4.30768 4.31976 4.32251 5.10578 4.32251C5.95853 4.32251 6.01044 4.31509 6.18099 4.13713C6.59624 3.72187 6.29222 3.14348 5.64709 3.12124C5.4543 3.11382 5.17252 3.10641 5.03163 3.09899C4.89074 3.09158 4.69052 3.09899 4.58671 3.11382Z" fill="#243976"/>
<path d="M7.78072 3.32882C7.63242 3.5142 7.625 3.62543 7.625 5.00466C7.625 6.47288 7.625 6.4803 7.81038 6.65827C8.0625 6.9178 8.38877 6.90297 8.67055 6.6286L8.88559 6.41356V5.02691C8.88559 3.29916 8.82627 3.13602 8.18114 3.13602C8.00318 3.13602 7.89195 3.18793 7.78072 3.32882Z" fill="#243976"/>
<path d="M4.06712 6.39879C3.73344 6.73248 3.82242 7.2293 4.26733 7.40727C4.46755 7.49625 4.73449 7.51849 5.27581 7.49625C5.97284 7.474 6.01733 7.46659 6.18788 7.26638C6.41776 6.99201 6.41776 6.66574 6.18047 6.43587C6.00992 6.2579 5.95801 6.25049 5.10526 6.25049C4.31924 6.25049 4.2006 6.26532 4.06712 6.39879Z" fill="#243976"/>
<path d="M4.02797 9.60212C3.79809 9.86907 3.81292 10.1879 4.06504 10.44C4.19852 10.5661 4.33199 10.5884 5.0661 10.6106L5.91886 10.6403L6.14131 10.4178C6.42309 10.136 6.43051 9.832 6.17839 9.55763C6.00784 9.37225 5.97818 9.36484 5.11059 9.36484H4.22818L4.02797 9.60212Z" fill="#243976"/>
<path d="M14.4775 10.6551C14.2699 10.7515 14.218 10.8479 13.9065 11.7452C12.8462 14.7928 10.7402 21.1403 10.7402 21.2886C10.7402 21.7187 11.4521 22.0005 11.7635 21.689C11.8896 21.563 12.3493 20.332 12.861 18.76L13.0686 18.1149H14.7445H16.4129L16.9246 19.6498C17.6216 21.7632 17.6587 21.8225 18.1629 21.8225C18.4299 21.8225 18.7487 21.5333 18.7487 21.2886C18.7487 20.9698 15.3303 10.9666 15.1597 10.8034C14.9447 10.581 14.7519 10.5439 14.4775 10.6551ZM15.3599 14.9856C15.6714 15.9126 15.9309 16.7134 15.9309 16.7579C15.9309 16.832 15.6343 16.8543 14.7148 16.8543H13.4913L14.0993 15.0746C14.433 14.0958 14.7222 13.295 14.7445 13.295C14.7667 13.295 15.0411 14.0587 15.3599 14.9856Z" fill="#243976"/>
<path d="M4.1106 12.6424C3.99937 12.7388 3.89555 12.9168 3.87331 13.0502C3.83623 13.2505 3.86589 13.3246 4.05127 13.5174C4.27373 13.7399 4.28115 13.7399 5.10424 13.7399C5.91992 13.7399 5.93475 13.7399 6.14979 13.5248C6.27585 13.3914 6.36483 13.2282 6.36483 13.1096C6.36483 12.9909 6.27585 12.8278 6.14979 12.6943C5.93475 12.4793 5.91992 12.4793 5.11166 12.4793C4.37013 12.4793 4.28115 12.4941 4.1106 12.6424Z" fill="#243976"/>
<path d="M21.5517 14.4073C20.7805 14.5482 20.0909 15.1043 19.7201 15.8829C19.5273 16.2982 19.5273 16.3056 19.5273 18.1149V19.9317L19.7424 20.3914C19.9945 20.9475 20.4468 21.385 21.0326 21.6594C21.4108 21.8374 21.5443 21.8596 22.3081 21.8596C23.0718 21.8596 23.2053 21.8374 23.5687 21.6668C23.7985 21.563 24.1026 21.3702 24.2434 21.2442L24.5104 21.0143L24.6735 21.1848C25.0962 21.6372 26.1121 21.9708 26.5867 21.8151C26.8759 21.7187 26.9797 21.5556 26.9797 21.1997C26.9797 20.9031 26.7127 20.6361 26.3939 20.6361C26.1492 20.6361 25.6449 20.4062 25.4818 20.2208C25.1481 19.8427 25.1259 19.6499 25.1259 17.1732C25.1184 14.6965 25.1184 14.6742 24.7773 14.4963C24.5401 14.3702 24.3547 14.385 24.1322 14.563L23.932 14.7187L23.5612 14.5556C23.1312 14.3776 22.1301 14.2961 21.5517 14.4073ZM23.3017 15.8162C23.8282 16.1795 23.8653 16.3427 23.8653 18.1149C23.8653 19.5683 23.8504 19.7092 23.7095 19.9613C23.4648 20.4062 23.1312 20.5842 22.4638 20.6213C21.7593 20.6583 21.3293 20.5026 21.003 20.0725L20.7879 19.7982L20.7657 18.3819C20.736 16.6986 20.7731 16.4094 21.0326 16.1054C21.3589 15.7124 21.7297 15.5863 22.4341 15.616C22.9235 15.6382 23.0867 15.6753 23.3017 15.8162Z" fill="#243976"/>
<path d="M4.25149 15.6678C4.03644 15.7494 3.92521 15.9051 3.87331 16.172C3.83623 16.3648 3.86589 16.439 4.05127 16.6318C4.27373 16.8542 4.28115 16.8542 5.14132 16.8542C5.97924 16.8542 6.0089 16.8468 6.17945 16.6615C6.43157 16.3871 6.42415 16.0831 6.14979 15.8087C5.93475 15.6011 5.9125 15.5937 5.16356 15.6011C4.74089 15.6011 4.33305 15.6307 4.25149 15.6678Z" fill="#243976"/>
<path d="M4.16229 18.8489C3.78412 19.0862 3.76928 19.5904 4.13263 19.8722C4.20678 19.9316 4.5553 19.9612 5.12628 19.9686C5.95678 19.9686 6.00869 19.9612 6.17924 19.7832C6.41653 19.5534 6.41653 19.2271 6.19407 18.9602C6.02352 18.7674 5.97903 18.7525 5.20784 18.7303C4.49598 18.7006 4.36992 18.7155 4.16229 18.8489Z" fill="#243976"/>
<path d="M4.06757 22.0449C3.85994 22.2525 3.81545 22.5121 3.94893 22.779C4.10465 23.083 4.50507 23.1794 5.35783 23.1424C5.96588 23.1127 6.03261 23.0979 6.18833 22.9051C6.41821 22.6381 6.41821 22.3119 6.18092 22.082C6.01037 21.904 5.95846 21.8966 5.10571 21.8966C4.31969 21.8966 4.20105 21.9114 4.06757 22.0449Z" fill="#243976"/>
<path d="M4.02914 25.2484C3.79927 25.5153 3.8141 25.8342 4.07363 26.0863C4.19969 26.2198 4.31834 26.2346 5.11177 26.2346C6.0016 26.2346 6.00902 26.2346 6.18698 26.027C6.41686 25.7526 6.41686 25.4264 6.17957 25.1965C6.00902 25.0185 5.95711 25.0111 5.11177 25.0111H4.22936L4.02914 25.2484Z" fill="#243976"/>
<path d="M4.05127 28.348C3.86589 28.5408 3.83623 28.6149 3.87331 28.8151C3.89555 28.9486 3.99937 29.1266 4.1106 29.2156C4.28115 29.3713 4.37013 29.3861 5.11166 29.3861C5.91992 29.3861 5.93475 29.3861 6.14979 29.1711C6.37966 28.9412 6.41674 28.7336 6.27585 28.474C6.11271 28.17 5.99407 28.1329 5.11907 28.1255C4.28115 28.1255 4.27373 28.1255 4.05127 28.348Z" fill="#243976"/>
</svg>
