<svg width="33" height="36" viewBox="0 0 33 36" fill="none" xmlns="http://www.w3.org/2000/svg">
<path d="M1.2656 0.774513C1.03759 0.888519 0.900779 1.02533 0.794373 1.25334C0.634766 1.57256 0.634766 1.59536 0.634766 17.6853C0.634766 33.3497 0.642366 33.7981 0.779173 34.1098C0.885578 34.3378 1.01478 34.4746 1.2352 34.5886C1.53161 34.7406 1.63802 34.7406 4.36655 34.7254L7.19389 34.7026L7.3459 34.4974C7.4751 34.3226 7.5055 34.1706 7.5055 33.5625C7.5055 32.9545 7.4751 32.8025 7.3459 32.6277L7.19389 32.4225L5.4534 32.3845L3.71292 32.3465L3.69012 17.6929L3.67492 3.04703H5.3394C6.25904 3.04703 7.06468 3.02423 7.13309 3.00142C7.3763 2.90262 7.5055 2.5074 7.5055 1.83097C7.5055 1.15453 7.3763 0.759315 7.13309 0.660511C7.06468 0.637707 5.78782 0.614906 4.29815 0.614906C1.70642 0.614906 1.56961 0.622509 1.2656 0.774513Z" fill="#243976"/>
<path d="M26.2175 0.759327C25.8907 1.11654 25.9135 2.56062 26.2479 2.89503C26.3923 3.03944 26.5064 3.04704 28.11 3.04704H29.8201L29.8049 17.693L29.7821 32.3465L27.996 32.3845C27.0156 32.4073 26.2023 32.4377 26.2023 32.4453C26.0199 32.7341 25.9439 33.4181 26.0199 33.9958C26.1339 34.7938 25.9287 34.7406 29.1513 34.7406C31.8114 34.7406 31.971 34.733 32.2522 34.5886C32.4498 34.4898 32.6095 34.3302 32.7083 34.1326C32.8603 33.8362 32.8603 33.7221 32.8603 17.7082V1.57257L32.7007 1.25335C32.5867 1.01774 32.4574 0.888531 32.2218 0.774525C31.9178 0.62252 31.7734 0.614918 29.1209 0.614918C26.4912 0.614918 26.3391 0.62252 26.2175 0.759327Z" fill="#243976"/>
<path d="M18.6316 2.05894C16.6935 2.40855 15.5459 3.40421 15.0063 5.21309C14.6642 6.34555 14.6718 6.26955 14.6262 18.8178L14.5806 30.8264L14.4058 31.328C14.1626 31.9968 13.7598 32.5212 13.2886 32.7569C12.7414 33.0381 11.7989 33.0305 10.8945 32.734C10.5372 32.6124 10.1268 32.5136 9.98242 32.506C9.75441 32.4984 9.7012 32.5364 9.5796 32.7645C9.46559 32.9849 9.44279 33.1673 9.47319 33.8513C9.5036 34.7709 9.5948 34.9838 10.066 35.2118C10.9173 35.6298 13.319 35.7514 14.4894 35.4398C16.1995 34.9762 17.1572 33.9653 17.6664 32.0804L17.8412 31.4344L17.8868 19.3498C17.9324 8.59526 17.9476 7.21199 18.054 6.76357C18.5404 4.77987 19.6729 4.21745 21.7706 4.91668C22.8042 5.2587 22.9259 5.2435 23.0551 4.71147C23.1843 4.17945 23.1159 3.13819 22.9335 2.82658C22.6446 2.33255 21.687 2.05894 20.0909 2.02094C19.4829 2.00574 18.8293 2.02094 18.6316 2.05894Z" fill="#243976"/>
</svg>
