<svg width="38" height="36" viewBox="0 0 38 36" fill="none" xmlns="http://www.w3.org/2000/svg">
<path d="M9.91071 0.685328C9.88837 0.730024 9.57997 1.48985 9.23134 2.37482C8.88272 3.25979 8.22122 4.918 7.7698 6.0622C6.125 10.1921 5.72274 11.2201 4.76179 13.6828C3.10358 17.9512 1.60628 21.7727 1.19061 22.8141C1.03865 23.1895 0.917969 23.5337 0.917969 23.5784C0.917969 23.7169 1.12357 23.8421 1.40068 23.8778C1.71355 23.9181 3.22873 23.8242 3.68015 23.7393C4.32377 23.6141 4.60982 23.3817 4.93163 22.7202C5.02996 22.5191 5.3473 21.7414 5.63335 20.9905C5.9194 20.2396 6.22333 19.4396 6.31272 19.2116L6.46916 18.8004H11.5957H16.7178L17.3838 20.557C18.3626 23.1359 18.5548 23.4622 19.2163 23.6678C19.6141 23.7885 20.3605 23.8644 21.2544 23.8689C21.8847 23.8734 22.0143 23.86 22.1126 23.7974C22.1796 23.7527 22.2422 23.6812 22.2556 23.6365C22.2735 23.5829 22.0724 23.0152 21.7237 22.1258C20.8567 19.9312 20.7851 19.7524 20.5617 19.1803C20.4455 18.8854 20.1236 18.0585 19.8465 17.3478C19.5694 16.6327 18.9392 15.0147 18.4476 13.7498C17.6699 11.7519 16.6508 9.16854 13.8976 2.24073L13.2584 0.631693L11.6047 0.618284C10.0627 0.609346 9.94647 0.613815 9.91071 0.685328ZM11.8684 6.02645C12.1097 6.54045 12.7668 8.18524 13.2495 9.48141C14.197 12.0291 15.0418 14.389 15.0418 14.4784C15.0418 14.7287 14.6797 14.8449 13.6473 14.9164C12.7757 14.979 9.36096 14.9432 8.87378 14.8672C8.44023 14.8002 8.17206 14.684 8.1363 14.5454C8.11842 14.4784 8.32849 13.8482 8.78439 12.6101C9.15536 11.6 9.62019 10.3351 9.81685 9.79428C10.4962 7.94389 11.3633 5.81191 11.5153 5.62866C11.5421 5.59737 11.5868 5.57055 11.6091 5.57055C11.6315 5.57055 11.7477 5.77615 11.8684 6.02645Z" fill="#243976"/>
<path d="M34.8826 16.512C34.3105 16.95 32.9651 18.1791 30.9315 20.1368C30.6141 20.4407 28.1514 22.8856 25.4652 25.5673L20.58 30.4391L18.8056 28.6736C17.8312 27.7038 16.3563 26.2422 15.5339 25.4243L14.0366 23.9359L12.7315 25.2678C12.0119 26.0009 11.4263 26.6087 11.4219 26.6221C11.4219 26.6355 13.4287 28.6647 15.8825 31.1319L20.3386 35.6149L28.9559 26.9931L37.5688 18.3758L36.9699 17.7232C36.3307 17.026 35.9016 16.6461 35.5664 16.4628C35.2088 16.2751 35.1999 16.2751 34.8826 16.512Z" fill="#243976"/>
</svg>
