<svg width="45" height="36" viewBox="0 0 45 36" fill="none" xmlns="http://www.w3.org/2000/svg">
<path d="M20.8323 0.6502C20.0365 0.715042 19.005 0.885983 18.2328 1.0864C13.9534 2.171 10.3105 5.12417 8.3948 9.06762C7.9586 9.9577 7.8584 10.2112 7.53419 11.1897C7.12158 12.4275 6.83274 14.3432 6.83274 15.8169V16.6775L6.40834 16.7836C4.34524 17.3082 2.45309 18.8054 1.41565 20.727C1.09734 21.3165 0.714198 22.3952 0.578623 23.0967C0.513783 23.4091 0.496099 24.1459 0.496099 26.1323C0.496099 28.9794 0.490205 28.9087 0.861562 30.1112C1.56891 32.4159 3.48464 34.3847 5.8012 35.1805C6.8799 35.5518 7.13337 35.5813 9.5855 35.6049C12.2086 35.6344 12.2557 35.6285 12.7332 35.151C13.2342 34.65 13.1989 35.322 13.1989 26.0911C13.1989 20.5031 13.1812 17.8564 13.134 17.6855C12.9984 17.1491 12.5328 16.7188 11.9256 16.5655L11.6368 16.4948L11.6486 15.5988C11.6604 14.243 11.8313 13.2999 12.2616 12.1328C13.1871 9.63939 15.1146 7.54093 17.5314 6.3856C18.3448 6.00245 19.4235 5.66057 20.3902 5.49552C20.9915 5.39532 23.703 5.35995 24.5695 5.44247C25.4772 5.53089 26.6325 5.81383 27.3753 6.12034C28.731 6.68622 29.7449 7.35231 30.7352 8.32491C31.7019 9.27393 32.3208 10.1286 32.8867 11.3076C33.541 12.6751 33.8003 13.8009 33.8711 15.5929L33.9064 16.5183L33.6765 16.5537C33.1342 16.6421 32.7157 16.9368 32.4681 17.4084L32.3267 17.6737V26.0439V34.4142L32.4623 34.7148C32.6214 35.0685 32.81 35.263 33.1814 35.4575C33.4466 35.5931 33.4466 35.5931 35.775 35.5931C37.9972 35.5931 38.1328 35.5872 38.7164 35.4575C41.0035 34.9447 42.8308 33.6066 43.9802 31.6143C44.4046 30.8716 44.605 30.3528 44.8644 29.3331C44.9941 28.8321 45 28.7142 45 26.0734C45 23.4385 44.9941 23.3148 44.8703 22.8196C44.3987 20.9746 43.6914 19.778 42.3062 18.493C41.5222 17.7621 40.0191 16.984 38.9522 16.7541L38.6633 16.6893V15.752C38.6633 15.2333 38.6397 14.6321 38.6103 14.414C38.5808 14.1959 38.5219 13.7656 38.4865 13.4591C38.2802 11.7968 37.5257 9.66297 36.559 8.03607C35.9283 6.98095 35.3506 6.22055 34.4782 5.3069C31.9907 2.7015 28.6897 1.06871 25.153 0.697357C24.3631 0.614834 21.5986 0.585361 20.8323 0.6502Z" fill="#243976"/>
<path d="M22.2638 18.1924C21.9042 18.3103 21.5505 18.5992 21.3619 18.9469L21.1851 19.2653L21.1674 22.6959L21.1497 26.1206L20.572 26.0911C19.8057 26.044 19.2575 26.1678 18.4972 26.5568C18.0197 26.7985 17.837 26.9341 17.4833 27.3054C17.0176 27.7947 16.6404 28.4666 16.493 29.0797C16.3751 29.5571 16.3928 30.6771 16.5225 31.1133C17.2416 33.5124 19.8411 34.7031 22.0339 33.6303C22.3699 33.4652 22.5998 33.2943 22.9829 32.9111C23.6313 32.2627 23.9437 31.7322 24.2384 30.7891C24.2797 30.6535 24.3092 29.2211 24.3328 26.7513L24.3681 22.9199L25.6944 22.8904C27.1621 22.855 27.227 22.8432 27.4274 22.4601C27.5158 22.2951 27.5276 22.1182 27.5099 21.1102L27.4922 19.9431L27.3095 19.7604C27.1621 19.6189 26.891 19.501 26.0422 19.2063C25.4468 19.0059 24.6511 18.723 24.2797 18.5874C23.9084 18.4518 23.4604 18.2927 23.2953 18.2278C22.9475 18.104 22.588 18.0922 22.2638 18.1924Z" fill="#243976"/>
</svg>
