<svg width="220" height="221" viewBox="0 0 220 221" fill="none" xmlns="http://www.w3.org/2000/svg">
<path d="M168.653 40.0566C168.653 41.4646 167.861 42.3446 167.157 43.2686C163.549 48.0646 159.985 52.9046 156.333 57.7006C146.301 70.8126 136.797 84.2766 126.853 97.4766C118.009 109.225 108.769 120.665 99.8373 132.369C87.4733 148.517 75.4613 165.017 63.4053 181.385C62.8333 182.177 62.2613 183.013 61.5133 183.629C60.3253 184.641 58.9613 184.641 57.8173 183.761C56.6733 182.881 56.2773 181.473 56.9813 180.153C57.6413 178.877 58.5213 177.733 59.3573 176.589C77.4413 151.905 95.6133 127.309 114.621 103.373C125.445 89.7326 135.345 75.3886 145.773 61.4846C151.405 53.9606 157.301 46.5686 163.241 39.3086C163.637 38.8246 164.077 38.3846 164.561 37.9886C165.353 37.4166 166.233 37.3726 167.113 37.8126C168.125 38.2526 168.609 39.0886 168.653 40.0566Z" fill="#F2F6FF"/>
<path d="M155.716 32.4003C155.716 33.7643 154.836 34.6883 154.044 35.6563C147.488 43.5323 141.02 51.4083 135.124 59.7683C124.388 75.0363 112.156 89.1163 100.584 103.768C86.9877 121.016 74.1837 138.88 60.8957 156.392C57.4197 160.968 53.8117 165.412 50.2477 169.9C49.8077 170.472 49.3237 171 48.7517 171.44C47.6077 172.276 46.1997 172.232 45.3197 171.352C44.3957 170.428 44.1757 169.328 44.7477 168.14C45.0117 167.568 45.4077 167.084 45.8037 166.6C62.2157 144.732 78.1877 122.512 94.9957 100.952C98.7797 96.0683 102.652 91.2283 106.656 86.5203C115.588 76.0923 123.552 64.9163 131.78 53.9163C136.444 47.6683 141.372 41.5963 146.168 35.4803C147.18 34.2043 148.192 32.9723 149.116 31.6523C149.776 30.7723 150.48 29.9803 151.536 29.5843C153.604 28.8363 155.76 30.2883 155.716 32.4003Z" fill="#F2F6FF"/>
<path d="M78.2325 193.704C76.0765 193.66 74.7565 191.9 75.2405 190.008C75.4605 189.128 76.0325 188.424 76.6045 187.72C93.2365 166.204 108.856 143.984 125.488 122.468C131.516 114.636 136.708 106.232 142.12 98.0044C151.404 83.7924 161.348 70.1084 172.084 56.9524C173.624 55.0604 175.076 53.1684 176.616 51.2764C177.012 50.7924 177.364 50.2644 177.848 49.8244C178.948 48.8124 180.224 48.7244 181.28 49.4724C182.38 50.2644 182.732 51.6724 182.028 53.0804C181.676 53.7844 181.148 54.4444 180.664 55.1044C173.932 64.1684 167.2 73.2324 160.424 82.2964C153.428 91.6684 147.136 101.48 140.8 111.248C134.112 121.588 126.544 131.224 119.108 141.036C106.612 157.58 94.6445 174.476 81.9285 190.844C81.4445 191.46 80.9605 192.12 80.4325 192.736C79.7725 193.352 78.9805 193.748 78.2325 193.704Z" fill="#F2F6FF"/>
<path d="M193.644 67.0724C193.556 68.3484 193.072 69.0524 192.456 69.7564C181.94 81.3724 172.964 94.1324 164.912 107.508C155.232 123.612 144.452 138.924 133.32 153.972C122.276 168.888 111.452 183.98 101.112 199.38C100.628 200.128 100.1 200.876 99.4405 201.492C98.3405 202.504 96.8445 202.46 95.7445 201.624C94.7325 200.832 94.2925 199.512 94.8205 198.28C95.1725 197.4 95.7445 196.564 96.2725 195.728C107.008 179.712 118.272 164.048 129.756 148.56C140.8 133.732 151.272 118.508 160.732 102.624C166.628 92.7684 173.36 83.4404 180.62 74.5524C182.952 71.6924 185.372 68.9204 188.056 66.4124C188.628 65.8404 189.2 65.2684 189.948 64.9164C191.752 64.0804 193.688 65.4004 193.644 67.0724Z" fill="#F2F6FF"/>
<path d="M136.401 25.1843C136.445 26.1963 135.829 26.9443 135.169 27.6923C128.525 35.4803 122.013 43.3563 115.237 50.9683C107.185 60.0323 99.661 69.4923 92.577 79.3043C78.233 99.1923 63.273 118.552 48.093 137.78C45.321 141.3 42.681 144.952 39.997 148.516C39.513 149.176 39.029 149.836 38.413 150.32C37.269 151.288 35.817 151.288 34.717 150.452C33.573 149.572 33.221 148.208 33.837 146.844C34.189 146.14 34.673 145.48 35.157 144.82C37.577 141.564 39.909 138.308 42.417 135.14C60.237 112.744 77.353 89.8643 94.293 66.8083C103.269 54.5763 113.697 43.5323 123.729 32.1803C126.017 29.5403 128.393 26.9883 130.769 24.3923C131.385 23.7323 131.957 23.0283 132.837 22.7203C134.597 22.0163 136.357 23.2043 136.401 25.1843Z" fill="#F2F6FF"/>
<path d="M118.669 199.116C116.249 199.16 114.841 197.224 115.457 195.244C115.633 194.672 115.985 194.1 116.381 193.616C128.789 177.6 140.009 160.704 152.065 144.424C160.073 133.6 168.873 123.436 177.145 112.832C183.261 105 189.553 97.2564 196.153 89.8204C196.725 89.1604 197.341 88.4564 198.089 87.9724C199.145 87.2684 200.333 87.2684 201.301 88.1484C202.313 89.0284 202.445 90.1724 201.917 91.3164C201.521 92.1084 200.905 92.7684 200.333 93.4724C186.429 110.94 172.393 128.32 158.665 145.92C149.249 158.02 140.713 170.78 131.781 183.232C128.393 187.94 124.785 192.56 121.309 197.224C120.561 198.192 119.725 199.116 118.669 199.116Z" fill="#F2F6FF"/>
<path d="M27.5455 128.628C27.5455 127.484 28.2495 126.604 28.8655 125.724C32.5175 120.62 36.2135 115.56 39.8215 110.412C48.1375 98.6204 55.7055 86.3004 64.1095 74.5524C76.4295 57.3484 90.1575 41.2004 104.018 25.2284C105.25 23.8204 106.482 22.3684 108.11 21.3564C109.474 20.5204 110.882 20.7404 111.762 21.7964C112.642 22.8964 112.686 24.2604 111.498 25.4484C106.262 30.6404 102.038 36.7124 97.3295 42.3444C86.2415 55.5444 75.2855 68.7884 65.6055 83.0444C59.0495 92.6804 52.6695 102.448 46.0695 112.04C42.0215 117.98 37.7535 123.744 33.5735 129.552C33.0895 130.212 32.6055 130.828 31.8575 131.224C29.8775 132.368 27.5015 130.916 27.5455 128.628Z" fill="#F2F6FF"/>
<path d="M204.6 111.996C204.556 112.876 204.204 113.58 203.72 114.24C192.896 130.168 182.6 146.448 170.148 161.232C163.064 169.68 156.464 178.524 149.116 186.752C147.224 188.908 145.244 190.976 143.264 193.044C142.912 193.44 142.516 193.836 142.12 194.144C140.668 195.244 139.128 195.244 137.984 194.1C136.84 192.956 136.796 191.46 137.896 189.964C138.16 189.612 138.468 189.26 138.776 188.952C147.048 180.46 154.088 170.912 161.788 161.936C174.812 146.8 185.372 129.904 197.252 113.932C198.176 112.7 199.012 111.424 199.98 110.28C200.816 109.268 201.96 109.092 203.148 109.62C204.116 110.104 204.512 110.984 204.6 111.996Z" fill="#F2F6FF"/>
<path d="M25.9166 97.3443C25.9166 96.2003 26.6206 95.3643 27.2366 94.4403C33.7926 84.4963 40.8766 74.8603 48.0486 65.3563C58.0366 52.2004 68.8166 39.7044 79.7286 27.3404C79.9486 27.0764 80.1686 26.7684 80.4766 26.5484C81.7086 25.4484 83.0286 25.3604 84.1286 26.1964C85.3166 27.1204 85.5366 28.5284 84.5686 30.0244C83.9526 30.9924 83.1606 31.8724 82.4126 32.7964C73.5686 43.6204 64.5926 54.3563 55.8806 65.3123C47.7406 75.5643 40.0846 86.1683 32.8246 97.0803C32.1646 98.0483 31.6366 99.1043 30.6686 99.8083C29.6566 100.556 28.5566 100.732 27.4126 100.028C26.4006 99.4123 25.8726 98.4883 25.9166 97.3443Z" fill="#F2F6FF"/>
</svg>
