<svg width="120" height="121" viewBox="0 0 120 121" fill="none" xmlns="http://www.w3.org/2000/svg">
<path d="M110.976 66.8883C110.375 67.3203 109.728 67.2483 109.104 67.2483C105.888 67.1763 102.672 67.1283 99.4795 67.0323C90.6715 66.7443 81.8395 66.7683 73.0315 66.5523C65.1835 66.3363 57.3355 65.9043 49.4635 65.6163C38.5915 65.2563 27.7195 65.1603 16.8235 64.9923C16.2955 64.9923 15.7675 64.9923 15.2635 64.8723C14.4475 64.6803 14.0395 64.0803 14.0635 63.2883C14.0875 62.5203 14.5675 61.8963 15.3595 61.8003C16.1035 61.7043 16.8955 61.7283 17.6635 61.7283C34.0075 61.9203 50.3515 62.2083 66.6715 63.0483C75.9595 63.5283 85.2715 63.3603 94.5595 63.6003C99.5995 63.7203 104.615 63.9843 109.632 64.3203C109.967 64.3443 110.303 64.3923 110.616 64.4883C111.119 64.6563 111.408 65.0403 111.479 65.5443C111.576 66.1203 111.359 66.5763 110.976 66.8883Z" fill="#F2F6FF"/>
<path d="M110.279 58.8964C109.679 59.3044 109.007 59.2324 108.335 59.1844C102.887 58.7764 97.439 58.4164 91.967 58.4404C81.983 58.5124 72.047 57.5524 62.111 57.0964C50.375 56.5444 38.639 56.5204 26.903 56.1844C23.831 56.0884 20.783 55.8964 17.711 55.7524C17.327 55.7284 16.943 55.7044 16.583 55.5844C15.863 55.3684 15.455 54.7204 15.551 54.0724C15.647 53.3764 16.079 52.9444 16.775 52.8484C17.111 52.8004 17.447 52.8244 17.783 52.8244C32.399 53.1604 47.015 53.2324 61.607 53.8324C64.919 53.9764 68.207 54.1204 71.519 54.4324C78.839 55.0804 86.159 55.0564 93.503 55.2244C97.679 55.3204 101.831 55.5844 106.007 55.7524C106.871 55.8004 107.735 55.8484 108.599 55.8484C109.175 55.8484 109.751 55.9204 110.255 56.2564C111.167 56.8564 111.215 58.2484 110.279 58.8964Z" fill="#F2F6FF"/>
<path d="M16.0559 75.2644C15.3839 74.3044 15.7679 73.1764 16.7519 72.8164C17.2079 72.6484 17.6879 72.6724 18.1679 72.6964C32.6879 73.2484 47.2079 73.1524 61.7279 73.6804C67.0079 73.8724 72.2639 73.5364 77.5439 73.3204C86.5919 72.9604 95.6639 73.0324 104.712 73.6084C106.008 73.6804 107.304 73.7284 108.6 73.8004C108.936 73.8244 109.272 73.8244 109.608 73.8724C110.4 74.0404 110.832 74.5444 110.832 75.2644C110.832 75.9844 110.328 76.5844 109.488 76.7044C109.056 76.7764 108.624 76.7524 108.192 76.7284C102.144 76.6084 96.1199 76.4884 90.0719 76.3684C83.8319 76.2484 77.6159 76.5604 71.3759 76.8244C64.7999 77.1124 58.2479 76.8244 51.6719 76.6564C40.6079 76.3444 29.5199 76.3924 18.4559 75.9604C18.0239 75.9364 17.5919 75.9364 17.1599 75.8884C16.6799 75.8164 16.2719 75.6004 16.0559 75.2644Z" fill="#F2F6FF"/>
<path d="M106.968 86.1365C106.392 86.4965 105.912 86.4965 105.432 86.4485C97.1038 85.4645 88.7758 85.5365 80.4478 86.1845C70.4398 86.9525 60.4318 87.0485 50.4238 86.8565C40.5118 86.6885 30.5758 86.6645 20.6638 86.9525C20.1838 86.9765 19.7038 86.9765 19.2478 86.8805C18.4558 86.7125 18.0238 86.0645 18.0478 85.2965C18.0718 84.6005 18.5038 84.0245 19.2238 83.8565C19.7278 83.7365 20.2558 83.7125 20.7838 83.7125C31.0798 83.4005 41.3998 83.4485 51.6958 83.6405C61.5838 83.8325 71.4478 83.6645 81.2878 82.8725C87.4078 82.3685 93.5518 82.4165 99.6718 82.8005C101.64 82.9205 103.584 83.1365 105.528 83.4965C105.96 83.5685 106.392 83.6165 106.752 83.8565C107.664 84.4085 107.712 85.6565 106.968 86.1365Z" fill="#F2F6FF"/>
<path d="M107.4 48.2403C106.992 48.5763 106.464 48.5283 105.936 48.4803C100.488 48.0003 95.0398 47.6163 89.6158 47.0403C83.1838 46.3443 76.7278 46.0083 70.2478 45.9843C57.1678 45.9123 44.0878 45.4323 31.0318 44.7843C28.6318 44.6643 26.2318 44.6643 23.8558 44.5923C23.4238 44.5683 22.9918 44.5683 22.5838 44.4723C21.7918 44.2803 21.3598 43.6563 21.3838 42.8883C21.4078 42.1203 21.8878 41.5443 22.6798 41.3763C23.0878 41.3043 23.5438 41.3043 23.9758 41.3283C26.1358 41.3763 28.2958 41.3763 30.4318 41.4723C45.6958 42.2643 60.9838 42.6243 76.2718 42.8403C84.3838 42.9603 92.4238 44.0643 100.464 44.8803C102.312 45.0723 104.184 45.3123 106.032 45.5283C106.512 45.5763 106.992 45.6243 107.4 45.9123C108.24 46.4643 108.264 47.6163 107.4 48.2403Z" fill="#F2F6FF"/>
<path d="M26.2563 94.5363C25.4883 93.4803 25.8723 92.2803 26.9523 91.9443C27.2643 91.8483 27.6243 91.8243 27.9363 91.8483C38.7603 92.2563 49.5843 91.9203 60.4323 92.0883C67.6323 92.2083 74.7843 92.8803 81.9603 93.1923C87.2643 93.4323 92.5923 93.7443 97.8723 94.3203C98.3523 94.3683 98.8324 94.4163 99.2884 94.5843C99.9363 94.8243 100.296 95.3283 100.224 96.0483C100.152 96.7683 99.6964 97.1763 99.0243 97.2963C98.5683 97.3683 98.0643 97.2963 97.5844 97.2723C85.6803 96.6483 73.7523 95.9283 61.8483 95.4483C53.6643 95.1123 45.4563 95.3763 37.2723 95.3283C34.1523 95.3043 31.0563 95.1843 27.9363 95.1123C27.2403 95.0643 26.5683 94.9923 26.2563 94.5363Z" fill="#F2F6FF"/>
<path d="M28.6313 33.0245C29.1353 32.6645 29.7113 32.6885 30.2873 32.6885C33.6473 32.6885 37.0073 32.7365 40.3433 32.7125C48.0473 32.6645 55.7513 32.1125 63.4793 32.1365C74.8073 32.1605 86.0633 33.1205 97.3433 34.1765C98.3513 34.2725 99.3593 34.3685 100.295 34.7525C101.087 35.0885 101.423 35.7605 101.231 36.4805C101.039 37.2005 100.439 37.6565 99.5753 37.4885C95.6873 36.8405 91.7513 36.8885 87.8393 36.5765C78.6713 35.8565 69.4793 35.2085 60.2633 35.4245C54.0473 35.5685 47.8073 35.8085 41.5913 35.9525C37.7513 36.0245 33.9353 35.9525 30.0953 35.9525C29.6633 35.9525 29.2313 35.9285 28.8233 35.7365C27.7193 35.1845 27.6233 33.7205 28.6313 33.0245Z" fill="#F2F6FF"/>
<path d="M90.8398 104.856C90.4318 105.12 90.0238 105.168 89.5918 105.168C79.2958 105.384 68.9998 105.984 58.7278 105.144C52.8478 104.664 46.9678 104.544 41.0878 103.92C39.5758 103.752 38.0398 103.536 36.5278 103.344C36.2398 103.296 35.9518 103.272 35.6878 103.176C34.7518 102.888 34.2718 102.192 34.4158 101.352C34.5598 100.512 35.1838 100.032 36.1918 100.008C36.4318 100.008 36.6718 100.032 36.9118 100.08C43.1758 101.04 49.5118 101.136 55.7998 101.712C66.4318 102.672 77.0638 102.024 87.6718 102.24C88.4878 102.264 89.3038 102.24 90.1198 102.288C90.8158 102.336 91.2478 102.792 91.3918 103.464C91.4878 104.064 91.2478 104.52 90.8398 104.856Z" fill="#F2F6FF"/>
<path d="M41.7358 22.5843C42.2398 22.2243 42.8398 22.2723 43.3918 22.2483C49.7518 22.0083 56.1358 22.1043 62.4958 22.2963C71.3038 22.5603 80.0878 23.3763 88.8718 24.2643C89.0638 24.2883 89.2558 24.2883 89.4478 24.3363C90.3118 24.5283 90.7678 25.0803 90.7438 25.8243C90.6958 26.6403 90.1678 27.1683 89.2078 27.1923C88.5838 27.2163 87.9598 27.1443 87.3358 27.1203C79.8718 26.6403 72.4318 26.0403 64.9678 25.6803C57.9838 25.3203 50.9758 25.2963 43.9918 25.5123C43.3678 25.5363 42.7438 25.6083 42.1438 25.4163C41.4958 25.2003 41.0878 24.7683 41.0398 24.0723C40.9678 23.4243 41.2078 22.9443 41.7358 22.5843Z" fill="#F2F6FF"/>
</svg>
