<svg width="220" height="221" viewBox="0 0 220 221" fill="none" xmlns="http://www.w3.org/2000/svg">
<path d="M174.108 85.4643C176.704 85.5523 178.64 86.7403 179.74 89.1163C180.84 91.4923 180.62 93.8683 178.904 95.8043C176.352 98.6203 173.536 101.216 170.456 103.416C168.036 105.176 164.912 104.648 162.932 102.58C160.952 100.556 160.556 97.3003 162.272 95.0123C164.56 91.9763 167.288 89.2923 170.104 86.7843C171.204 85.7723 172.612 85.3763 174.108 85.4643Z" fill="#F2F6FF"/>
<path d="M204.16 104.208C203.72 107.244 203.324 110.544 202.444 113.756C202.048 115.252 201.168 116.528 199.936 117.496C198 119.08 195.756 119.344 193.512 118.376C191.356 117.452 190.124 115.648 189.992 113.272C189.948 112.7 189.948 112.128 190.036 111.556C190.784 108.3 191.444 105.044 192.368 101.876C193.292 98.8842 196.152 97.2122 198.968 97.6962C202.048 98.2242 204.16 100.732 204.16 104.208Z" fill="#F2F6FF"/>
<path d="M101.86 140.86C101.904 140.508 101.904 139.848 102.08 139.188C103.092 135.932 104.368 132.764 106.084 129.772C107.36 127.528 109.472 126.428 112.068 126.824C114.664 127.22 116.336 128.76 117.084 131.268C117.436 132.5 117.348 133.688 116.908 134.92C116.028 137.428 115.236 139.936 114.312 142.444C114.004 143.324 113.52 144.16 112.948 144.952C111.232 147.372 108.548 148.252 105.952 147.328C103.356 146.404 101.816 144.16 101.86 140.86Z" fill="#F2F6FF"/>
<path d="M164.605 148.076C162.097 147.988 160.205 146.888 159.105 144.644C157.697 141.74 156.685 138.66 155.849 135.536C155.057 132.5 156.641 129.684 159.369 128.54C162.185 127.352 165.441 128.408 166.937 131.224C168.477 134.04 169.841 137.032 170.677 140.112C171.909 144.336 168.829 148.164 164.605 148.076Z" fill="#F2F6FF"/>
<path d="M127.908 150.144C129.624 149.88 131.34 149.836 133.012 150.144C136.488 150.804 138.82 153.752 138.512 157.008C138.16 160.352 135.432 162.772 131.868 162.728C129.14 162.684 126.368 162.552 123.64 162.244C120.076 161.848 117.876 159.252 118.008 155.908C118.14 152.652 120.648 150.32 124.256 150.144C125.444 150.1 126.676 150.144 127.908 150.144Z" fill="#F2F6FF"/>
<path d="M89.3639 159.78C89.1879 162.376 87.9999 164.312 85.6239 165.412C83.3359 166.468 80.6079 165.852 78.8039 164.004C77.2639 162.42 76.5599 160.484 76.3839 158.328C76.2079 156.128 76.0759 153.972 76.1199 151.772C76.1639 148.56 78.4079 146.096 81.4439 145.7C84.3039 145.348 86.9879 147.196 87.9119 150.188C88.2199 151.2 88.3079 152.256 88.4839 153.268C88.7919 155.424 89.0559 157.624 89.3639 159.78Z" fill="#F2F6FF"/>
<path d="M38.5444 124.052C38.5884 128.1 36.6964 130.652 33.6164 131.18C30.7564 131.62 27.3684 129.684 26.4444 126.692C25.4324 123.304 25.2124 119.74 25.7844 116.264C26.2244 113.58 28.5124 111.776 31.1964 111.6C33.9684 111.424 36.4764 113.052 37.2684 115.78C38.1484 118.596 38.1484 121.588 38.5444 124.052Z" fill="#F2F6FF"/>
<path d="M110.837 187.764C110.749 183.496 112.817 180.768 116.029 180.372C119.417 179.976 122.013 181.824 122.849 185.388C123.377 187.588 123.817 189.832 124.125 192.076C124.653 195.684 122.321 198.896 118.933 199.38C115.325 199.908 112.377 197.84 111.717 194.144C111.233 191.856 111.057 189.524 110.837 187.764Z" fill="#F2F6FF"/>
<path d="M43.604 91.8443C45.76 92.1523 48.224 92.3723 50.556 93.2523C51.568 93.6043 52.448 94.1763 53.196 94.8803C55.352 96.9043 56.012 99.4563 55 101.832C53.988 104.208 51.612 105.704 48.752 105.44C45.936 105.132 43.12 104.428 40.48 103.372C37.708 102.228 36.344 99.3683 37.004 96.5963C37.708 93.6483 40.216 91.8003 43.604 91.8443Z" fill="#F2F6FF"/>
<path d="M151.184 111.6C151.096 113.712 151.096 115.34 150.7 116.924C150.172 119.036 149.072 120.796 147.092 121.852C143.22 123.92 138.644 121.324 138.424 116.836C138.292 113.976 138.732 111.116 139.392 108.344C140.096 105.308 142.78 103.548 145.772 103.812C148.72 104.076 150.92 106.408 151.14 109.532C151.228 110.368 151.184 111.248 151.184 111.6Z" fill="#F2F6FF"/>
<path d="M112.112 103.196C111.936 104.736 111.848 106.672 111.496 108.52C110.836 112.04 107.8 114.372 104.588 113.932C101.068 113.448 98.8237 110.544 99.1317 106.804C99.2637 105 99.6157 103.24 99.9677 101.436C100.716 97.6962 103.488 95.4962 106.744 95.8922C110.044 96.3322 112.2 99.1042 112.112 103.196Z" fill="#F2F6FF"/>
<path d="M156.068 33.8524C155.98 35.0844 155.936 36.3164 155.76 37.5484C155.232 40.9804 152.46 43.2684 149.248 43.0924C145.992 42.9164 143.352 40.2764 143.352 36.8884C143.352 34.4244 143.572 31.9164 144.188 29.5404C144.98 26.6364 147.488 24.7884 150.304 24.9644C153.164 25.1404 155.364 27.1644 155.936 30.1564C156.156 31.3884 156.112 32.6204 156.068 33.8524Z" fill="#F2F6FF"/>
<path d="M69.8733 41.9483C71.8093 41.9043 73.4373 42.6963 74.6253 44.1923C75.9893 45.9083 77.3533 47.6243 78.4533 49.5163C80.3013 52.5963 79.3773 56.2043 76.5613 58.0523C73.7453 59.8563 70.2693 59.2843 68.2013 56.4683C66.8373 54.6643 65.5613 52.7283 64.5933 50.6603C62.5253 46.5243 65.3853 41.9923 69.8733 41.9483Z" fill="#F2F6FF"/>
<path d="M193.072 143.5C190.124 142.796 186.692 141.608 183.964 139.144C182.072 137.472 181.852 134.524 183.04 132.28C184.228 130.036 186.78 128.628 189.244 129.156C191.928 129.728 194.568 130.608 196.944 132.016C199.496 133.512 200.508 136.46 199.716 139.188C198.968 141.74 196.504 143.5 193.072 143.5Z" fill="#F2F6FF"/>
<path d="M51.7877 156.524C49.4117 156.568 47.5637 155.468 46.3317 153.488C44.7917 151.024 43.9117 148.296 43.6037 145.48C43.2957 142.356 45.1437 139.892 48.0917 139.1C50.8637 138.396 53.6357 139.584 54.9557 142.312C55.9237 144.248 56.8037 146.272 57.5077 148.34C58.9157 152.388 56.0117 156.48 51.7877 156.524Z" fill="#F2F6FF"/>
<path d="M76.0754 187.28C76.1634 183.672 82.1034 177.38 85.7114 177.072C88.0874 176.896 90.0234 177.82 91.3434 179.756C92.7514 181.824 92.9714 184.112 91.6514 186.224C89.8914 188.996 87.4714 191.24 84.6554 192.78C80.6954 194.936 75.9874 191.768 76.0754 187.28Z" fill="#F2F6FF"/>
<path d="M53.9874 67.3363C53.9874 70.9003 51.9194 73.4963 48.9274 74.0243C45.8914 74.5523 42.9874 72.8803 41.9754 69.8443C41.0514 67.1163 40.9194 64.2123 41.1394 61.3523C41.3594 58.4483 43.6034 56.4243 46.3754 56.1603C49.2354 55.8963 51.6994 57.3483 52.6674 60.0763C53.5474 62.4963 53.7674 65.0923 53.9874 67.3363Z" fill="#F2F6FF"/>
<path d="M108.504 61.7924C108.46 64.6084 106.612 67.0284 103.972 67.6884C101.156 68.4364 98.2082 67.2924 96.9322 64.6964C95.6562 62.0564 94.9962 59.1084 94.7322 56.2044C94.4682 53.6964 96.3162 51.3644 98.6922 50.5284C101.244 49.6484 103.884 50.4404 105.556 52.6404C106.788 54.3124 108.548 59.7684 108.504 61.7924Z" fill="#F2F6FF"/>
<path d="M158.4 57.2603C159.192 57.3043 160.072 57.3043 160.82 57.7883C163.9 59.7683 166.672 62.1003 167.904 65.7083C168.872 68.5243 167.772 71.3843 165.308 72.8803C162.888 74.3323 159.764 73.9803 157.74 71.8243C156.244 70.2403 154.836 68.5243 153.56 66.7643C152.108 64.7403 151.976 62.4963 153.208 60.2963C154.308 58.3163 156.068 57.3043 158.4 57.2603Z" fill="#F2F6FF"/>
<path d="M86.0207 85.0242C85.6687 87.3122 85.2727 90.0402 83.9527 92.5042C82.2367 95.6282 78.9807 96.8602 75.9887 95.5842C73.1287 94.3962 71.7647 91.4042 72.6007 87.9722C73.1287 85.8602 73.6567 83.7042 74.6247 81.7682C75.9447 79.0842 78.7167 77.8962 81.5767 78.6002C84.2167 79.3042 86.0207 81.6802 86.0207 85.0242Z" fill="#F2F6FF"/>
<path d="M86.3723 35.1723C83.9083 35.1723 81.7083 33.6763 80.8283 31.3883C79.8603 29.0123 80.4323 26.3283 82.4563 24.6563C84.3483 23.0723 86.5923 21.8843 88.9683 21.1363C91.5203 20.3443 94.2483 21.4443 95.7443 23.6443C97.3283 25.9763 97.1523 28.9243 95.3483 31.0803C93.9403 32.7083 88.5283 35.1723 86.3723 35.1723Z" fill="#F2F6FF"/>
<path d="M166.012 173.2C166.012 174.52 166.1 175.84 165.66 177.16C164.736 180.152 162.228 181.912 159.192 181.648C156.288 181.428 153.824 179.14 153.56 176.148C153.34 173.684 153.648 171.176 154.396 168.844C155.276 166.16 157.828 164.664 160.644 164.928C163.372 165.192 165.572 167.26 165.968 170.076C166.1 171.088 166.012 172.144 166.012 173.2Z" fill="#F2F6FF"/>
<path d="M76.8245 128.056C76.7365 130.168 75.5045 132.06 73.0845 133.116C70.6645 134.172 68.3325 133.776 66.4845 131.928C64.5925 130.036 63.1845 127.748 62.2605 125.196C61.4685 123.04 62.1725 121.016 63.7565 119.432C65.3405 117.804 67.2765 117.188 69.5205 117.76C72.6885 118.596 76.8685 124.14 76.8245 128.056Z" fill="#F2F6FF"/>
<path d="M140.581 72.8365C140.537 73.0565 140.581 73.4525 140.449 73.8045C139.173 77.5445 136.885 80.5365 133.233 82.1205C130.989 83.0885 128.877 82.2525 127.249 80.6245C125.665 79.0405 125.005 77.0165 125.753 74.8605C126.721 72.0005 128.525 69.6245 130.857 67.7765C132.837 66.2365 135.081 66.1485 137.325 67.3365C139.393 68.4365 140.449 70.2845 140.581 72.8365Z" fill="#F2F6FF"/>
<path d="M127.733 34.1603C127.689 35.5683 127.689 37.0203 127.205 38.3843C126.237 41.2883 123.685 42.9603 120.605 42.6523C117.745 42.3443 115.501 40.1883 115.193 37.2403C114.929 34.8643 115.193 32.4443 115.853 30.1563C116.645 27.3403 119.241 25.6683 122.189 25.9323C124.917 26.1523 127.117 28.1763 127.601 30.9923C127.733 32.0483 127.689 33.1043 127.733 34.1603Z" fill="#F2F6FF"/>
<path d="M191.4 60.0763C191.268 61.7923 191.268 63.5083 190.74 65.1363C189.772 68.2163 187.132 69.9323 183.964 69.5363C180.928 69.1403 178.772 66.6763 178.64 63.4643C178.596 61.5283 179.08 59.6803 179.432 57.8323C180.092 54.4883 182.864 52.5523 186.076 52.9043C189.112 53.2123 191.224 55.6323 191.4 58.9763C191.4 59.2843 191.4 59.6803 191.4 60.0763Z" fill="#F2F6FF"/>
</svg>
