<svg width="220" height="221" viewBox="0 0 220 221" fill="none" xmlns="http://www.w3.org/2000/svg">
<path d="M188.804 43.3124C179.212 29.1444 163.592 24.5244 148.94 21.6204C118.756 15.5924 86.7681 22.2804 61.9521 43.8844C42.1521 61.1764 20.8121 93.6044 27.7201 124.272C33.8361 151.288 45.1881 185.388 68.5961 197.444C82.6761 204.704 99.7481 204.396 114.752 202.328C129.492 200.304 144.408 195.728 157.652 187.632C170.984 179.448 180.532 167.392 186.428 151.244C192.28 135.228 198.132 116.088 197.076 98.4444C195.096 66.1044 169.752 44.6764 144.056 40.4084C115.852 35.7444 83.5121 46.3484 64.4161 71.9564C47.4321 94.7484 42.2401 128.672 57.4641 154.5C73.3481 181.516 109.648 188.864 135.388 181.472C159.632 174.476 181.148 150.892 182.6 120.62C184.096 89.2924 164.78 65.8404 138.732 62.7164C112.464 59.5484 78.6281 71.4724 70.0481 104.12C62.8761 131.312 81.4001 160.044 104.412 164.708C127.424 169.372 155.452 151.376 162.712 124.712C171.688 91.8884 136.928 74.6844 114.62 79.8324C103.18 82.4724 91.6521 90.4804 87.2081 103.636C83.6441 114.108 84.6121 127.22 90.7281 136.196C104.412 156.216 141.724 146.624 147.224 121.984C153.736 92.8123 118.932 86.4764 105.776 104.912C99.4401 113.8 102.916 124.492 112.772 125.768C119.24 126.604 132.528 124.756 134.112 115.34C134.816 111.116 132.396 107.464 129.228 105.836C124.344 103.284 119.24 106.232 114.884 108.828C113.212 109.84 114.708 112.744 116.336 111.732C117.524 111.028 118.712 110.324 119.988 109.752C125.092 107.42 128.436 106.364 129.976 113.272C131.296 119.212 128.92 119.124 125.048 120.708C124.212 121.06 123.376 121.28 122.496 121.5C119.988 122.248 117.348 122.6 114.796 122.556C109.428 122.424 104.94 116.968 106.172 110.676C107.536 103.812 116.248 99.8524 121.484 98.4444C127.644 96.8164 135.08 97.2124 140.008 102.272C152.372 114.944 140.8 134.48 128.744 139.716C118.624 144.116 103.136 145.7 94.7321 136.328C87.2081 127.968 86.1521 113.052 90.8161 102.58C96.2281 90.3924 107.976 83.8804 119.24 82.4724C131.12 80.9764 144.232 84.4524 152.988 94.3524C163.856 106.672 162.272 123.48 153.78 136.724C141.02 156.524 117.128 168.624 96.6241 158.548C75.2841 148.032 64.1081 117.76 77.2201 94.0004C90.5081 69.8884 119.9 62.0564 142.868 66.7644C166.012 71.5164 181.368 94.2644 179.564 121.808C177.848 147.768 159.984 168.8 139.48 176.588C117.128 185.08 85.6241 181.032 67.3641 162.552C49.5441 144.468 47.2121 113.844 57.3761 90.0844C68.0241 65.1364 89.9361 50.0444 112.772 44.9404C135.652 39.8364 161.832 43.4004 179.212 63.1124C187.396 72.4404 193.292 85.0244 194.084 98.4884C194.964 112.788 190.74 127.176 186.78 140.508C182.732 154.236 177.276 166.908 167.464 176.236C157.74 185.476 145.64 190.976 133.628 194.76C111.848 201.624 81.4441 205.54 61.9081 189.26C45.1441 175.268 37.4881 149.528 31.5041 127.572C24.2001 100.512 38.8521 72.7044 55.3961 54.6644C72.3801 36.1404 94.5121 25.5364 117.568 23.2924C140.976 21.0044 173.844 24.5244 188.54 48.5924C195.536 59.9884 202.708 72.7484 204.116 86.9164C204.336 89.0284 207.24 89.0724 207.02 86.9164C205.392 70.8564 197.252 55.8084 188.804 43.3124Z" fill="#F2F6FF" stroke="#F2F6FF" stroke-width="4.8176" stroke-miterlimit="10"/>
</svg>
