<svg width="120" height="121" viewBox="0 0 120 121" fill="none" xmlns="http://www.w3.org/2000/svg">
<path d="M55.1997 17.7125C55.0317 16.2965 54.8637 14.8805 54.6957 13.4645C54.5277 12.1205 52.4157 12.1205 52.5837 13.4645C52.7517 14.8805 52.9197 16.2965 53.0877 17.7125C53.2557 19.0565 55.3677 19.0565 55.1997 17.7125Z" fill="#F2F6FF" stroke="#F2F6FF" stroke-width="1.46357" stroke-miterlimit="10"/>
<path d="M48.5755 19.7764C48.1675 18.3844 47.4955 17.1604 46.6076 16.0324C46.2476 15.5764 45.4796 15.6724 45.1196 16.0324C44.6636 16.4884 44.7596 17.0884 45.1196 17.5204C45.7676 18.3604 46.2475 19.3204 46.5355 20.3284C46.9195 21.6484 48.9595 21.0964 48.5755 19.7764Z" fill="#F2F6FF" stroke="#F2F6FF" stroke-width="1.46357" stroke-miterlimit="10"/>
<path d="M40.0321 22.1524C39.4081 21.4564 38.7841 20.7364 38.1361 20.0404C37.7521 19.6084 37.0321 19.6564 36.6481 20.0404C36.2161 20.4724 36.2641 21.1204 36.6481 21.5284C37.2721 22.2244 37.8961 22.9444 38.5441 23.6404C38.9281 24.0724 39.6481 24.0244 40.0321 23.6404C40.4641 23.2324 40.4161 22.5844 40.0321 22.1524Z" fill="#F2F6FF" stroke="#F2F6FF" stroke-width="1.46357" stroke-miterlimit="10"/>
<path d="M32.4962 26.4006C31.6562 25.4406 30.6242 24.6486 29.4482 24.1206C28.9202 23.8806 28.2962 23.9766 28.0082 24.5046C27.7442 24.9606 27.8642 25.7046 28.3922 25.9446C29.4002 26.4246 30.2642 27.0486 31.0082 27.9126C31.8962 28.9206 33.3842 27.4086 32.4962 26.4006Z" fill="#F2F6FF" stroke="#F2F6FF" stroke-width="1.46357" stroke-miterlimit="10"/>
<path d="M23.808 30.4326C22.8 29.7846 21.768 29.1606 20.76 28.5126C19.608 27.7926 18.528 29.6166 19.68 30.3366C20.688 30.9846 21.72 31.6086 22.728 32.2566C23.904 33.0006 24.96 31.1766 23.808 30.4326Z" fill="#F2F6FF" stroke="#F2F6FF" stroke-width="1.46357" stroke-miterlimit="10"/>
<path d="M17.3754 39.3603C16.3434 39.1203 15.2874 38.8803 14.2554 38.6163C12.9354 38.3043 12.3834 40.3443 13.7034 40.6563C14.7354 40.8963 15.7914 41.1363 16.8234 41.4003C18.1434 41.7123 18.6954 39.6723 17.3754 39.3603Z" fill="#F2F6FF" stroke="#F2F6FF" stroke-width="1.46357" stroke-miterlimit="10"/>
<path d="M15.3348 47.7606C15.4788 47.2566 15.1428 46.5606 14.5908 46.4646C13.5108 46.2966 12.4308 46.1046 11.3508 45.9366C10.7748 45.8406 10.2228 46.1045 10.0548 46.6806C9.91084 47.1846 10.2468 47.8806 10.7988 47.9766C11.8788 48.1446 12.9588 48.3366 14.0388 48.5046C14.6148 48.6006 15.1908 48.3366 15.3348 47.7606Z" fill="#F2F6FF" stroke="#F2F6FF" stroke-width="1.46357" stroke-miterlimit="10"/>
<path d="M15.6716 55.0565C15.5276 54.4565 14.9516 54.1925 14.3756 54.3125L10.4156 55.0085C9.83962 55.1045 9.52762 55.7765 9.67162 56.3045C9.81562 56.9045 10.3916 57.1685 10.9676 57.0485L14.9276 56.3525C15.4796 56.2565 15.8156 55.5845 15.6716 55.0565Z" fill="#F2F6FF" stroke="#F2F6FF" stroke-width="1.46357" stroke-miterlimit="10"/>
<path d="M14.8559 62.4486C13.6799 63.0006 12.4079 63.2166 11.1119 63.1686C9.74394 63.1206 9.74394 65.2326 11.1119 65.2806C12.7679 65.3526 14.3999 64.9926 15.8879 64.2726C17.1359 63.7206 16.1039 61.8726 14.8559 62.4486Z" fill="#F2F6FF" stroke="#F2F6FF" stroke-width="1.46357" stroke-miterlimit="10"/>
<path d="M35.7842 102.961C35.1842 104.089 34.7282 105.265 34.4402 106.489C34.1282 107.809 36.1922 108.385 36.4802 107.041C36.7202 105.985 37.0802 104.977 37.6082 104.017C38.2802 102.841 36.4322 101.761 35.7842 102.961Z" fill="#F2F6FF" stroke="#F2F6FF" stroke-width="1.46357" stroke-miterlimit="10"/>
<path d="M43.2239 104.4C42.9119 105.504 42.5999 106.608 42.3119 107.712C41.9519 109.032 43.9919 109.584 44.3519 108.264C44.6639 107.16 44.9759 106.056 45.2639 104.952C45.648 103.632 43.6079 103.08 43.2239 104.4Z" fill="#F2F6FF" stroke="#F2F6FF" stroke-width="1.46357" stroke-miterlimit="10"/>
<path d="M50.2559 103.488V107.256C50.2559 108.624 52.3679 108.624 52.3679 107.256V103.488C52.3679 102.12 50.2559 102.12 50.2559 103.488Z" fill="#F2F6FF" stroke="#F2F6FF" stroke-width="1.46357" stroke-miterlimit="10"/>
<path d="M59.159 104.16C59.063 103.584 58.367 103.272 57.863 103.416C57.263 103.584 57.023 104.16 57.119 104.712C57.239 105.408 57.119 106.128 56.807 106.752C56.543 107.256 56.663 107.904 57.191 108.192C57.647 108.456 58.391 108.336 58.631 107.808C59.207 106.632 59.375 105.432 59.159 104.16Z" fill="#F2F6FF" stroke="#F2F6FF" stroke-width="1.46357" stroke-miterlimit="10"/>
<path d="M65.8801 103.896C65.6401 103.368 64.8961 103.248 64.4401 103.512C63.9121 103.824 63.8161 104.448 64.0561 104.952C64.3681 105.6 64.5601 106.296 64.6321 107.016C64.6801 107.592 65.0881 108.072 65.6881 108.072C66.2161 108.072 66.8161 107.592 66.7441 107.016C66.6481 105.912 66.3601 104.904 65.8801 103.896Z" fill="#F2F6FF" stroke="#F2F6FF" stroke-width="1.46357" stroke-miterlimit="10"/>
<path d="M76.1279 104.857C75.5759 103.561 74.8799 102.385 73.9679 101.329C73.0799 100.297 71.5919 101.809 72.4799 102.817C73.1519 103.585 73.7039 104.473 74.0879 105.409C74.3039 105.937 74.7839 106.321 75.3839 106.153C75.8879 106.033 76.3439 105.385 76.1279 104.857Z" fill="#F2F6FF" stroke="#F2F6FF" stroke-width="1.46357" stroke-miterlimit="10"/>
<path d="M84.3604 102.265C83.3284 101.401 82.3204 100.537 81.2884 99.6965C80.8564 99.3365 80.2084 99.2645 79.8004 99.6965C79.4164 100.081 79.3684 100.825 79.8004 101.185C80.8324 102.049 81.8404 102.913 82.8724 103.753C83.3044 104.113 83.9524 104.185 84.3604 103.753C84.7444 103.369 84.7924 102.625 84.3604 102.265Z" fill="#F2F6FF" stroke="#F2F6FF" stroke-width="1.46357" stroke-miterlimit="10"/>
<path d="M90.6966 97.3204C90.2166 96.7684 89.7606 96.2164 89.2806 95.6644C88.8966 95.2324 88.1526 95.2804 87.7926 95.6644C87.3606 96.0964 87.4086 96.7204 87.7926 97.1524C88.2726 97.7044 88.7286 98.2564 89.2086 98.8084C89.5926 99.2404 90.3366 99.1924 90.6966 98.8084C91.1286 98.4004 91.0806 97.7524 90.6966 97.3204Z" fill="#F2F6FF" stroke="#F2F6FF" stroke-width="1.46357" stroke-miterlimit="10"/>
<path d="M98.7122 93.1924C97.1522 92.4004 95.5682 91.6084 94.0082 90.8164C92.7842 90.1924 91.7282 92.0404 92.9282 92.6404C94.4882 93.4324 96.0722 94.2244 97.6322 95.0164C98.8562 95.6164 99.9362 93.7924 98.7122 93.1924Z" fill="#F2F6FF" stroke="#F2F6FF" stroke-width="1.46357" stroke-miterlimit="10"/>
<path d="M104.856 86.7844C103.824 86.3044 102.816 85.8484 101.784 85.3684C101.256 85.1284 100.632 85.2244 100.344 85.7524C100.08 86.2084 100.2 86.9524 100.728 87.1924C101.76 87.6724 102.768 88.1284 103.8 88.6084C104.328 88.8484 104.952 88.7524 105.24 88.2244C105.504 87.7684 105.384 87.0244 104.856 86.7844Z" fill="#F2F6FF" stroke="#F2F6FF" stroke-width="1.46357" stroke-miterlimit="10"/>
<path d="M110.952 80.1365C109.44 79.7285 107.952 79.2485 106.488 78.6485C105.216 78.1445 104.664 80.1845 105.936 80.6885C107.4 81.2645 108.888 81.7685 110.4 82.1765C111.72 82.5365 112.272 80.4965 110.952 80.1365Z" fill="#F2F6FF" stroke="#F2F6FF" stroke-width="1.46357" stroke-miterlimit="10"/>
<path d="M111.216 71.3524C109.56 70.9684 107.928 70.5604 106.272 70.1764C104.952 69.8644 104.376 71.9044 105.72 72.2164C107.376 72.6004 109.008 73.0084 110.664 73.3924C111.984 73.7284 112.536 71.6884 111.216 71.3524Z" fill="#F2F6FF" stroke="#F2F6FF" stroke-width="1.46357" stroke-miterlimit="10"/>
<path d="M111.167 63.0724C109.967 63.1204 108.839 62.9764 107.687 62.6404C106.367 62.2564 105.815 64.2964 107.135 64.6804C108.455 65.0644 109.823 65.2564 111.191 65.2084C112.535 65.1604 112.535 63.0244 111.167 63.0724Z" fill="#F2F6FF" stroke="#F2F6FF" stroke-width="1.46357" stroke-miterlimit="10"/>
<path d="M109.272 52.4644H104.784C103.416 52.4644 103.416 54.5764 104.784 54.5764H109.272C110.64 54.6004 110.64 52.4644 109.272 52.4644Z" fill="#F2F6FF" stroke="#F2F6FF" stroke-width="1.46357" stroke-miterlimit="10"/>
<path d="M107.808 46.3445L102.864 47.0885C101.52 47.2805 102.096 49.3445 103.416 49.1285C105.072 48.8885 106.704 48.6245 108.36 48.3845C109.728 48.1925 109.152 46.1525 107.808 46.3445Z" fill="#F2F6FF" stroke="#F2F6FF" stroke-width="1.46357" stroke-miterlimit="10"/>
<path d="M105.696 35.9764C104.04 36.2404 102.48 36.7684 100.968 37.5364C99.7441 38.1604 100.824 39.9843 102.048 39.3603C103.392 38.6883 104.784 38.2564 106.272 38.0164C107.592 37.8244 107.04 35.7844 105.696 35.9764Z" fill="#F2F6FF" stroke="#F2F6FF" stroke-width="1.46357" stroke-miterlimit="10"/>
<path d="M100.991 30.3605C99.5028 30.9125 98.0148 31.4645 96.5028 32.0165C95.2308 32.4725 95.7828 34.5365 97.0548 34.0565C98.5428 33.5045 100.031 32.9525 101.543 32.4005C102.815 31.9445 102.263 29.8805 100.991 30.3605Z" fill="#F2F6FF" stroke="#F2F6FF" stroke-width="1.46357" stroke-miterlimit="10"/>
<path d="M93.3828 23.8085C91.9668 24.8405 90.5748 25.8725 89.1588 26.9045C88.0788 27.6965 89.1348 29.5445 90.2388 28.7285C91.6548 27.6965 93.0468 26.6645 94.4628 25.6325C95.5428 24.8645 94.4868 23.0165 93.3828 23.8085Z" fill="#F2F6FF" stroke="#F2F6FF" stroke-width="1.46357" stroke-miterlimit="10"/>
<path d="M85.1759 17.2563C83.6159 18.4083 82.1999 19.7043 80.9519 21.1923C80.0639 22.2243 81.5759 23.7363 82.4399 22.6803C83.5679 21.3363 84.8399 20.1123 86.2319 19.0803C87.3359 18.2883 86.2799 16.4403 85.1759 17.2563Z" fill="#F2F6FF" stroke="#F2F6FF" stroke-width="1.46357" stroke-miterlimit="10"/>
<path d="M76.1764 13.3924C74.6884 14.2564 73.3684 15.3844 72.2644 16.7284C71.9044 17.1844 71.8324 17.7844 72.2644 18.2164C72.6244 18.6004 73.4164 18.6724 73.7524 18.2164C74.7364 16.9924 75.8884 15.9844 77.2324 15.2164C78.4084 14.5444 77.3524 12.6964 76.1764 13.3924Z" fill="#F2F6FF" stroke="#F2F6FF" stroke-width="1.46357" stroke-miterlimit="10"/>
<path d="M62.5684 11.1124C62.2324 12.4804 61.8964 13.8724 61.5844 15.2404C61.2724 16.5604 63.3604 16.9444 63.6724 15.6244C64.0084 14.2564 64.3444 12.8644 64.6564 11.4964C64.9924 10.1524 62.9044 9.76842 62.5684 11.1124Z" fill="#F2F6FF" stroke="#F2F6FF" stroke-width="1.46357" stroke-miterlimit="10"/>
<path d="M64.7029 21.3603C64.3189 22.4643 63.9109 23.5683 63.5269 24.6483C63.0709 25.9443 65.1109 26.4963 65.5669 25.2003C65.9509 24.0963 66.3589 22.9923 66.7429 21.9123C67.1989 20.6403 65.1589 20.0883 64.7029 21.3603Z" fill="#F2F6FF" stroke="#F2F6FF" stroke-width="1.46357" stroke-miterlimit="10"/>
<path d="M58.2484 20.9524C57.7204 20.8084 57.0484 21.1204 56.9524 21.6964C56.7844 22.5604 56.6164 23.4244 56.4724 24.2884C56.3764 24.8404 56.6404 25.4404 57.2164 25.5844C57.7444 25.7284 58.4164 25.4164 58.5124 24.8404L58.9924 22.2484C59.0884 21.6724 58.8244 21.0964 58.2484 20.9524Z" fill="#F2F6FF" stroke="#F2F6FF" stroke-width="1.46357" stroke-miterlimit="10"/>
<path d="M49.9909 28.9685C49.8229 27.8645 49.6549 26.7605 49.4869 25.6805C49.3909 25.1045 48.6949 24.7925 48.1909 24.9365C47.5909 25.1045 47.3749 25.6805 47.4469 26.2325L47.9509 29.5205C48.0469 30.0965 48.7429 30.4085 49.2469 30.2645C49.8709 30.1205 50.0869 29.5445 49.9909 28.9685Z" fill="#F2F6FF" stroke="#F2F6FF" stroke-width="1.46357" stroke-miterlimit="10"/>
<path d="M42.4324 32.9763C41.9524 31.6323 41.3044 30.3363 40.4644 29.1843C39.6724 28.0803 37.8484 29.1363 38.6404 30.2643C39.3604 31.2963 39.9604 32.3763 40.3924 33.5523C40.8484 34.8243 42.8884 34.2723 42.4324 32.9763Z" fill="#F2F6FF" stroke="#F2F6FF" stroke-width="1.46357" stroke-miterlimit="10"/>
<path d="M34.5832 37.4886C33.7912 36.4806 32.9992 35.4486 32.2072 34.4406C31.8472 33.9846 31.0792 34.0806 30.7192 34.4406C30.2632 34.8966 30.3592 35.4966 30.7192 35.9286C31.5112 36.9366 32.3032 37.9686 33.0952 38.9766C33.4552 39.4326 34.2232 39.3366 34.5832 38.9766C35.0152 38.5446 34.9432 37.9446 34.5832 37.4886Z" fill="#F2F6FF" stroke="#F2F6FF" stroke-width="1.46357" stroke-miterlimit="10"/>
<path d="M27.5758 43.4166C26.0878 42.3846 24.5998 41.3766 23.0878 40.3446C21.9598 39.5766 20.9038 41.4006 22.0078 42.1686C23.4958 43.2006 24.9838 44.2086 26.4958 45.2406C27.6238 46.0326 28.6798 44.1846 27.5758 43.4166Z" fill="#F2F6FF" stroke="#F2F6FF" stroke-width="1.46357" stroke-miterlimit="10"/>
<path d="M25.6547 51.5764C24.5507 51.2644 23.4467 50.9524 22.3667 50.6404C21.0467 50.2564 20.4947 52.3204 21.8147 52.6804C22.9187 52.9924 24.0227 53.3044 25.1027 53.6164C26.4227 53.9764 26.9747 51.9364 25.6547 51.5764Z" fill="#F2F6FF" stroke="#F2F6FF" stroke-width="1.46357" stroke-miterlimit="10"/>
<path d="M27.9837 60.4805C26.3277 60.5525 24.6957 60.6485 23.0397 60.7205C21.6717 60.7925 21.6717 62.9045 23.0397 62.8325C24.6957 62.7605 26.3277 62.6645 27.9837 62.5925C29.3277 62.5445 29.3517 60.4085 27.9837 60.4805Z" fill="#F2F6FF" stroke="#F2F6FF" stroke-width="1.46357" stroke-miterlimit="10"/>
<path d="M27.9845 69.1924H23.2565C21.8885 69.1924 21.8885 71.3044 23.2565 71.3044H27.9605C29.3525 71.3284 29.3525 69.1924 27.9845 69.1924Z" fill="#F2F6FF" stroke="#F2F6FF" stroke-width="1.46357" stroke-miterlimit="10"/>
<path d="M29.3522 78.9124C27.8642 79.4644 26.3762 80.0164 24.8642 80.5684C23.5922 81.0244 24.1442 83.0884 25.4162 82.6084C26.9042 82.0564 28.3922 81.5044 29.9042 80.9524C31.1762 80.4724 30.6242 78.4324 29.3522 78.9124Z" fill="#F2F6FF" stroke="#F2F6FF" stroke-width="1.46357" stroke-miterlimit="10"/>
<path d="M34.0318 86.7604C32.9998 87.4564 31.9918 88.1764 30.9598 88.8724C29.8318 89.6404 30.9118 91.4884 32.0398 90.6964C33.0718 90.0004 34.0798 89.2804 35.1118 88.5844C36.2158 87.8404 35.1598 85.9924 34.0318 86.7604Z" fill="#F2F6FF" stroke="#F2F6FF" stroke-width="1.46357" stroke-miterlimit="10"/>
<path d="M38.735 92.8323C38.399 93.9363 38.087 95.0163 37.751 96.1204C37.367 97.4404 39.407 97.9924 39.791 96.6723C40.127 95.5683 40.439 94.4883 40.775 93.3843C41.183 92.0883 39.119 91.5363 38.735 92.8323Z" fill="#F2F6FF" stroke="#F2F6FF" stroke-width="1.46357" stroke-miterlimit="10"/>
<path d="M48.2867 94.2485L46.1267 97.9925C45.4547 99.1685 47.2787 100.249 47.9507 99.0725L50.1107 95.3285C50.8067 94.1285 48.9587 93.0725 48.2867 94.2485Z" fill="#F2F6FF" stroke="#F2F6FF" stroke-width="1.46357" stroke-miterlimit="10"/>
<path d="M56.783 94.9205C56.183 94.7525 55.679 95.1125 55.487 95.6645C55.079 96.7205 54.911 97.8725 54.983 99.0005C55.055 100.368 57.167 100.368 57.095 99.0005C57.047 98.0165 57.191 97.1285 57.527 96.2165C57.719 95.6885 57.287 95.0645 56.783 94.9205Z" fill="#F2F6FF" stroke="#F2F6FF" stroke-width="1.46357" stroke-miterlimit="10"/>
<path d="M67.1758 97.3205C67.0078 96.5285 66.8638 95.7605 66.6958 94.9685C66.5758 94.4165 65.9038 94.0805 65.3998 94.2245C64.8238 94.3925 64.5358 94.9685 64.6558 95.5205C64.8238 96.3125 64.9678 97.0805 65.1358 97.8725C65.2558 98.4245 65.9278 98.7605 66.4318 98.6165C67.0318 98.4725 67.2958 97.8725 67.1758 97.3205Z" fill="#F2F6FF" stroke="#F2F6FF" stroke-width="1.46357" stroke-miterlimit="10"/>
<path d="M74.6149 90.2404C73.9429 89.0645 72.0949 90.1204 72.7909 91.3204C73.1989 92.0404 73.3909 92.7844 73.3909 93.6004C73.3669 94.9684 75.5029 94.9684 75.5029 93.6004C75.5029 92.4004 75.1909 91.2724 74.6149 90.2404Z" fill="#F2F6FF" stroke="#F2F6FF" stroke-width="1.46357" stroke-miterlimit="10"/>
<path d="M85.6795 90.0004C84.9835 89.0644 84.2635 88.1043 83.5675 87.1683C83.2315 86.7123 82.6555 86.4723 82.1275 86.7843C81.6715 87.0483 81.4075 87.7683 81.7435 88.2243C82.4395 89.1603 83.1595 90.1204 83.8555 91.0564C84.1915 91.5124 84.7675 91.7524 85.2955 91.4404C85.7515 91.1764 86.0395 90.4564 85.6795 90.0004Z" fill="#F2F6FF" stroke="#F2F6FF" stroke-width="1.46357" stroke-miterlimit="10"/>
<path d="M92.3764 84.9124C91.5844 84.4324 90.8164 83.9764 90.0244 83.4964C88.8484 82.8004 87.7924 84.6244 88.9444 85.3204C89.7364 85.8004 90.5044 86.2564 91.2964 86.7364C92.4724 87.4324 93.5524 85.6084 92.3764 84.9124Z" fill="#F2F6FF" stroke="#F2F6FF" stroke-width="1.46357" stroke-miterlimit="10"/>
<path d="M97.5601 79.0086C96.0481 78.2886 94.4641 77.6886 92.8321 77.2566C91.5121 76.8966 90.9361 78.9606 92.2801 79.2966C93.7441 79.6806 95.1361 80.1846 96.5041 80.8326C97.7041 81.4326 98.7841 79.6086 97.5601 79.0086Z" fill="#F2F6FF" stroke="#F2F6FF" stroke-width="1.46357" stroke-miterlimit="10"/>
<path d="M100.368 72.7683C99.7439 72.6003 99.1199 72.4563 98.4719 72.2883C97.9199 72.1443 97.3199 72.4563 97.1759 73.0323C97.0319 73.5843 97.3679 74.2083 97.9199 74.3283C98.5439 74.4963 99.1679 74.6403 99.8159 74.8083C100.368 74.9523 100.968 74.6403 101.112 74.0643C101.256 73.5363 100.92 72.9123 100.368 72.7683Z" fill="#F2F6FF" stroke="#F2F6FF" stroke-width="1.46357" stroke-miterlimit="10"/>
<path d="M101.039 63.3125H97.9674C96.5994 63.3125 96.5994 65.4245 97.9674 65.4245H101.039C102.407 65.4245 102.407 63.3125 101.039 63.3125Z" fill="#F2F6FF" stroke="#F2F6FF" stroke-width="1.46357" stroke-miterlimit="10"/>
<path d="M99.8646 57.4084H97.7526C96.3846 57.4084 96.3846 59.5204 97.7526 59.5204H99.8646C101.209 59.5444 101.233 57.4084 99.8646 57.4084Z" fill="#F2F6FF" stroke="#F2F6FF" stroke-width="1.46357" stroke-miterlimit="10"/>
<path d="M97.6798 48.7444C96.0478 49.0564 94.4158 49.1764 92.7838 49.1764C91.4158 49.1764 91.4158 51.2884 92.7838 51.2884C94.6318 51.3124 96.4318 51.1204 98.2558 50.7844C99.5998 50.5444 99.0238 48.5044 97.6798 48.7444Z" fill="#F2F6FF" stroke="#F2F6FF" stroke-width="1.46357" stroke-miterlimit="10"/>
<path d="M92.7365 42.1685C91.1765 42.7925 89.5925 43.4405 88.0325 44.0645C86.7845 44.5685 87.3365 46.6325 88.5845 46.1045C90.1445 45.4805 91.7285 44.8325 93.2885 44.2085C94.5605 43.7045 94.0085 41.6405 92.7365 42.1685Z" fill="#F2F6FF" stroke="#F2F6FF" stroke-width="1.46357" stroke-miterlimit="10"/>
<path d="M85.3913 35.3526C83.4473 36.3366 81.5033 37.3446 79.5834 38.3286C78.3594 38.9526 79.4394 40.7766 80.6633 40.1526C82.6073 39.1686 84.5513 38.1606 86.4713 37.1766C87.6713 36.5526 86.5913 34.7286 85.3913 35.3526Z" fill="#F2F6FF" stroke="#F2F6FF" stroke-width="1.46357" stroke-miterlimit="10"/>
<path d="M80.8322 27.4084C79.2482 28.5364 77.7602 29.7604 76.3922 31.1284C75.4082 32.0884 76.9202 33.5764 77.8802 32.6164C79.1282 31.3924 80.4722 30.2404 81.8882 29.2324C83.0162 28.4644 81.9602 26.6164 80.8322 27.4084Z" fill="#F2F6FF" stroke="#F2F6FF" stroke-width="1.46357" stroke-miterlimit="10"/>
<path d="M71.7109 25.3925C70.8469 26.4005 70.2229 27.6005 70.0309 28.9205C69.9589 29.4965 70.1749 30.0485 70.7749 30.2165C71.2789 30.3605 71.9989 30.0485 72.0709 29.4725C72.2149 28.5125 72.5509 27.6245 73.1989 26.8805C74.1109 25.8725 72.5989 24.3605 71.7109 25.3925Z" fill="#F2F6FF" stroke="#F2F6FF" stroke-width="1.46357" stroke-miterlimit="10"/>
<path d="M60.7913 32.4724C60.2873 32.3284 59.5673 32.6404 59.4953 33.2164C59.3273 34.3204 59.1833 35.4244 59.0153 36.5044C58.9433 37.0804 59.1593 37.6324 59.7593 37.8004C60.2633 37.9444 60.9833 37.6324 61.0553 37.0564C61.2233 35.9524 61.3673 34.8484 61.5353 33.7684C61.6073 33.1924 61.3913 32.6164 60.7913 32.4724Z" fill="#F2F6FF" stroke="#F2F6FF" stroke-width="1.46357" stroke-miterlimit="10"/>
<path d="M51.4076 40.0564C51.1676 39.0244 50.9276 38.0164 50.6876 36.9844C50.3756 35.6644 48.3356 36.2164 48.6476 37.5364C48.8876 38.5684 49.1276 39.5764 49.3676 40.6084C49.6796 41.9284 51.7196 41.3764 51.4076 40.0564Z" fill="#F2F6FF" stroke="#F2F6FF" stroke-width="1.46357" stroke-miterlimit="10"/>
<path d="M44.9036 45.2165C44.0156 43.8725 42.9596 42.6725 41.6876 41.6885C41.2316 41.3285 40.6316 41.2565 40.1996 41.6885C39.8396 42.0485 39.7436 42.8405 40.1996 43.1765C41.3276 44.0645 42.2876 45.0725 43.0796 46.2725C43.8236 47.4245 45.6716 46.3685 44.9036 45.2165Z" fill="#F2F6FF" stroke="#F2F6FF" stroke-width="1.46357" stroke-miterlimit="10"/>
<path d="M41.2321 51.4323C39.7441 50.4483 38.1601 49.6323 36.5041 48.9603C35.2321 48.4563 34.6801 50.4963 35.9521 51.0003C37.4401 51.6003 38.8561 52.3683 40.1761 53.2563C41.3041 54.0243 42.3601 52.2003 41.2321 51.4323Z" fill="#F2F6FF" stroke="#F2F6FF" stroke-width="1.46357" stroke-miterlimit="10"/>
<path d="M39.9601 61.2244C38.4961 61.5124 37.0321 61.6564 35.5201 61.6564C34.1521 61.6564 34.1521 63.7924 35.5201 63.7684C37.2001 63.7684 38.8561 63.5764 40.5121 63.2644C41.8561 63.0004 41.2801 60.9604 39.9601 61.2244Z" fill="#F2F6FF" stroke="#F2F6FF" stroke-width="1.46357" stroke-miterlimit="10"/>
<path d="M41.5909 72.0485C39.6469 72.5765 37.7749 73.2725 35.9269 74.0645C34.6789 74.6165 35.7589 76.4405 37.0069 75.8885C38.6869 75.1445 40.4149 74.5685 42.1669 74.0885C43.4629 73.7285 42.9109 71.6885 41.5909 72.0485Z" fill="#F2F6FF" stroke="#F2F6FF" stroke-width="1.46357" stroke-miterlimit="10"/>
<path d="M44.9754 82.2245C44.5914 81.8405 43.8714 81.7925 43.4874 82.2245L41.5914 84.3365C41.2074 84.7685 41.1594 85.4165 41.5914 85.8245C41.9754 86.2085 42.6954 86.2565 43.0794 85.8245L44.9754 83.7125C45.3594 83.3045 45.4074 82.6565 44.9754 82.2245Z" fill="#F2F6FF" stroke="#F2F6FF" stroke-width="1.46357" stroke-miterlimit="10"/>
<path d="M54.2882 85.0565C53.8082 86.4725 53.3522 87.8885 52.8722 89.3045C52.4402 90.6005 54.4802 91.1525 54.9122 89.8565C55.3922 88.4405 55.8482 87.0245 56.3282 85.6085C56.7602 84.3365 54.7202 83.7605 54.2882 85.0565Z" fill="#F2F6FF" stroke="#F2F6FF" stroke-width="1.46357" stroke-miterlimit="10"/>
<path d="M28.2236 96.3846C27.1436 97.4166 26.0636 98.4486 24.9836 99.4806C23.9996 100.417 25.5596 101.881 26.5196 100.945C27.5996 99.9126 28.6796 98.8806 29.7596 97.8486C30.7676 96.8886 29.2076 95.4486 28.2236 96.3846Z" fill="#F2F6FF" stroke="#F2F6FF" stroke-width="1.46357" stroke-miterlimit="10"/>
<path d="M63.9109 86.2806C63.8629 85.7046 63.4549 85.2246 62.8549 85.2246C62.3269 85.2246 61.7269 85.7046 61.7989 86.2806C61.8709 87.0726 61.9669 87.8406 62.0389 88.6326C62.0869 89.2086 62.4949 89.6886 63.0949 89.6886C63.6229 89.6886 64.2229 89.2086 64.1509 88.6326C64.0789 87.8646 63.9829 87.0726 63.9109 86.2806Z" fill="#F2F6FF" stroke="#F2F6FF" stroke-width="1.46357" stroke-miterlimit="10"/>
<path d="M70.9436 84.1205C70.7756 83.1845 70.3916 82.2965 69.8876 81.5045C69.1436 80.3525 67.3196 81.4325 68.0636 82.5845C68.4956 83.2325 68.7596 83.9285 68.9036 84.6965C69.0236 85.2485 69.6956 85.5845 70.1996 85.4405C70.7996 85.2725 71.0636 84.6965 70.9436 84.1205Z" fill="#F2F6FF" stroke="#F2F6FF" stroke-width="1.46357" stroke-miterlimit="10"/>
<path d="M80.3277 80.6165L77.7357 78.0245C76.7757 77.0645 75.2637 78.5525 76.2477 79.5125C77.1117 80.3765 77.9757 81.2405 78.8397 82.1045C79.7757 83.0645 81.2877 81.5765 80.3277 80.6165Z" fill="#F2F6FF" stroke="#F2F6FF" stroke-width="1.46357" stroke-miterlimit="10"/>
<path d="M88.1028 76.3685C86.1348 75.8885 84.1908 75.4085 82.2228 74.9285C80.9028 74.5925 80.3268 76.6565 81.6708 76.9685C83.6388 77.4485 85.5828 77.9285 87.5508 78.4085C88.8708 78.7445 89.4228 76.7045 88.1028 76.3685Z" fill="#F2F6FF" stroke="#F2F6FF" stroke-width="1.46357" stroke-miterlimit="10"/>
<path d="M90.4791 68.3043L86.711 67.3683C85.391 67.0323 84.8151 69.0723 86.1591 69.4083C87.4071 69.7203 88.6791 70.0323 89.9271 70.3443C91.2231 70.6803 91.7991 68.6403 90.4791 68.3043Z" fill="#F2F6FF" stroke="#F2F6FF" stroke-width="1.46357" stroke-miterlimit="10"/>
<path d="M88.08 59.5444C86.592 59.3764 85.104 59.2324 83.592 59.0644C82.248 58.9204 82.248 61.0324 83.592 61.1764C85.08 61.3444 86.568 61.4884 88.08 61.6564C89.424 61.8004 89.424 59.6884 88.08 59.5444Z" fill="#F2F6FF" stroke="#F2F6FF" stroke-width="1.46357" stroke-miterlimit="10"/>
<path d="M16.0563 74.2083C14.5923 74.4963 13.1043 74.7843 11.6403 75.0723C10.2963 75.3363 10.9443 77.3523 12.2643 77.0883C13.7283 76.8003 15.2163 76.5123 16.6803 76.2243C18.0003 75.9843 17.3763 73.9443 16.0563 74.2083Z" fill="#F2F6FF" stroke="#F2F6FF" stroke-width="1.46357" stroke-miterlimit="10"/>
<path d="M84.5274 49.1764C83.3514 49.3444 82.1754 49.4884 80.9994 49.6564C80.4234 49.7284 79.9434 50.0884 79.9434 50.7124C79.9434 51.2164 80.4234 51.8404 80.9994 51.7684C82.1754 51.6004 83.3514 51.4564 84.5274 51.2884C85.1034 51.2164 85.5834 50.8564 85.5834 50.2324C85.6074 49.7284 85.1034 49.1044 84.5274 49.1764Z" fill="#F2F6FF" stroke="#F2F6FF" stroke-width="1.46357" stroke-miterlimit="10"/>
<path d="M18.6005 81.0726C17.5445 81.6486 16.5125 82.2006 15.4565 82.7766C14.9525 83.0406 14.6165 83.5686 14.8565 84.1446C15.0485 84.6246 15.7205 85.0326 16.2245 84.7446C17.2805 84.1686 18.3125 83.6166 19.3685 83.0406C19.8725 82.7766 20.2085 82.2486 19.9685 81.6726C19.7765 81.2166 19.1045 80.8086 18.6005 81.0726Z" fill="#F2F6FF" stroke="#F2F6FF" stroke-width="1.46357" stroke-miterlimit="10"/>
<path d="M68.448 35.8085C68.208 36.6725 67.968 37.5365 67.728 38.4005C67.368 39.7205 69.408 40.2725 69.768 38.9525C70.008 38.0885 70.248 37.2245 70.488 36.3605C70.848 35.0645 68.808 34.4885 68.448 35.8085Z" fill="#F2F6FF" stroke="#F2F6FF" stroke-width="1.46357" stroke-miterlimit="10"/>
<path d="M20.8074 90.0963C20.0874 90.6243 19.3674 91.1763 18.6474 91.7043C17.5434 92.5203 18.8154 94.2243 19.9194 93.4083C20.6394 92.8803 21.3594 92.3283 22.0794 91.8003C23.1594 90.9843 21.9114 89.2803 20.8074 90.0963Z" fill="#F2F6FF" stroke="#F2F6FF" stroke-width="1.46357" stroke-miterlimit="10"/>
<path d="M77.2067 41.2324C76.9427 40.7764 76.2227 40.5124 75.7667 40.8484C74.9747 41.4004 74.1827 41.9524 73.4147 42.5044C72.9347 42.8404 72.7187 43.4404 73.0307 43.9444C73.2947 44.4004 74.0147 44.6644 74.4707 44.3284C75.2627 43.7764 76.0547 43.2244 76.8227 42.6724C77.3027 42.3604 77.5187 41.7604 77.2067 41.2324Z" fill="#F2F6FF" stroke="#F2F6FF" stroke-width="1.46357" stroke-miterlimit="10"/>
<path d="M59.399 48.3125C58.991 46.6325 58.319 45.0485 57.431 43.5605C56.735 42.3845 54.887 43.4645 55.607 44.6405C56.399 45.9845 56.975 47.3765 57.359 48.8885C57.671 50.1845 59.735 49.6325 59.399 48.3125Z" fill="#F2F6FF" stroke="#F2F6FF" stroke-width="1.46357" stroke-miterlimit="10"/>
<path d="M53.4716 50.6644C52.6316 49.7044 51.6956 48.8164 50.6876 48.0244C50.2316 47.6644 49.6316 47.5924 49.1996 48.0244C48.8396 48.3844 48.7436 49.1764 49.1996 49.5124C50.2076 50.3044 51.1436 51.1924 51.9836 52.1524C52.8716 53.2084 54.3596 51.6964 53.4716 50.6644Z" fill="#F2F6FF" stroke="#F2F6FF" stroke-width="1.46357" stroke-miterlimit="10"/>
<path d="M49.9429 56.0165C48.4789 55.4645 46.9909 55.0805 45.4549 54.8645C44.1109 54.6725 43.5349 56.7125 44.9029 56.9045C46.4389 57.1445 47.9269 57.5285 49.3909 58.0565C50.6629 58.5605 51.2149 56.4965 49.9429 56.0165Z" fill="#F2F6FF" stroke="#F2F6FF" stroke-width="1.46357" stroke-miterlimit="10"/>
<path d="M51.7435 63.1206C50.2075 63.5046 48.7195 64.0086 47.2555 64.6326C46.7275 64.8486 46.6075 65.6406 46.8715 66.0726C47.1835 66.6246 47.8075 66.6726 48.3115 66.4566C49.6075 65.9046 50.9275 65.4726 52.2955 65.1606C53.6155 64.8486 53.0635 62.7846 51.7435 63.1206Z" fill="#F2F6FF" stroke="#F2F6FF" stroke-width="1.46357" stroke-miterlimit="10"/>
<path d="M54.3356 73.2725C54.0716 72.8165 53.3516 72.5525 52.8956 72.8885C52.2716 73.3685 51.6476 73.8245 50.9996 74.3045C50.5436 74.6405 50.3036 75.2165 50.6156 75.7445C50.8796 76.2005 51.5996 76.4645 52.0556 76.1285C52.6796 75.6485 53.3036 75.1925 53.9516 74.7125C54.4316 74.3765 54.6476 73.8005 54.3356 73.2725Z" fill="#F2F6FF" stroke="#F2F6FF" stroke-width="1.46357" stroke-miterlimit="10"/>
<path d="M60.9118 74.4724C60.6718 75.9604 60.4318 77.4484 60.1918 78.9364C59.9758 80.2804 62.0158 80.8564 62.2318 79.4884C62.4718 78.0004 62.7118 76.5124 62.9518 75.0244C63.1678 73.6804 61.1278 73.1284 60.9118 74.4724Z" fill="#F2F6FF" stroke="#F2F6FF" stroke-width="1.46357" stroke-miterlimit="10"/>
<path d="M69.0964 76.1044C68.9284 74.9044 68.4724 73.7764 67.7764 72.7924C67.4404 72.3364 66.8645 72.0964 66.3365 72.4084C65.8805 72.6724 65.6165 73.3924 65.9525 73.8484C66.5765 74.7124 66.9365 75.6004 67.0805 76.6564C67.1525 77.2324 67.8964 77.5444 68.3764 77.4004C68.9764 77.2324 69.1684 76.6804 69.0964 76.1044Z" fill="#F2F6FF" stroke="#F2F6FF" stroke-width="1.46357" stroke-miterlimit="10"/>
<path d="M79.4389 70.2726C78.0949 69.6486 76.7749 69.0246 75.4309 68.4006C74.2069 67.8246 73.1269 69.6486 74.3509 70.2246C75.6949 70.8486 77.0149 71.4726 78.3589 72.0966C79.5829 72.6726 80.6629 70.8486 79.4389 70.2726Z" fill="#F2F6FF" stroke="#F2F6FF" stroke-width="1.46357" stroke-miterlimit="10"/>
<path d="M78.1685 61.6803C76.7525 61.6083 75.3365 61.5123 73.9205 61.4403C72.5525 61.3683 72.5525 63.4803 73.9205 63.5523C75.3365 63.6243 76.7525 63.7203 78.1685 63.7923C79.5365 63.8883 79.5365 61.7523 78.1685 61.6803Z" fill="#F2F6FF" stroke="#F2F6FF" stroke-width="1.46357" stroke-miterlimit="10"/>
<path d="M72.6964 52.6085C71.6644 53.2325 70.5844 53.6405 69.4084 53.9045C68.0884 54.1925 68.6404 56.2565 69.9604 55.9445C71.3044 55.6325 72.5764 55.1285 73.7524 54.4325C74.9284 53.7365 73.8724 51.9125 72.6964 52.6085Z" fill="#F2F6FF" stroke="#F2F6FF" stroke-width="1.46357" stroke-miterlimit="10"/>
<path d="M66.0962 47.3764C65.8082 48.3124 65.3522 49.1524 64.7522 49.9444C64.3922 50.4004 64.6802 51.1204 65.1362 51.3844C65.6882 51.6964 66.2402 51.4564 66.5762 51.0004C67.2962 50.0884 67.8002 49.0324 68.1362 47.9284C68.5442 46.6324 66.5042 46.0564 66.0962 47.3764Z" fill="#F2F6FF" stroke="#F2F6FF" stroke-width="1.46357" stroke-miterlimit="10"/>
<path d="M61.3196 53.9526C60.8396 52.6806 58.7996 53.2326 59.2796 54.5046C59.6396 55.5126 59.7596 56.4726 59.6636 57.5286C59.6156 58.1046 60.1916 58.5846 60.7196 58.5846C61.3436 58.5846 61.7276 58.1046 61.7756 57.5286C61.9196 56.3286 61.7516 55.0806 61.3196 53.9526Z" fill="#F2F6FF" stroke="#F2F6FF" stroke-width="1.46357" stroke-miterlimit="10"/>
<path d="M69.4554 59.3045C67.9674 59.2325 66.4794 59.1365 64.9674 59.0645C63.5994 58.9925 63.5994 61.1045 64.9674 61.1765C66.4554 61.2485 67.9434 61.3445 69.4554 61.4165C70.8234 61.4885 70.8234 59.3765 69.4554 59.3045Z" fill="#F2F6FF" stroke="#F2F6FF" stroke-width="1.46357" stroke-miterlimit="10"/>
<path d="M68.3509 67.2005C67.4149 66.5765 66.4549 65.9525 65.5189 65.3285C64.3669 64.5845 63.3109 66.4085 64.4389 67.1525C65.3749 67.7765 66.3349 68.4005 67.2709 69.0245C68.4229 69.7925 69.5029 67.9445 68.3509 67.2005Z" fill="#F2F6FF" stroke="#F2F6FF" stroke-width="1.46357" stroke-miterlimit="10"/>
<path d="M61.247 67.6326C60.815 67.2006 60.191 67.2726 59.759 67.6326C58.895 68.3526 58.055 69.0726 57.191 69.7926C56.759 70.1526 56.807 70.9206 57.191 71.2806C57.623 71.7126 58.247 71.6406 58.679 71.2806L61.247 69.1206C61.679 68.7606 61.631 68.0166 61.247 67.6326Z" fill="#F2F6FF" stroke="#F2F6FF" stroke-width="1.46357" stroke-miterlimit="10"/>
<path d="M57.6003 63.9364C56.6643 64.4884 55.7043 65.0404 54.7683 65.5924C53.5923 66.2884 54.6483 68.1124 55.8483 67.4164C56.7843 66.8644 57.7443 66.3124 58.6803 65.7604C59.8563 65.0644 58.8003 63.2404 57.6003 63.9364Z" fill="#F2F6FF" stroke="#F2F6FF" stroke-width="1.46357" stroke-miterlimit="10"/>
<path d="M57.96 59.2084C56.808 58.6804 55.632 58.3684 54.36 58.3444C52.992 58.3204 52.992 60.4324 54.36 60.4564C55.224 60.4804 56.088 60.6484 56.88 61.0324C57.408 61.2724 58.032 61.1764 58.32 60.6484C58.608 60.2164 58.488 59.4724 57.96 59.2084Z" fill="#F2F6FF" stroke="#F2F6FF" stroke-width="1.46357" stroke-miterlimit="10"/>
</svg>
