<svg width="24" height="25" viewBox="0 0 24 25" fill="none" xmlns="http://www.w3.org/2000/svg">
<g clip-path="url(#clip0_419_22911)">
<path d="M15.4688 12.4584C16.3911 11.7372 17.0654 10.746 17.3976 9.62321C17.7298 8.50042 17.7033 7.30194 17.3219 6.1949C16.9404 5.08787 16.223 4.12746 15.2697 3.44762C14.3164 2.76777 13.1747 2.40237 12.0037 2.40237C10.8328 2.40237 9.69112 2.76777 8.73779 3.44762C7.78446 4.12746 7.06705 5.08787 6.6856 6.1949C6.30415 7.30194 6.27768 8.50042 6.60987 9.62321C6.94207 10.746 7.61637 11.7372 8.53875 12.4584C6.7961 13.1518 5.30125 14.3516 4.24712 15.9029C3.193 17.4541 2.62799 19.2857 2.625 21.1613V22.0988C2.625 22.3474 2.72377 22.5858 2.89959 22.7617C3.0754 22.9375 3.31386 23.0363 3.5625 23.0363H20.4375C20.6861 23.0363 20.9246 22.9375 21.1004 22.7617C21.2762 22.5858 21.375 22.3474 21.375 22.0988V21.1613C21.3726 19.2866 20.8087 17.4556 19.756 15.9044C18.7033 14.3533 17.21 13.153 15.4688 12.4584ZM8.25 8.03625C8.25 7.29457 8.46993 6.56955 8.88199 5.95286C9.29404 5.33618 9.87971 4.85553 10.5649 4.5717C11.2502 4.28787 12.0042 4.21361 12.7316 4.35831C13.459 4.503 14.1272 4.86015 14.6517 5.3846C15.1761 5.90905 15.5333 6.57723 15.6779 7.30466C15.8226 8.03209 15.7484 8.78609 15.4645 9.47131C15.1807 10.1565 14.7001 10.7422 14.0834 11.1543C13.4667 11.5663 12.7417 11.7863 12 11.7863C11.0054 11.7863 10.0516 11.3912 9.34835 10.6879C8.64509 9.98464 8.25 9.03081 8.25 8.03625ZM4.5 21.1613C4.5 19.1721 5.29018 17.2645 6.6967 15.8579C8.10322 14.4514 10.0109 13.6613 12 13.6613C13.9891 13.6613 15.8968 14.4514 17.3033 15.8579C18.7098 17.2645 19.5 19.1721 19.5 21.1613H4.5Z" fill="#243976"/>
</g>
<defs>
<clipPath id="clip0_419_22911">
<rect width="20" height="21.25" fill="white" transform="translate(2 1.85381)"/>
</clipPath>
</defs>
</svg>
