<svg width="18" height="19" viewBox="0 0 18 19" fill="none" xmlns="http://www.w3.org/2000/svg">
<g clip-path="url(#clip0_447_1413)">
<path d="M11.775 9.6965C12.5129 9.11947 13.0523 8.32655 13.3181 7.42832C13.5839 6.53008 13.5627 5.57129 13.2575 4.68567C12.9524 3.80004 12.3784 3.03172 11.6158 2.48784C10.8531 1.94396 9.93973 1.65164 9.003 1.65164C8.06627 1.65164 7.15289 1.94396 6.39023 2.48784C5.62757 3.03172 5.05364 3.80004 4.74848 4.68567C4.44332 5.57129 4.42214 6.53008 4.6879 7.42832C4.95366 8.32655 5.4931 9.11947 6.231 9.6965C4.83688 10.2512 3.641 11.211 2.7977 12.452C1.9544 13.693 1.50239 15.1583 1.5 16.6587V17.4087C1.5 17.6077 1.57902 17.7984 1.71967 17.9391C1.86032 18.0797 2.05109 18.1587 2.25 18.1587H15.75C15.9489 18.1587 16.1397 18.0797 16.2803 17.9391C16.421 17.7984 16.5 17.6077 16.5 17.4087V16.6587C16.4981 15.159 16.047 13.6942 15.2048 12.4533C14.3626 11.2124 13.168 10.2522 11.775 9.6965ZM6 6.15875C6 5.5654 6.17595 4.98538 6.50559 4.49203C6.83524 3.99869 7.30377 3.61417 7.85195 3.38711C8.40013 3.16004 9.00333 3.10063 9.58527 3.21639C10.1672 3.33215 10.7018 3.61787 11.1213 4.03743C11.5409 4.45698 11.8266 4.99153 11.9424 5.57347C12.0581 6.15542 11.9987 6.75862 11.7716 7.3068C11.5446 7.85497 11.1601 8.32351 10.6667 8.65315C10.1734 8.9828 9.59334 9.15874 9 9.15874C8.20435 9.15874 7.44129 8.84267 6.87868 8.28007C6.31607 7.71746 6 6.95439 6 6.15875ZM3 16.6587C3 15.0674 3.63214 13.5413 4.75736 12.4161C5.88258 11.2909 7.4087 10.6587 9 10.6587C10.5913 10.6587 12.1174 11.2909 13.2426 12.4161C14.3679 13.5413 15 15.0674 15 16.6587H3Z" fill="#E63950"/>
</g>
<defs>
<clipPath id="clip0_447_1413">
<rect width="18" height="18" fill="white" transform="translate(0 0.908718)"/>
</clipPath>
</defs>
</svg>
