<svg width="362" height="25" viewBox="0 0 362 25" fill="none" xmlns="http://www.w3.org/2000/svg">
<path fill-rule="evenodd" clip-rule="evenodd" d="M14.1813 0.00317383C14.4995 0.00317383 14.8048 0.129173 15.0298 0.354773C15.2548 0.579173 15.3813 0.885174 15.3813 1.20317V8.40317C15.3813 8.72117 15.2548 9.02717 15.0298 9.25158C14.8048 9.47717 14.4995 9.60317 14.1813 9.60317C13.863 9.60317 13.5577 9.47717 13.3327 9.25158C13.1077 9.02717 12.9813 8.72117 12.9813 8.40317V1.20317C12.9813 0.885174 13.1077 0.579173 13.3327 0.354773C13.5577 0.129173 13.863 0.00317383 14.1813 0.00317383ZM17.7812 2.40317C18.0995 2.40317 18.4048 2.52917 18.6298 2.75477C18.8548 2.97917 18.9813 3.28517 18.9813 3.60317V10.8032C18.9813 11.1212 18.8548 11.4272 18.6298 11.6516C18.4048 11.8772 18.0995 12.0032 17.7812 12.0032C17.463 12.0032 17.1577 11.8772 16.9327 11.6516C16.7077 11.4272 16.5813 11.1212 16.5813 10.8032V3.60317C16.5813 3.28517 16.7077 2.97917 16.9327 2.75477C17.1577 2.52917 17.463 2.40317 17.7812 2.40317ZM10.5813 2.40317C10.8995 2.40317 11.2047 2.52917 11.4298 2.75477C11.6548 2.97917 11.7812 3.28517 11.7812 3.60317V9.60317C11.7812 9.92117 11.6548 10.2272 11.4298 10.4516C11.2047 10.6772 10.8995 10.8032 10.5813 10.8032C10.263 10.8032 9.95777 10.6772 9.73272 10.4516C9.50768 10.2272 9.38125 9.92117 9.38125 9.60317V3.60317C9.38125 3.28517 9.50768 2.97917 9.73272 2.75477C9.95777 2.52917 10.263 2.40317 10.5813 2.40317ZM6.98125 4.80317C7.29951 4.80317 7.60473 4.92917 7.82978 5.15477C8.05482 5.37917 8.18125 5.68517 8.18125 6.00317V10.8032C8.18125 11.1212 8.05482 11.4272 7.82978 11.6516C7.60473 11.8772 7.29951 12.0032 6.98125 12.0032C6.66299 12.0032 6.35777 11.8772 6.13272 11.6516C5.90768 11.4272 5.78125 11.1212 5.78125 10.8032V6.00317C5.78125 5.68517 5.90768 5.37917 6.13272 5.15477C6.35777 4.92917 6.66299 4.80317 6.98125 4.80317Z" fill="#F3C4B7"/>
<path opacity="0.5" fill-rule="evenodd" clip-rule="evenodd" d="M16.5798 7.21606V5.98486H18.993V7.21606H16.5798ZM15.3798 7.21606H12.9798V5.98486H15.3798V7.21606ZM9.37977 5.98486H11.7798V7.21606H9.37977V5.98486ZM5.79297 5.98486H8.17977V7.21606H5.79297V5.98486Z" fill="#D09889"/>
<path fill-rule="evenodd" clip-rule="evenodd" d="M21.3812 13.2031V20.3203C20.6851 21.4447 19.7137 22.3735 18.5588 23.0179C17.404 23.6623 16.1038 24.0007 14.7812 24.0031H13.5812C11.5126 24.0031 9.52861 23.1811 8.06582 21.7183C6.60303 20.2555 5.78125 18.2719 5.78125 16.2031V15.0031C5.79059 14.3947 5.87525 13.7899 6.03326 13.2031H21.3812Z" fill="#F3C4B7"/>
<path d="M24.9805 7.20312H0.980469V19.2031H24.9805V7.20312Z" fill="#76A158"/>
<path d="M24.9805 7.20312H0.980469V8.40313H24.9805V7.20312Z" fill="#89AF6D"/>
<path opacity="0.7" d="M7.58008 15.603C9.23693 15.603 10.5801 14.2602 10.5801 12.603C10.5801 10.9458 9.23693 9.60303 7.58008 9.60303C5.92323 9.60303 4.58008 10.9458 4.58008 12.603C4.58008 14.2602 5.92323 15.603 7.58008 15.603Z" fill="#9FD17D"/>
<path fill-rule="evenodd" clip-rule="evenodd" d="M21.3805 19.203V18.003H24.9805V19.203H21.3805ZM13.1497 19.203H0.980469V18.003H12.9805C12.9805 16.7298 13.4861 15.5094 14.3864 14.6094C15.2865 13.7082 16.5074 13.203 17.7805 13.203V10.803C17.7805 10.485 17.9069 10.179 18.132 9.95463C18.3569 9.72903 18.6622 9.60303 18.9805 9.60303C19.2987 9.60303 19.604 9.72903 19.829 9.95463C20.054 10.179 20.1805 10.485 20.1805 10.803V13.869C20.6276 14.1402 21.0279 14.4822 21.3661 14.8818V19.203H13.1497Z" fill="#669248"/>
<path fill-rule="evenodd" clip-rule="evenodd" d="M21.3798 18.003V20.3274H14.559C14.2261 19.6446 14.0886 18.8826 14.1617 18.1266C14.2348 17.3694 14.5156 16.6482 14.973 16.041C15.4306 15.435 16.0469 14.9658 16.754 14.6874C17.4612 14.409 18.2315 14.3322 18.9798 14.4642V10.803C18.9798 10.485 19.1063 10.179 19.3313 9.95463C19.5563 9.72903 19.8616 9.60303 20.1798 9.60303C20.498 9.60303 20.8033 9.72903 21.0283 9.95463C21.2533 10.179 21.3798 10.485 21.3798 10.803V18.003Z" fill="#F3C4B7"/>
<path fill-rule="evenodd" clip-rule="evenodd" d="M107.872 23.6933C107.872 23.6933 107.336 20.4318 107.157 19.6118H99.4271C99.2128 20.2524 98.1435 23.6933 98.1435 23.6933H91.8372L100.781 2.36327C101.003 1.72962 101.435 1.18915 102.005 0.83272C102.575 0.478618 103.249 0.327196 103.916 0.406403H108.576L113.468 23.7026H107.877L107.872 23.6933ZM104.771 8.68821L104.343 6.69871C104.058 7.58629 103.523 8.97474 103.56 8.93747C103.56 8.93747 101.636 14.0906 101.172 15.4417H106.16C105.91 14.2699 104.771 8.68821 104.771 8.68821ZM91.8 5.77619C90.3912 5.1402 88.8556 4.83501 87.3108 4.88627C84.9229 4.88627 83.8536 5.88102 83.8164 6.87577C83.8164 7.98001 85.1 8.68819 87.2362 9.75516C90.6934 11.3859 92.2962 13.4173 92.2612 16.0824C92.2263 20.8791 88.1285 24.0031 81.778 24.0031C79.4875 24.0101 77.2161 23.5884 75.0803 22.7614L75.898 17.5361L76.718 17.9274C78.4678 18.7871 80.399 19.2157 82.3487 19.1715C83.1301 19.3229 83.9403 19.1738 84.6152 18.7521C85.2901 18.3281 85.7788 17.6642 85.9829 16.8954C85.9829 15.8657 85.2002 15.1179 82.8472 13.9811C80.5665 12.8815 77.538 11.0341 77.573 7.69111C77.6103 3.17864 81.778 0.00336934 87.7301 0.00336934C89.5784 -0.00594912 91.4135 0.317893 93.1465 0.960867L92.3265 6.00913L91.8 5.77619ZM65.2889 23.6933L69.0676 0.397089H75.0896L71.3133 23.6933H65.2889ZM50.7871 23.6933L45.4173 3.49314C45.2356 3.38598 45.0422 3.28816 44.8535 3.18566H48.4481L49.776 4.11749L52.2128 7.84489L53.2471 10.701L53.7131 13.0609L54.356 16.2595L60.2663 0.397089H66.6448L57.1655 23.6933H50.7777H50.7871Z" fill="#1470B0"/>
<path fill-rule="evenodd" clip-rule="evenodd" d="M48.0642 6.20618C47.339 5.63775 46.5586 5.14385 45.7346 4.7315L45.3922 3.44093C43.6908 2.43919 41.8735 1.64945 39.9805 1.09034V0.368164H49.2314C49.7861 0.370494 50.3233 0.561491 50.7536 0.910933C51.1841 1.26038 51.4813 1.74729 51.5959 2.29009L53.5994 12.5567C52.1243 10.1432 50.2532 7.99765 48.0642 6.20618Z" fill="#FFB927"/>
<path fill-rule="evenodd" clip-rule="evenodd" d="M146.138 24.0032H129.73C129.395 24.0032 129.074 23.8708 128.838 23.6337C128.602 23.398 128.469 23.0765 128.469 22.7423V11.362C128.47 11.188 128.507 11.0153 128.579 10.8552C128.65 10.6963 128.755 10.5538 128.885 10.4378L128.937 10.0508L141.361 0.00317383H142.309V10.1012H147.399V24.0032H146.138Z" fill="#FFCF06"/>
<path fill-rule="evenodd" clip-rule="evenodd" d="M142.325 10.1064H144.846V18.3183L130.359 23.0552L142.32 15.4751V10.1064H142.325Z" fill="#D3AC06"/>
<path d="M137.866 12.381C138.769 12.381 139.501 11.6484 139.501 10.7457C139.501 9.84289 138.769 9.11035 137.866 9.11035C136.963 9.11035 136.23 9.84289 136.23 10.7457C136.23 11.6484 136.963 12.381 137.866 12.381Z" fill="#231F20"/>
<path fill-rule="evenodd" clip-rule="evenodd" d="M183.732 24.0032C190.36 24.0032 195.732 18.6312 195.732 12.0032C195.732 5.37517 190.36 0.00317383 183.732 0.00317383C177.104 0.00317383 171.732 5.37517 171.732 12.0032C171.732 18.6312 177.104 24.0032 183.732 24.0032ZM183.732 16.6698C186.31 16.6698 188.399 14.5805 188.399 12.0032C188.399 9.42584 186.31 7.33651 183.732 7.33651C181.155 7.33651 179.066 9.42584 179.066 12.0032C179.066 14.5805 181.155 16.6698 183.732 16.6698Z" fill="#8A42F9"/>
<path d="M171.732 4.00342H162.398L167.376 20.0034H171.732V4.00342Z" fill="#8A42F9"/>
<path d="M222.404 24.0032C228.849 24.0032 234.075 18.6302 234.075 12.0032C234.075 5.37617 228.849 0.00317383 222.404 0.00317383C215.958 0.00317383 210.732 5.37617 210.732 12.0032C210.732 18.6302 215.958 24.0032 222.404 24.0032Z" fill="#EC0020"/>
<path d="M241.06 23.6743C247.506 23.6743 252.732 18.4483 252.732 12.0028C252.732 5.55731 247.506 0.331299 241.06 0.331299C234.615 0.331299 229.389 5.55731 229.389 12.0028C229.389 18.4483 234.615 23.6743 241.06 23.6743Z" fill="#FE9A0C"/>
<path fill-rule="evenodd" clip-rule="evenodd" d="M218.85 14.9555H217.818L218.761 10.0985H218.745L216.816 14.9555H215.56L215.532 10.0985H215.515L214.749 14.9555H213.717L214.848 8.98999H216.46L216.531 13.64H216.549L218.377 8.98999H219.973L218.85 14.9555ZM226.62 11.6255C226.162 11.54 225.697 11.51 225.234 11.5325C224.674 11.5955 224.553 11.7515 224.517 11.9315C224.389 12.6005 226.935 11.9585 226.626 13.5065C226.525 13.9535 226.269 14.3495 225.903 14.624C225.537 14.8985 225.085 15.035 224.628 15.0065C224.07 15.0455 223.509 14.975 222.978 14.801L223.128 13.9835C223.647 14.087 224.176 14.1305 224.706 14.1155C224.874 14.1335 225.045 14.1035 225.196 14.027C225.348 13.952 225.475 13.8335 225.562 13.688C225.703 12.9815 223.162 13.5125 223.471 11.939C223.572 11.537 223.818 11.186 224.163 10.9565C224.508 10.727 224.926 10.634 225.336 10.6955C225.816 10.7015 226.293 10.7675 226.756 10.895L226.617 11.6315L226.62 11.6255ZM227.203 11.4275L227.581 9.85249H228.612L228.391 10.6415H229.032L228.882 11.4275H228.241L227.791 13.706C227.745 13.955 227.733 14.0495 228.153 14.0495C228.225 14.0495 228.297 14.042 228.369 14.03L228.219 14.879C228.057 14.879 227.869 14.9915 227.707 14.9915H227.578C226.687 14.9915 226.6 14.5235 226.711 13.9745L227.212 11.4245L227.203 11.4275ZM229.689 13.2455C229.65 13.3565 229.639 13.4765 229.659 13.592C229.678 13.709 229.729 13.817 229.803 13.9085C229.878 14 229.974 14.0705 230.085 14.114C230.194 14.1575 230.313 14.171 230.43 14.1545C231.066 14.1965 231.699 14.0285 232.23 13.6745L232.066 14.462C231.526 14.825 230.88 14.9945 230.232 14.942C229.131 14.942 228.391 14.3735 228.732 12.6515C228.805 12.083 229.075 11.558 229.495 11.1695C229.917 10.781 230.461 10.5515 231.033 10.523C231.807 10.523 232.798 11.1365 232.413 13.052L232.378 13.2455H229.678H229.689ZM231.46 12.428C231.496 12.3215 231.508 12.209 231.495 12.098C231.481 11.9855 231.444 11.879 231.384 11.7845C231.325 11.6885 231.244 11.609 231.15 11.5475C231.055 11.4875 230.949 11.4485 230.838 11.435C230.589 11.4725 230.359 11.5895 230.184 11.768C230.007 11.948 229.893 12.179 229.86 12.428H231.46ZM233.062 10.7165H234.048L233.898 11.36H233.914C234.031 11.1245 234.207 10.925 234.424 10.7795C234.642 10.6325 234.895 10.547 235.156 10.529C235.225 10.529 235.377 10.5605 235.441 10.568L235.062 11.66C234.988 11.648 234.915 11.6435 234.841 11.6465C234.556 11.63 234.277 11.726 234.063 11.912C233.847 12.0995 233.713 12.362 233.688 12.6455L233.256 14.9945H232.225L233.058 10.7165H233.062ZM239.29 10.2665C238.902 10.04 238.444 9.96349 238.003 10.0535C237.534 10.136 237.108 10.3775 236.797 10.739C236.487 11.099 236.31 11.5565 236.296 12.032C236.217 12.2135 236.173 12.4085 236.169 12.605C236.164 12.803 236.199 13.001 236.271 13.184C236.343 13.3685 236.451 13.5365 236.587 13.679C236.725 13.8215 236.889 13.9355 237.07 14.015C237.363 14.084 237.664 14.0915 237.96 14.0405C238.255 13.9895 238.537 13.8785 238.789 13.715L238.51 14.744C238.291 14.891 238.044 14.99 237.783 15.0335C237.523 15.077 237.256 15.0665 237.001 15.0005C235.591 14.9135 234.781 13.9775 235.171 12.0185C235.228 11.237 235.567 10.5035 236.124 9.9545C236.682 9.404 237.42 9.07549 238.201 9.02899C238.438 9.02599 238.674 9.0725 238.893 9.1625C239.112 9.254 239.311 9.38899 239.476 9.55849L239.29 10.271V10.2665ZM248.59 14.96H247.582L247.687 14.315H247.675C247.531 14.5145 247.341 14.675 247.122 14.786C246.901 14.8955 246.658 14.951 246.412 14.9465C245.247 14.9465 244.978 13.847 245.212 12.6965C245.247 12.1505 245.472 11.6345 245.848 11.2385C246.226 10.841 246.732 10.5905 247.275 10.5305C247.491 10.5125 247.707 10.5665 247.888 10.6865C248.07 10.805 248.206 10.9805 248.275 11.186H248.293L248.682 9.00349H249.714L248.589 14.9555L248.59 14.96ZM246.843 14.042C247.146 14.009 247.426 13.871 247.638 13.652C247.848 13.4315 247.975 13.145 247.996 12.842C248.13 12.1685 248.083 11.492 247.378 11.492C247.068 11.54 246.784 11.696 246.579 11.9315C246.372 12.1685 246.255 12.47 246.249 12.7835C246.15 13.277 246.184 14.051 246.849 14.051L246.843 14.042ZM242.368 13.9475C242.368 13.9475 242.269 14.3975 242.247 14.621L242.194 14.999H241.279C241.258 14.78 241.258 14.5595 241.279 14.3405C241.101 14.5295 240.886 14.6795 240.648 14.783C240.409 14.885 240.153 14.939 239.893 14.9405C239.74 14.957 239.584 14.933 239.442 14.873C239.301 14.8115 239.176 14.717 239.08 14.594C238.986 14.4725 238.924 14.3285 238.9 14.177C238.876 14.024 238.891 13.868 238.944 13.7225C238.998 13.3745 239.166 13.055 239.421 12.812C239.676 12.569 240.004 12.4175 240.354 12.3815L241.309 12.2315C241.477 12.206 241.687 12.3245 241.74 12.0815C241.753 12.0035 241.749 11.9225 241.723 11.846C241.699 11.7695 241.656 11.7005 241.599 11.645C241.542 11.5895 241.471 11.549 241.393 11.528C241.317 11.5055 241.236 11.504 241.158 11.5205C240.618 11.501 240.079 11.594 239.578 11.795L239.812 10.9775C240.33 10.7465 240.898 10.652 241.462 10.703C241.635 10.664 241.813 10.6655 241.983 10.7105C242.154 10.754 242.311 10.838 242.443 10.9565C242.574 11.0735 242.676 11.2205 242.737 11.3855C242.8 11.5505 242.823 11.7275 242.802 11.903L242.376 13.9385L242.368 13.9475ZM241.56 12.7925C241.33 12.923 241.074 12.9995 240.81 13.0175C240.621 13.013 240.435 13.073 240.286 13.1885C240.136 13.3055 240.031 13.469 239.989 13.6535C239.965 13.712 239.958 13.7765 239.967 13.8395C239.974 13.901 240 13.961 240.037 14.012C240.075 14.063 240.126 14.102 240.183 14.129C240.241 14.1545 240.304 14.165 240.367 14.159C240.615 14.1605 240.855 14.0795 241.051 13.9295C241.248 13.7795 241.389 13.568 241.452 13.3295L241.557 12.7925H241.56ZM243.324 10.721H244.309L244.159 11.444H244.182C244.297 11.2085 244.473 11.009 244.69 10.8635C244.909 10.718 245.161 10.631 245.422 10.6145C245.493 10.6145 245.644 10.646 245.709 10.652L245.329 11.744C245.256 11.732 245.182 11.7275 245.109 11.7305C244.972 11.7155 244.834 11.726 244.702 11.7635C244.572 11.8025 244.449 11.8655 244.341 11.951C244.234 12.0365 244.144 12.1415 244.078 12.2615C244.012 12.3815 243.97 12.5135 243.955 12.65L243.523 14.999H242.493L243.325 10.721H243.324ZM222.75 13.9475C222.75 13.9475 222.651 14.3975 222.627 14.621L222.574 15.0005H221.659C221.64 14.7815 221.64 14.5595 221.659 14.3405C221.485 14.5385 221.272 14.699 221.034 14.813C220.795 14.9255 220.537 14.9885 220.273 14.999C220.116 15.008 219.96 14.978 219.817 14.912C219.675 14.846 219.552 14.744 219.457 14.6195C219.363 14.4935 219.301 14.3465 219.279 14.1905C219.255 14.0345 219.271 13.877 219.324 13.7285C219.378 13.3805 219.546 13.061 219.801 12.818C220.056 12.575 220.384 12.425 220.734 12.3875L221.689 12.2375C221.787 12.236 221.883 12.2045 221.961 12.1445C222.037 12.0845 222.094 12.0005 222.12 11.906C222.208 11.4395 221.8 11.5115 221.538 11.5055C220.998 11.4875 220.461 11.5805 219.96 11.78L220.192 10.9625C220.708 10.733 221.272 10.6385 221.835 10.688C222.007 10.649 222.186 10.6505 222.355 10.6955C222.526 10.739 222.684 10.823 222.816 10.9415C222.946 11.0585 223.048 11.2055 223.11 11.3705C223.173 11.5355 223.195 11.7125 223.174 11.888L222.75 13.949V13.9475ZM221.94 12.7925C221.71 12.923 221.454 12.9995 221.19 13.0175C221.001 13.013 220.815 13.073 220.665 13.1885C220.515 13.304 220.41 13.469 220.368 13.6535C220.344 13.712 220.336 13.7765 220.345 13.8395C220.353 13.9025 220.378 13.9625 220.416 14.012C220.453 14.063 220.504 14.1035 220.563 14.129C220.62 14.1545 220.684 14.165 220.747 14.159C220.995 14.1605 221.235 14.0795 221.431 13.9295C221.626 13.7795 221.767 13.568 221.83 13.3295L221.935 12.7925H221.94Z" fill="white"/>
<path fill-rule="evenodd" clip-rule="evenodd" d="M218.85 14.9555H217.818L218.761 10.0985H218.745L216.816 14.9555H215.56L215.532 10.0985H215.515L214.749 14.9555H213.717L214.848 8.98999H216.46L216.531 13.64H216.549L218.377 8.98999H219.973L218.85 14.9555ZM226.62 11.6255C226.162 11.54 225.697 11.51 225.234 11.5325C224.674 11.5955 224.553 11.7515 224.517 11.9315C224.389 12.6005 226.935 11.9585 226.626 13.5065C226.525 13.9535 226.269 14.3495 225.903 14.624C225.537 14.8985 225.085 15.035 224.628 15.0065C224.07 15.0455 223.509 14.975 222.978 14.801L223.128 13.9835C223.647 14.087 224.176 14.1305 224.706 14.1155C224.874 14.1335 225.045 14.1035 225.196 14.027C225.348 13.952 225.475 13.8335 225.562 13.688C225.703 12.9815 223.162 13.5125 223.471 11.939C223.572 11.537 223.818 11.186 224.163 10.9565C224.508 10.727 224.926 10.634 225.336 10.6955C225.816 10.7015 226.293 10.7675 226.756 10.895L226.617 11.6315L226.62 11.6255ZM227.203 11.4275L227.581 9.85249H228.612L228.391 10.6415H229.032L228.882 11.4275H228.241L227.791 13.706C227.745 13.955 227.733 14.0495 228.153 14.0495C228.225 14.0495 228.297 14.042 228.369 14.03L228.219 14.879C228.057 14.879 227.869 14.9915 227.707 14.9915H227.578C226.687 14.9915 226.6 14.5235 226.711 13.9745L227.212 11.4245L227.203 11.4275ZM229.689 13.2455C229.65 13.3565 229.639 13.4765 229.659 13.592C229.678 13.709 229.729 13.817 229.803 13.9085C229.878 14 229.974 14.0705 230.085 14.114C230.194 14.1575 230.313 14.171 230.43 14.1545C231.066 14.1965 231.699 14.0285 232.23 13.6745L232.066 14.462C231.526 14.825 230.88 14.9945 230.232 14.942C229.131 14.942 228.391 14.3735 228.732 12.6515C228.805 12.083 229.075 11.558 229.495 11.1695C229.917 10.781 230.461 10.5515 231.033 10.523C231.807 10.523 232.798 11.1365 232.413 13.052L232.378 13.2455H229.678H229.689ZM231.46 12.428C231.496 12.3215 231.508 12.209 231.495 12.098C231.481 11.9855 231.444 11.879 231.384 11.7845C231.325 11.6885 231.244 11.609 231.15 11.5475C231.055 11.4875 230.949 11.4485 230.838 11.435C230.589 11.4725 230.359 11.5895 230.184 11.768C230.007 11.948 229.893 12.179 229.86 12.428H231.46ZM233.062 10.7165H234.048L233.898 11.36H233.914C234.031 11.1245 234.207 10.925 234.424 10.7795C234.642 10.6325 234.895 10.547 235.156 10.529C235.225 10.529 235.377 10.5605 235.441 10.568L235.062 11.66C234.988 11.648 234.915 11.6435 234.841 11.6465C234.556 11.63 234.277 11.726 234.063 11.912C233.847 12.0995 233.713 12.362 233.688 12.6455L233.256 14.9945H232.225L233.058 10.7165H233.062ZM239.29 10.2665C238.902 10.04 238.444 9.96349 238.003 10.0535C237.534 10.136 237.108 10.3775 236.797 10.739C236.487 11.099 236.31 11.5565 236.296 12.032C236.217 12.2135 236.173 12.4085 236.169 12.605C236.164 12.803 236.199 13.001 236.271 13.184C236.343 13.3685 236.451 13.5365 236.587 13.679C236.725 13.8215 236.889 13.9355 237.07 14.015C237.363 14.084 237.664 14.0915 237.96 14.0405C238.255 13.9895 238.537 13.8785 238.789 13.715L238.51 14.744C238.291 14.891 238.044 14.99 237.783 15.0335C237.523 15.077 237.256 15.0665 237.001 15.0005C235.591 14.9135 234.781 13.9775 235.171 12.0185C235.228 11.237 235.567 10.5035 236.124 9.9545C236.682 9.404 237.42 9.07549 238.201 9.02899C238.438 9.02599 238.674 9.0725 238.893 9.1625C239.112 9.254 239.311 9.38899 239.476 9.55849L239.29 10.271V10.2665ZM248.59 14.96H247.582L247.687 14.315H247.675C247.531 14.5145 247.341 14.675 247.122 14.786C246.901 14.8955 246.658 14.951 246.412 14.9465C245.247 14.9465 244.978 13.847 245.212 12.6965C245.247 12.1505 245.472 11.6345 245.848 11.2385C246.226 10.841 246.732 10.5905 247.275 10.5305C247.491 10.5125 247.707 10.5665 247.888 10.6865C248.07 10.805 248.206 10.9805 248.275 11.186H248.293L248.682 9.00349H249.714L248.589 14.9555L248.59 14.96ZM246.843 14.042C247.146 14.009 247.426 13.871 247.638 13.652C247.848 13.4315 247.975 13.145 247.996 12.842C248.13 12.1685 248.083 11.492 247.378 11.492C247.068 11.54 246.784 11.696 246.579 11.9315C246.372 12.1685 246.255 12.47 246.249 12.7835C246.15 13.277 246.184 14.051 246.849 14.051L246.843 14.042ZM242.368 13.9475C242.368 13.9475 242.269 14.3975 242.247 14.621L242.194 14.999H241.279C241.258 14.78 241.258 14.5595 241.279 14.3405C241.101 14.5295 240.886 14.6795 240.648 14.783C240.409 14.885 240.153 14.939 239.893 14.9405C239.74 14.957 239.584 14.933 239.442 14.873C239.301 14.8115 239.176 14.717 239.08 14.594C238.986 14.4725 238.924 14.3285 238.9 14.177C238.876 14.024 238.891 13.868 238.944 13.7225C238.998 13.3745 239.166 13.055 239.421 12.812C239.676 12.569 240.004 12.4175 240.354 12.3815L241.309 12.2315C241.477 12.206 241.687 12.3245 241.74 12.0815C241.753 12.0035 241.749 11.9225 241.723 11.846C241.699 11.7695 241.656 11.7005 241.599 11.645C241.542 11.5895 241.471 11.549 241.393 11.528C241.317 11.5055 241.236 11.504 241.158 11.5205C240.618 11.501 240.079 11.594 239.578 11.795L239.812 10.9775C240.33 10.7465 240.898 10.652 241.462 10.703C241.635 10.664 241.813 10.6655 241.983 10.7105C242.154 10.754 242.311 10.838 242.443 10.9565C242.574 11.0735 242.676 11.2205 242.737 11.3855C242.8 11.5505 242.823 11.7275 242.802 11.903L242.376 13.9385L242.368 13.9475ZM241.56 12.7925C241.33 12.923 241.074 12.9995 240.81 13.0175C240.621 13.013 240.435 13.073 240.286 13.1885C240.136 13.3055 240.031 13.469 239.989 13.6535C239.965 13.712 239.958 13.7765 239.967 13.8395C239.974 13.901 240 13.961 240.037 14.012C240.075 14.063 240.126 14.102 240.183 14.129C240.241 14.1545 240.304 14.165 240.367 14.159C240.615 14.1605 240.855 14.0795 241.051 13.9295C241.248 13.7795 241.389 13.568 241.452 13.3295L241.557 12.7925H241.56ZM243.324 10.721H244.309L244.159 11.444H244.182C244.297 11.2085 244.473 11.009 244.69 10.8635C244.909 10.718 245.161 10.631 245.422 10.6145C245.493 10.6145 245.644 10.646 245.709 10.652L245.329 11.744C245.256 11.732 245.182 11.7275 245.109 11.7305C244.972 11.7155 244.834 11.726 244.702 11.7635C244.572 11.8025 244.449 11.8655 244.341 11.951C244.234 12.0365 244.144 12.1415 244.078 12.2615C244.012 12.3815 243.97 12.5135 243.955 12.65L243.523 14.999H242.493L243.325 10.721H243.324ZM222.75 13.9475C222.75 13.9475 222.651 14.3975 222.627 14.621L222.574 15.0005H221.659C221.64 14.7815 221.64 14.5595 221.659 14.3405C221.485 14.5385 221.272 14.699 221.034 14.813C220.795 14.9255 220.537 14.9885 220.273 14.999C220.116 15.008 219.96 14.978 219.817 14.912C219.675 14.846 219.552 14.744 219.457 14.6195C219.363 14.4935 219.301 14.3465 219.279 14.1905C219.255 14.0345 219.271 13.877 219.324 13.7285C219.378 13.3805 219.546 13.061 219.801 12.818C220.056 12.575 220.384 12.425 220.734 12.3875L221.689 12.2375C221.787 12.236 221.883 12.2045 221.961 12.1445C222.037 12.0845 222.094 12.0005 222.12 11.906C222.208 11.4395 221.8 11.5115 221.538 11.5055C220.998 11.4875 220.461 11.5805 219.96 11.78L220.192 10.9625C220.708 10.733 221.272 10.6385 221.835 10.688C222.007 10.649 222.186 10.6505 222.355 10.6955C222.526 10.739 222.684 10.823 222.816 10.9415C222.946 11.0585 223.048 11.2055 223.11 11.3705C223.173 11.5355 223.195 11.7125 223.174 11.888L222.75 13.949V13.9475ZM221.94 12.7925C221.71 12.923 221.454 12.9995 221.19 13.0175C221.001 13.013 220.815 13.073 220.665 13.1885C220.515 13.304 220.41 13.469 220.368 13.6535C220.344 13.712 220.336 13.7765 220.345 13.8395C220.353 13.9025 220.378 13.9625 220.416 14.012C220.453 14.063 220.504 14.1035 220.563 14.129C220.62 14.1545 220.684 14.165 220.747 14.159C220.995 14.1605 221.235 14.0795 221.431 13.9295C221.626 13.7795 221.767 13.568 221.83 13.3295L221.935 12.7925H221.94Z" fill="white"/>
<path fill-rule="evenodd" clip-rule="evenodd" d="M291.748 23.9931V9.74613H291.098L286.46 23.9931H280.953H280.937L276.31 9.74613H275.665V23.9931H267.732V0.00378957H275.665C276.643 -0.00953784 277.6 0.291659 278.394 0.859407C279.191 1.42716 279.786 2.23481 280.09 3.16506L283.35 14.2534H284.035L287.3 3.16506C287.606 2.23215 288.203 1.42183 289.006 0.854079C289.805 0.283666 290.768 -0.0122033 291.748 0.00378957H299.681V23.9931H291.748Z" fill="#52B461"/>
<path fill-rule="evenodd" clip-rule="evenodd" d="M320.984 23.9925V9.74551H320.379L315.365 21.7002C315.056 22.3826 314.557 22.9636 313.928 23.3715C313.299 23.7766 312.563 23.9925 311.814 23.9925H305.084V0.00317383H313.08V14.2502H313.715L318.793 2.28215L318.833 2.19153C319.152 1.53849 319.651 0.986753 320.269 0.602924C320.888 0.216429 321.602 0.0138299 322.33 0.0138299H329.06V24.0032H320.989L320.984 23.9925Z" fill="#52B461"/>
<path fill-rule="evenodd" clip-rule="evenodd" d="M351.82 16.0337H342.416V23.9928H334.42V10.6467H360.949C360.126 12.342 358.82 13.7573 357.196 14.7143C355.573 15.6738 353.702 16.1323 351.82 16.0337Z" fill="#52B461"/>
<path fill-rule="evenodd" clip-rule="evenodd" d="M360.809 8.01561H346.384C339.795 8.01561 334.314 4.55049 333.16 0.00317383H351.88C356.918 0.00317383 361.001 2.98053 361.001 6.6509C361.001 7.11203 360.937 7.57047 360.809 8.01561Z" fill="url(#paint0_linear_275_4914)"/>
<defs>
<linearGradient id="paint0_linear_275_4914" x1="361.025" y1="4.00139" x2="333.12" y2="4.00139" gradientUnits="userSpaceOnUse">
<stop stop-color="#198ECA"/>
<stop offset="1" stop-color="#1DB5E4"/>
</linearGradient>
</defs>
</svg>
