<svg width="421" height="404" viewBox="0 0 421 404" fill="none" xmlns="http://www.w3.org/2000/svg">
<rect x="118.884" y="110.28" width="183.867" height="183.867" rx="91.9333" fill="#1A73E8"/>
<path d="M201.629 144.314C198.917 144.661 195.658 145.663 193.147 146.919C189.808 148.575 187.871 150.552 187.056 153.13L186.829 153.865L185.319 154.199C180.724 155.24 176.717 157.217 173.912 159.835C172.189 161.438 170.8 163.589 170.132 165.686C169.223 168.491 169.21 172.178 170.105 175.958L170.385 177.094L169.517 178.977C167.807 182.717 167.26 184.828 167.26 187.726C167.26 190.424 167.807 193.136 168.756 195.14C169.571 196.863 171.093 198.412 172.736 199.174C173.271 199.428 173.458 199.588 173.525 199.855C174.005 202.126 174.98 204.463 176.036 205.946C179.001 210.087 184.064 211.743 188.445 210.02L189.126 209.753L190.395 210.354C191.103 210.675 191.945 211.022 192.279 211.102L192.88 211.249V214.816C192.88 218.81 192.96 219.411 193.708 220.973C195.565 224.861 200.761 226.089 204.247 223.445C205.73 222.323 206.571 220.907 206.972 218.916C207.119 218.249 207.413 217.22 207.627 216.659C207.854 216.098 208.041 215.577 208.041 215.497C208.041 215.417 208.415 214.375 208.856 213.173L209.684 210.969L210.165 210.888C211.5 210.675 212.502 210.354 213.651 209.806C215.12 209.099 216.376 207.95 217.111 206.654L217.565 205.866L218.233 205.933C219.328 206.053 222.681 205.772 224.471 205.412C230.588 204.183 234.649 201.311 236.359 197.01L236.733 196.075L238.376 195.995C241.755 195.821 244.627 194.979 247.553 193.296C250.264 191.747 252.215 189.81 253.363 187.526C254.325 185.602 254.632 183.064 254.151 181.034C253.844 179.765 253.377 178.63 252.789 177.708L252.415 177.107L252.562 175.517C252.989 170.936 251.76 165.967 249.236 162.186C246.417 157.939 242.437 155.427 238.469 155.374L237.174 155.361L236.947 154.746C236.826 154.412 236.412 153.491 236.025 152.716C233.874 148.321 231.056 145.85 226.942 144.755C225.78 144.447 225.339 144.407 223.536 144.407C221.853 144.394 221.265 144.447 220.383 144.674C217.965 145.316 215.735 146.451 214.052 147.92L213.304 148.562L212.516 147.894C210.552 146.251 208.335 145.075 206.237 144.568C204.982 144.274 202.845 144.154 201.629 144.314ZM205.396 151.647C206.772 152.182 207.787 152.996 210.645 155.868C212.195 157.418 213.678 158.82 213.958 158.981L214.452 159.261L214.773 158.767C214.947 158.486 215.281 157.872 215.521 157.404C217.111 154.239 219.088 152.382 221.666 151.607C223.001 151.206 225.299 151.393 226.461 151.981C228.05 152.809 229.106 154.305 230.562 157.725C232.071 161.291 232.979 162.721 234.142 163.282C234.85 163.616 235.077 163.576 236.559 162.854C237.521 162.373 237.708 162.333 238.429 162.387C240.326 162.52 242.517 164.39 244.026 167.155C245.349 169.613 245.91 173.42 245.362 176.305C244.908 178.737 244.935 178.897 246.07 180.393C247.018 181.662 247.312 182.29 247.312 183.118C247.312 185.763 243.131 188.541 238.469 188.995C234.796 189.356 231.751 187.165 231.577 184.013C231.47 182.116 232.138 180.233 234.235 176.426C235.598 173.941 236.092 172.752 236.092 171.884C236.092 170.682 235.17 169.693 234.035 169.693C233.313 169.693 232.218 170.161 231.497 170.789C230.922 171.283 230.695 171.657 229.814 173.5C228.558 176.105 227.917 177.708 227.53 179.137L227.236 180.233L226.835 179.899C225.539 178.803 222.106 177.708 219.982 177.708C219.168 177.708 218.006 177.935 217.511 178.176C216.937 178.483 216.363 179.177 216.189 179.792C215.948 180.62 216.082 181.649 216.456 182.049C217.137 182.784 218.166 182.771 220.25 182.023C220.998 181.755 221.345 181.702 221.973 181.755C224.257 181.956 227.276 184.654 228.905 187.927C229.814 189.743 230.014 190.545 230.014 192.401C230.014 193.964 229.987 194.125 229.64 194.833C228.491 197.157 224.751 198.72 219.862 198.907C216.269 199.04 214.492 198.533 213.21 197.037C211.674 195.22 211.033 194.686 209.604 194.004C207.747 193.123 206.465 192.789 204.501 192.709C201.816 192.588 199.706 193.096 196.74 194.552L195.11 195.34L195.177 196.85C195.244 198.439 195.485 199.241 195.925 199.321C196.046 199.347 196.446 199.2 196.794 198.987C198.65 197.851 200.52 197.33 202.698 197.33C205.356 197.344 207.346 198.119 209.056 199.815C210.018 200.777 210.979 202.38 210.979 203.034C210.979 203.649 209.523 204.049 207.426 204.009C206.411 203.983 206.01 204.023 205.69 204.196C205.129 204.49 204.367 205.385 203.98 206.227C203.553 207.135 201.91 211.57 200.48 215.711C200.28 216.298 200.066 216.899 200.013 217.046C199.839 217.514 199.879 213.186 200.106 209.993C200.213 208.284 200.293 206.387 200.267 205.759L200.226 204.624H197.622C194.269 204.624 193.668 204.45 192.025 203.088C190.649 201.939 189.727 201.351 189.313 201.351C188.792 201.351 188.512 201.511 187.39 202.486C186.335 203.408 185.733 203.675 184.718 203.662C183.797 203.662 182.942 203.234 181.98 202.273C180.845 201.177 180.35 200.069 180.283 198.466C180.217 196.943 180.404 195.995 181.058 194.699C182.434 191.974 184.638 190.318 187.737 189.676C188.285 189.57 189.848 189.383 191.21 189.262C195.444 188.902 196.593 188.661 198.356 187.753C199.465 187.165 200.788 185.91 201.215 185.001C201.469 184.48 201.522 184.227 201.455 183.599C201.322 182.089 200.267 180.58 199.118 180.233C198.383 180.019 197.528 180.299 195.818 181.328C194.002 182.41 190.783 184.04 189.781 184.373C188.672 184.747 187.497 184.747 187.029 184.373C186.575 184.026 186.321 183.171 186.134 181.408C185.867 178.95 185.212 176.746 184.451 175.744C183.382 174.342 181.726 174.863 181.312 176.706C181.085 177.708 181.325 179.498 181.873 181.047C182.888 183.893 182.955 184.146 182.888 185.055C182.821 186.203 182.381 187.045 181.152 188.421C180.617 189.009 179.99 189.743 179.749 190.05C178.961 191.026 177.425 192.522 176.984 192.722C176.116 193.136 175.515 192.922 175.061 192.041C174.673 191.293 174.339 189.369 174.326 187.86C174.313 185.616 174.82 184.026 176.931 179.819C177.438 178.803 177.852 177.815 177.852 177.614C177.852 177.401 177.639 176.546 177.385 175.704C175.875 170.789 176.236 167.449 178.547 165.138C181.686 162.013 187.978 160.089 193.414 160.597C196.847 160.917 199.225 161.826 200.841 163.402C201.976 164.537 202.484 165.553 202.845 167.449C203.646 171.724 203.913 172.512 204.915 173.434C205.716 174.168 206.558 174.529 207.493 174.542C208.375 174.542 208.709 174.395 209.189 173.767C209.457 173.42 209.563 173.1 209.604 172.458C209.724 170.976 209.23 169.72 207.386 166.848C206.117 164.871 205.663 164.003 205.556 163.308C205.449 162.614 205.623 162.32 206.465 161.826C207.64 161.158 208.174 160.437 208.174 159.528C208.174 158.687 207.48 157.618 206.678 157.191C206.05 156.857 205.383 156.964 204.033 157.605C202.39 158.379 201.642 158.526 199.893 158.433C196.233 158.219 193.414 156.723 193.801 155.2C194.095 154.052 196.887 152.622 200.894 151.58C202.457 151.18 204.247 151.206 205.396 151.647Z" fill="white"/>
<path d="M191.151 252.185V241.078H196.308C197.588 241.078 198.556 241.406 199.211 242.062C199.719 242.57 199.973 243.21 199.973 243.982C199.973 245.029 199.486 245.828 198.513 246.378C199.201 246.642 199.719 246.991 200.068 247.425C200.417 247.848 200.592 248.419 200.592 249.139C200.592 250.133 200.222 250.889 199.481 251.408C198.741 251.926 197.725 252.185 196.435 252.185H191.151ZM193.531 245.569H195.784C196.958 245.569 197.545 245.167 197.545 244.363C197.545 243.993 197.408 243.712 197.133 243.522C196.858 243.321 196.461 243.22 195.943 243.22H193.531V245.569ZM193.531 250.043H196.435C197.588 250.043 198.164 249.63 198.164 248.805C198.164 248.001 197.561 247.6 196.355 247.6H193.531V250.043ZM202.348 252.185V243.68H204.76V245.394C205.31 244.093 206.214 243.469 207.473 243.522V246.045H207.346C206.521 246.045 205.881 246.298 205.426 246.806C204.982 247.303 204.76 248.049 204.76 249.043V252.185H202.348ZM210.989 252.344C210.153 252.344 209.455 252.111 208.894 251.646C208.344 251.18 208.069 250.535 208.069 249.71C208.069 248.811 208.376 248.134 208.989 247.679C209.613 247.224 210.449 246.997 211.496 246.997C212.205 246.997 212.898 247.113 213.575 247.346V247.203C213.575 246.166 212.967 245.648 211.75 245.648C211.02 245.648 210.238 245.801 209.402 246.108L208.799 244.268C209.836 243.813 210.936 243.585 212.099 243.585C213.379 243.585 214.336 243.903 214.971 244.537C215.585 245.151 215.891 246.055 215.891 247.25V252.185H213.559V251.265C212.914 251.984 212.057 252.344 210.989 252.344ZM211.718 250.678C212.279 250.678 212.734 250.54 213.083 250.265C213.432 249.98 213.607 249.62 213.607 249.186V248.758C213.152 248.546 212.639 248.44 212.068 248.44C211.539 248.44 211.126 248.546 210.83 248.758C210.544 248.959 210.402 249.255 210.402 249.646C210.402 249.964 210.523 250.218 210.766 250.408C211.01 250.588 211.327 250.678 211.718 250.678ZM218.014 242.744V240.602H220.553V242.744H218.014ZM218.078 252.185V243.68H220.489V252.185H218.078ZM222.755 252.185V243.68H225.166V244.886C225.875 243.977 226.705 243.522 227.657 243.522C228.567 243.522 229.276 243.802 229.784 244.363C230.291 244.923 230.545 245.696 230.545 246.679V252.185H228.133V247.441C228.133 246.88 228.006 246.452 227.753 246.156C227.499 245.859 227.139 245.711 226.674 245.711C226.208 245.711 225.838 245.859 225.563 246.156C225.299 246.452 225.166 246.88 225.166 247.441V252.185H222.755Z" fill="white"/>
<rect x="118.884" y="110.28" width="183.867" height="183.867" rx="91.9333" stroke="#1A73E8" stroke-width="2.8"/>
<rect x="0.816406" y="0.612793" width="140" height="140" rx="70" fill="#9C1D6D"/>
<path d="M77.6793 22.7735C70.6513 23.9203 64.5734 28.3108 61.4771 34.4542C60.5925 36.2235 60.7071 37.3539 61.8539 38.3205C62.8041 39.1068 64.3604 39.0249 65.1632 38.1566C65.3925 37.8945 65.8676 37.1737 66.1953 36.5512C69.8977 29.6378 77.9251 26.1975 85.4774 28.2944C89.9334 29.5231 93.8324 32.7832 95.9458 37.0426C98.2065 41.597 98.2393 46.8393 96.0277 51.4919C94.9792 53.72 94.0945 54.8667 91.0966 57.9302C87.2795 61.8456 87.0992 62.2388 86.9354 67.3501C86.788 71.3147 86.6569 72.0191 85.6904 73.7721C83.02 78.5885 76.9094 79.5714 72.9612 75.8035C72.4206 75.2956 71.7653 74.4929 71.5032 74.0178C71.2247 73.5591 70.8315 73.0185 70.6021 72.8383C68.882 71.4949 66.4574 72.7072 66.4574 74.9024C66.4574 76.2458 68.669 79.2438 70.7496 80.7018C78.6131 86.2227 88.7866 82.5039 91.5553 73.084C91.8338 72.1502 91.9157 71.2655 91.9976 68.3331C92.0959 65.2696 92.145 64.647 92.4072 64.1556C92.5874 63.8443 93.9471 62.3207 95.4379 60.7972C98.4031 57.7664 99.5499 56.2265 100.762 53.6544C104.874 44.9881 102.646 34.2412 95.4871 28.0323C92.5055 25.4603 89.229 23.8056 85.3791 22.9537C83.79 22.5933 79.3667 22.495 77.6793 22.7735Z" fill="white"/>
<path d="M78.3344 32.9635C76.9091 33.2747 74.5337 34.4051 73.305 35.3881C71.421 36.8953 69.9138 39.2707 69.2258 41.81C68.9145 42.9404 68.8654 43.6612 68.7998 47.7077C68.7015 52.8354 68.8162 53.9985 69.537 55.5221C70.4544 57.5207 72.5186 58.9788 74.6484 59.1754C75.2381 59.2245 75.8934 59.3556 76.09 59.4539C77.1385 59.9617 77.2532 62.2061 76.2702 62.8123C76.09 62.9269 75.5822 63.0908 75.1234 63.1727C74.0258 63.3857 73.4197 63.8444 73.092 64.729C72.5842 66.0396 73.1412 67.383 74.4354 67.9564C76.3685 68.8082 79.5467 67.4649 81.0047 65.1713C81.8075 63.9099 82.0696 62.7304 81.9877 60.6989C81.9222 59.1426 81.8566 58.815 81.3979 57.8975C80.3822 55.8334 78.3999 54.4245 76.1719 54.1951C74.9105 54.0477 74.206 53.7036 74.075 53.1303C74.0094 52.9173 73.9931 50.6237 74.0258 48.0189C74.075 43.5465 74.1077 43.2189 74.4518 42.367C76.303 37.7963 81.9877 36.4202 85.5918 39.6639C87.3284 41.2202 87.9509 42.8257 87.9017 45.5124C87.8526 47.3636 88.0328 47.937 88.8355 48.5759C90.1461 49.608 92.3086 48.92 92.8656 47.3145C93.2097 46.2824 93.1277 43.1697 92.7018 41.6625C90.9161 35.3553 84.7399 31.6201 78.3344 32.9635Z" fill="white"/>
<path d="M51.0897 37.2883C50.7948 37.4685 50.418 37.8453 50.2378 38.1402C49.8446 38.7791 49.7955 40.0406 50.1559 40.7123C50.2869 40.9744 51.0897 41.6788 51.9416 42.2686C58.986 47.2652 62.2297 56.1118 60.0509 64.434C59.6249 66.0723 58.7403 68.1856 57.9048 69.5945C57.4133 70.43 57.2495 70.8559 57.2495 71.4129C57.2495 74.0997 60.6406 75.0171 62.0331 72.7072C63.5076 70.2826 64.6052 67.5795 65.2605 64.8108C65.8666 62.2715 65.9813 57.6681 65.5062 54.8995C64.3103 47.9369 60.2802 41.6624 54.5628 37.8453C53.3996 37.0754 53.1211 36.9607 52.433 36.9607C51.9252 36.9607 51.4337 37.0754 51.0897 37.2883Z" fill="white"/>
<path d="M46.0764 44.0052C45.0607 44.3165 44.3398 45.365 44.3398 46.4953C44.3398 47.4291 44.7658 48.0844 45.9126 48.9363C47.9767 50.4599 49.0744 51.7705 50.1392 53.9821C51.0075 55.817 51.2696 57.2258 51.1877 59.6996C51.1058 62.0587 50.6635 63.6478 49.6478 65.3352C49.3201 65.8594 49.0252 66.5311 48.9761 66.8587C48.8286 67.7434 49.3201 68.841 50.0901 69.3488C50.6307 69.7093 50.8601 69.7584 51.7119 69.6929C52.5638 69.6273 52.7768 69.5454 53.2519 69.0867C53.5632 68.7918 54.1365 67.8744 54.5461 67.0389C56.168 63.7624 56.7413 60.2894 56.2335 56.8327C55.611 52.6224 53.858 49.1985 50.8764 46.4134C48.6484 44.3165 47.2723 43.6284 46.0764 44.0052Z" fill="white"/>
<path d="M40.7847 50.9185C39.9164 51.0987 39.1629 51.8359 38.9171 52.737C38.6386 53.8018 38.9335 54.5226 40.1622 55.7022C42.0462 57.5042 42.3574 59.0606 41.309 61.3705C40.6537 62.8449 40.6045 63.2709 41.0632 64.1719C41.6366 65.2695 42.9472 65.8429 44.0612 65.4825C45.6994 64.9419 47.0264 62.0749 47.01 59.077C46.9937 56.5868 46.0762 54.326 44.3725 52.5731C43.0127 51.1806 41.9315 50.6891 40.7847 50.9185Z" fill="white"/>
<path d="M35.1492 110.613V99.5061H37.5927V108.391H43.1301V110.613H35.1492ZM44.7666 101.172V99.0301H47.3053V101.172H44.7666ZM44.8301 110.613V102.108H47.2418V110.613H44.8301ZM52.4899 110.771C51.1465 110.771 49.93 110.343 48.8405 109.486L49.8719 107.9C50.8027 108.577 51.6965 108.915 52.5533 108.915C53.2303 108.915 53.5688 108.693 53.5688 108.249C53.5688 108.196 53.5582 108.143 53.5371 108.09C53.5265 108.037 53.5 107.99 53.4577 107.947C53.4154 107.905 53.3678 107.868 53.3149 107.836C53.2726 107.794 53.2091 107.757 53.1245 107.725C53.0505 107.683 52.9817 107.651 52.9183 107.63C52.8654 107.598 52.786 107.566 52.6803 107.535C52.5745 107.492 52.4846 107.461 52.4105 107.439C52.3365 107.418 52.236 107.392 52.1091 107.36C51.9821 107.318 51.8816 107.286 51.8076 107.265C51.4479 107.159 51.1412 107.053 50.8873 106.948C50.644 106.831 50.3849 106.678 50.1099 106.487C49.8348 106.286 49.6233 106.038 49.4752 105.742C49.3377 105.435 49.2689 105.081 49.2689 104.679C49.2689 103.843 49.5651 103.187 50.1575 102.711C50.7498 102.225 51.4903 101.981 52.3788 101.981C53.5212 101.981 54.579 102.309 55.5521 102.965L54.6319 104.631C53.7327 104.102 52.9659 103.838 52.3312 103.838C51.7388 103.838 51.4427 104.044 51.4427 104.457C51.4427 104.742 51.9292 105.049 52.9024 105.377C53.0187 105.419 53.1087 105.451 53.1721 105.472C53.4577 105.567 53.701 105.657 53.902 105.742C54.103 105.826 54.3304 105.943 54.5843 106.091C54.8381 106.239 55.0391 106.398 55.1872 106.567C55.3459 106.725 55.4781 106.932 55.5839 107.186C55.6896 107.439 55.7425 107.72 55.7425 108.027C55.7425 108.936 55.4411 109.624 54.8381 110.089C54.2458 110.544 53.463 110.771 52.4899 110.771ZM60.1882 110.756C59.3948 110.756 58.7813 110.565 58.3476 110.184C57.9245 109.793 57.713 109.132 57.713 108.201V104.171H56.6975V102.108H57.713V99.9345H60.1247V102.108H62.1239V104.171H60.1247V107.804C60.1247 108.354 60.3839 108.629 60.9022 108.629C61.3253 108.629 61.7219 108.529 62.0922 108.328V110.264C61.5421 110.592 60.9075 110.756 60.1882 110.756ZM67.6993 110.803C66.4088 110.803 65.3457 110.396 64.5101 109.581C63.6745 108.756 63.2566 107.688 63.2566 106.376C63.2566 105.139 63.6533 104.092 64.4466 103.235C65.24 102.378 66.2449 101.95 67.4613 101.95C68.8047 101.95 69.8307 102.394 70.5394 103.282C71.2481 104.171 71.6025 105.266 71.6025 106.567C71.6025 106.694 71.5919 106.905 71.5708 107.201H65.6525C65.7689 107.741 66.0069 108.153 66.3665 108.439C66.7261 108.725 67.181 108.867 67.731 108.867C68.4821 108.867 69.1696 108.577 69.7937 107.995L71.1741 109.217C70.3173 110.274 69.159 110.803 67.6993 110.803ZM65.6208 105.694H69.2542C69.1802 105.144 68.9845 104.705 68.6672 104.377C68.3604 104.049 67.9585 103.885 67.4613 103.885C66.9747 103.885 66.5675 104.049 66.2396 104.377C65.9222 104.695 65.716 105.134 65.6208 105.694ZM73.3999 110.613V102.108H75.8116V103.314C76.5203 102.404 77.3507 101.95 78.3027 101.95C79.2124 101.95 79.9211 102.23 80.4288 102.791C80.9366 103.351 81.1904 104.123 81.1904 105.107V110.613H78.7787V105.869C78.7787 105.308 78.6518 104.88 78.3979 104.583C78.144 104.287 77.7844 104.139 77.319 104.139C76.8535 104.139 76.4833 104.287 76.2083 104.583C75.9438 104.88 75.8116 105.308 75.8116 105.869V110.613H73.3999ZM83.3332 101.172V99.0301H85.8718V101.172H83.3332ZM83.3966 110.613V102.108H85.8084V110.613H83.3966ZM88.0735 110.613V102.108H90.4852V103.314C91.1939 102.404 92.0243 101.95 92.9763 101.95C93.886 101.95 94.5947 102.23 95.1024 102.791C95.6101 103.351 95.864 104.123 95.864 105.107V110.613H93.4523V105.869C93.4523 105.308 93.3253 104.88 93.0715 104.583C92.8176 104.287 92.458 104.139 91.9925 104.139C91.5271 104.139 91.1569 104.287 90.8819 104.583C90.6174 104.88 90.4852 105.308 90.4852 105.869V110.613H88.0735ZM101.767 113.183C100.381 113.183 99.128 112.887 98.0067 112.295L98.8318 110.486C99.7521 111.004 100.709 111.263 101.704 111.263C103.322 111.263 104.131 110.491 104.131 108.947V108.534C103.75 109 103.343 109.349 102.91 109.581C102.486 109.804 101.968 109.915 101.355 109.915C100.307 109.915 99.4136 109.555 98.6731 108.836C97.9433 108.116 97.5783 107.143 97.5783 105.916C97.5783 104.7 97.9486 103.737 98.689 103.029C99.4294 102.309 100.318 101.95 101.355 101.95C102.412 101.95 103.327 102.373 104.1 103.219V102.108H106.511V108.693C106.511 110.206 106.152 111.322 105.432 112.041C104.671 112.802 103.449 113.183 101.767 113.183ZM100.577 107.376C100.969 107.736 101.46 107.915 102.053 107.915C102.645 107.915 103.137 107.73 103.528 107.36C103.93 106.99 104.131 106.509 104.131 105.916C104.131 105.345 103.93 104.874 103.528 104.504C103.137 104.134 102.645 103.949 102.053 103.949C101.46 103.949 100.969 104.134 100.577 104.504C100.186 104.874 99.9901 105.356 99.9901 105.948C99.9901 106.53 100.186 107.006 100.577 107.376Z" fill="white"/>
<rect x="280.816" y="0.612793" width="140" height="140" rx="70" fill="#F7B24D"/>
<path d="M333.254 22.6827C328.813 22.8956 324.023 23.8688 320.283 25.3438C318.108 26.1801 318.123 26.1649 318.123 29.4494V32.0041H316.907C314.763 32.0041 313.197 32.9165 312.315 34.6956L311.965 35.4255V56.8663V78.307L312.345 79.0521C312.892 80.1318 313.866 81.0442 314.854 81.4091C315.69 81.7284 315.903 81.7284 331.505 81.7284H347.304L347.836 82.1846C349.494 83.6444 352.14 83.6444 353.797 82.1846L354.329 81.7284H370.129C385.73 81.7284 385.943 81.7284 386.779 81.4091C387.768 81.0442 388.741 80.1318 389.289 79.0521L389.669 78.307V56.8663V35.4255L389.319 34.6956C388.437 32.9165 386.871 32.0041 384.727 32.0041H383.51V29.4494C383.51 26.1649 383.525 26.1801 381.351 25.3438C378.416 24.1881 374.508 23.2605 370.965 22.8651C368.836 22.6218 363.681 22.6218 361.613 22.8651C358.982 23.1693 355.652 23.8992 353.159 24.7355L350.802 25.511L348.718 24.8115C345.145 23.6102 342.149 23.0172 338.196 22.7283C336.097 22.5914 335.322 22.5762 333.254 22.6827ZM341.237 26.1497C343.974 26.5755 346.863 27.351 348.749 28.1265L349.296 28.3546V50.7838C349.296 63.116 349.235 73.213 349.174 73.213C349.114 73.213 348.338 72.9697 347.471 72.6807C345.814 72.1181 343.35 71.5707 341.009 71.2057C339.138 70.932 331.322 70.932 329.452 71.2057C327.217 71.5403 324.708 72.1181 323.02 72.6807C322.153 72.9697 321.377 73.213 321.301 73.213C321.225 73.213 321.165 64.2869 321.165 50.799V28.3698L322.351 27.9288C325.073 26.8796 327.475 26.3474 331.657 25.8608C332.995 25.7087 339.716 25.9064 341.237 26.1497ZM372.334 26.1345C375.086 26.5755 377.139 27.0925 379.298 27.9288L380.469 28.3698V50.799C380.469 63.1312 380.423 73.213 380.362 73.213C380.317 73.213 379.526 72.9697 378.629 72.6807C375.04 71.5251 372.303 71.0993 367.772 70.9776C362.297 70.8408 358.481 71.3122 354.421 72.6047C353.371 72.9392 352.489 73.213 352.429 73.213C352.383 73.213 352.337 63.116 352.337 50.7838V28.3546L352.915 28.1265C355.333 27.1077 359.089 26.2409 362.754 25.8608C364.198 25.7087 370.874 25.9064 372.334 26.1345ZM318.123 55.4369C318.123 70.1413 318.169 75.9045 318.291 76.1478C318.564 76.68 319.066 77.0145 319.629 77.0145C319.918 77.0145 320.876 76.7408 321.742 76.3911C330.091 73.1369 341.48 73.289 349.722 76.7712C350.802 77.2274 350.786 77.2274 352.565 76.4671C354.162 75.798 357.158 74.9921 359.469 74.5967C366.281 73.4411 374.082 74.1253 379.891 76.3911C381.564 77.0449 382.035 77.121 382.674 76.832C383.556 76.4367 383.51 77.5924 383.51 55.4217V35.0453H384.346C385.365 35.0453 386.156 35.3495 386.415 35.8361C386.567 36.1098 386.612 40.3371 386.612 56.8663C386.627 76.5279 386.612 77.5619 386.354 77.9573C386.202 78.1702 385.867 78.4287 385.609 78.5199C384.94 78.748 316.694 78.748 316.025 78.5199C315.766 78.4287 315.432 78.1702 315.28 77.9573C315.021 77.5619 315.006 76.5431 315.021 56.8663C315.021 40.3523 315.067 36.1098 315.219 35.8361C315.493 35.3342 316.223 35.0605 317.257 35.0453H318.123V55.4369Z" fill="white"/>
<path d="M365.186 33.7528C363.087 34.726 362.662 37.3871 364.349 38.9077C365.672 40.0938 367.543 39.9873 368.729 38.634C369.824 37.3871 369.732 35.5471 368.516 34.4066C367.619 33.5703 366.174 33.2814 365.186 33.7528Z" fill="white"/>
<path d="M360.625 44.8077C360.108 45.2791 359.926 45.9634 360.169 46.5716C360.458 47.2255 361.097 47.5144 362.298 47.5144H363.286V55.2696V63.0248H366.404H369.521V54.4485C369.521 48.7309 369.46 45.7353 369.354 45.416C369.034 44.5188 368.852 44.4732 364.746 44.4732C361.097 44.4732 361.021 44.4732 360.625 44.8077Z" fill="white"/>
<path d="M318.649 110.613V99.5061H323.727C325.133 99.5061 326.212 99.8816 326.963 100.633C327.598 101.267 327.915 102.124 327.915 103.203C327.915 104.906 327.122 106.054 325.535 106.646L328.249 110.613H325.393L322.981 107.059H321.093V110.613H318.649ZM321.093 104.901H323.568C324.16 104.901 324.62 104.758 324.948 104.472C325.276 104.176 325.44 103.785 325.44 103.298C325.44 102.78 325.271 102.389 324.932 102.124C324.594 101.849 324.123 101.712 323.52 101.712H321.093V104.901ZM333.737 110.803C332.446 110.803 331.383 110.396 330.547 109.581C329.712 108.756 329.294 107.688 329.294 106.376C329.294 105.139 329.691 104.092 330.484 103.235C331.277 102.378 332.282 101.95 333.499 101.95C334.842 101.95 335.868 102.394 336.577 103.282C337.286 104.171 337.64 105.266 337.64 106.567C337.64 106.694 337.629 106.905 337.608 107.201H331.69C331.806 107.741 332.044 108.153 332.404 108.439C332.764 108.725 333.218 108.867 333.768 108.867C334.519 108.867 335.207 108.577 335.831 107.995L337.211 109.217C336.355 110.274 335.196 110.803 333.737 110.803ZM331.658 105.694H335.292C335.218 105.144 335.022 104.705 334.705 104.377C334.398 104.049 333.996 103.885 333.499 103.885C333.012 103.885 332.605 104.049 332.277 104.377C331.96 104.695 331.753 105.134 331.658 105.694ZM341.849 110.771C341.013 110.771 340.315 110.539 339.755 110.073C339.205 109.608 338.93 108.963 338.93 108.138C338.93 107.238 339.236 106.562 339.85 106.107C340.474 105.652 341.31 105.424 342.357 105.424C343.065 105.424 343.758 105.541 344.435 105.773V105.631C344.435 104.594 343.827 104.076 342.611 104.076C341.881 104.076 341.098 104.229 340.262 104.536L339.659 102.695C340.696 102.24 341.796 102.013 342.96 102.013C344.24 102.013 345.197 102.33 345.832 102.965C346.445 103.579 346.752 104.483 346.752 105.678V110.613H344.419V109.693C343.774 110.412 342.917 110.771 341.849 110.771ZM342.579 109.105C343.139 109.105 343.594 108.968 343.943 108.693C344.292 108.407 344.467 108.048 344.467 107.614V107.186C344.012 106.974 343.499 106.868 342.928 106.868C342.399 106.868 341.987 106.974 341.69 107.186C341.405 107.387 341.262 107.683 341.262 108.074C341.262 108.391 341.384 108.645 341.627 108.836C341.87 109.016 342.187 109.105 342.579 109.105ZM352.318 110.771C351.26 110.771 350.35 110.375 349.589 109.581C348.827 108.788 348.446 107.709 348.446 106.345C348.446 104.991 348.822 103.922 349.573 103.14C350.334 102.346 351.249 101.95 352.318 101.95C353.376 101.95 354.259 102.373 354.968 103.219V99.0301H357.379V110.613H354.968V109.391C354.291 110.311 353.407 110.771 352.318 110.771ZM351.461 108.074C351.863 108.508 352.355 108.725 352.937 108.725C353.518 108.725 354.005 108.508 354.396 108.074C354.798 107.63 354.999 107.053 354.999 106.345C354.999 105.657 354.798 105.096 354.396 104.663C354.005 104.219 353.518 103.996 352.937 103.996C352.355 103.996 351.863 104.219 351.461 104.663C351.059 105.096 350.858 105.668 350.858 106.376C350.858 107.064 351.059 107.63 351.461 108.074ZM359.582 101.172V99.0301H362.12V101.172H359.582ZM359.645 110.613V102.108H362.057V110.613H359.645ZM364.322 110.613V102.108H366.734V103.314C367.442 102.404 368.273 101.95 369.225 101.95C370.134 101.95 370.843 102.23 371.351 102.791C371.859 103.351 372.112 104.123 372.112 105.107V110.613H369.701V105.869C369.701 105.308 369.574 104.88 369.32 104.583C369.066 104.287 368.706 104.139 368.241 104.139C367.776 104.139 367.405 104.287 367.13 104.583C366.866 104.88 366.734 105.308 366.734 105.869V110.613H364.322ZM378.016 113.183C376.63 113.183 375.376 112.887 374.255 112.295L375.08 110.486C376.001 111.004 376.958 111.263 377.952 111.263C379.571 111.263 380.38 110.491 380.38 108.947V108.534C379.999 109 379.592 109.349 379.158 109.581C378.735 109.804 378.217 109.915 377.603 109.915C376.556 109.915 375.662 109.555 374.922 108.836C374.192 108.116 373.827 107.143 373.827 105.916C373.827 104.7 374.197 103.737 374.937 103.029C375.678 102.309 376.566 101.95 377.603 101.95C378.661 101.95 379.576 102.373 380.348 103.219V102.108H382.76V108.693C382.76 110.206 382.4 111.322 381.681 112.041C380.919 112.802 379.697 113.183 378.016 113.183ZM376.826 107.376C377.217 107.736 377.709 107.915 378.301 107.915C378.894 107.915 379.385 107.73 379.777 107.36C380.179 106.99 380.38 106.509 380.38 105.916C380.38 105.345 380.179 104.874 379.777 104.504C379.385 104.134 378.894 103.949 378.301 103.949C377.709 103.949 377.217 104.134 376.826 104.504C376.434 104.874 376.239 105.356 376.239 105.948C376.239 106.53 376.434 107.006 376.826 107.376Z" fill="white"/>
<rect x="0.816406" y="263.815" width="140" height="140" rx="70" fill="#DD5259"/>
<path d="M56.9055 285.949C56.4835 286.152 55.9855 286.692 55.8505 287.105C55.7914 287.274 55.7661 287.654 55.783 287.941C55.8167 288.507 55.7154 288.304 57.9352 292.212C58.3994 293.022 59.2434 294.507 59.8089 295.503C61.1086 297.782 61.345 298.128 61.7332 298.348C61.9104 298.449 63.3875 299.082 65.008 299.766C66.6369 300.449 68.4009 301.192 68.9326 301.42C69.4643 301.639 70.4349 302.053 71.0764 302.323C71.7262 302.593 72.2664 302.855 72.2833 302.897C72.2917 302.939 71.7938 303.69 71.1776 304.576C67.9451 309.151 67.3796 309.987 67.2615 310.307C67.1095 310.746 67.1686 311.303 67.5062 312.738C67.6413 313.346 67.7425 313.852 67.7172 313.877C67.7003 313.903 67.5569 313.945 67.3965 313.987C67.2446 314.021 66.1896 314.308 65.0502 314.62C63.9107 314.932 62.7967 315.236 62.5603 315.295C62.3325 315.354 61.6235 315.54 60.9989 315.717C60.3744 315.886 59.6738 316.08 59.4375 316.139C58.6019 316.35 55.1078 317.304 54.1203 317.583C52.9471 317.92 52.6264 318.131 52.2803 318.806C52.0356 319.254 52.0356 319.271 52.0778 320.41C52.331 326.799 56.7704 332.353 63.033 334.117C64.5184 334.539 66.8563 334.783 67.5569 334.589C69.1014 334.167 69.5487 332.125 68.3249 331.087C67.9451 330.758 67.5484 330.648 66.4428 330.572C62.8135 330.319 59.6654 328.428 57.7242 325.339C57.0574 324.267 56.3569 322.402 56.3316 321.583L56.3147 321.212L57.6651 320.84C61.1762 319.895 62.2396 319.608 64.7548 318.925C66.2402 318.519 67.9367 318.064 68.5275 317.903C70.5784 317.355 71.0848 317.186 71.4224 316.95C71.8529 316.637 72.2242 315.954 72.2242 315.456C72.2242 315.135 71.9963 314.012 71.5068 311.945L71.3802 311.379L73.3383 308.611C76.4442 304.222 77.3389 302.905 77.4486 302.601C77.6934 301.876 77.4064 300.88 76.8241 300.432C76.5624 300.23 75.212 299.631 71.6756 298.137C70.7978 297.765 69.4812 297.217 68.7638 296.913C66.7044 296.044 65.3034 295.453 64.7548 295.225L64.2483 295.014L61.9273 290.954C60.6529 288.726 59.4882 286.734 59.3447 286.532C59.0071 286.059 58.5766 285.856 57.8339 285.823C57.3866 285.797 57.1587 285.831 56.9055 285.949Z" fill="white"/>
<path d="M54.9491 296.601C54.5524 296.693 54.3161 296.871 53.8603 297.419C52.1216 299.479 50.7543 300.331 49.1423 300.348C48.4165 300.356 48.3574 300.34 47.7497 300.027C47.1758 299.723 47.0576 299.69 46.4752 299.69C45.9098 299.681 45.7916 299.707 45.4202 299.934C44.3146 300.627 44.1373 302.179 45.0742 303.099C45.4709 303.488 46.5174 304.028 47.2855 304.239C48.0873 304.458 49.674 304.501 50.5349 304.323C52.991 303.825 55.2276 302.34 56.8565 300.145C57.5908 299.158 57.7174 298.542 57.3376 297.732C56.9156 296.812 55.9534 296.356 54.9491 296.601Z" fill="white"/>
<path d="M87.2659 308.881C86.2278 309.337 85.6961 310.468 86.0168 311.548C86.1265 311.936 86.3037 312.181 87.0465 313.025C89.0721 315.295 90.3212 317.262 91.3003 319.726C93.8745 326.191 93.098 333.652 89.2578 339.383C88.5741 340.405 87.9918 341.139 87.1224 342.093C86.0759 343.232 85.9493 343.468 85.9493 344.287C85.9408 344.776 85.983 344.996 86.1265 345.258C86.5316 346.017 87.2828 346.473 88.1437 346.481C88.9202 346.481 89.3675 346.22 90.3297 345.173C93.9251 341.308 96.1111 336.767 96.972 331.433C97.1408 330.369 97.1661 329.939 97.1661 327.618C97.1661 324.833 97.1155 324.259 96.6513 322.09C95.9507 318.781 94.4906 315.481 92.4903 312.687C91.0808 310.704 89.511 309.05 88.8864 308.856C88.4222 308.721 87.6119 308.729 87.2659 308.881Z" fill="white"/>
<path d="M81.8995 314.105C80.9373 314.468 80.3381 315.405 80.4394 316.401C80.4985 316.975 80.7095 317.372 81.3594 318.081C83.2837 320.216 84.4315 322.512 84.9464 325.238C85.1489 326.327 85.1489 328.934 84.9464 329.981C84.4231 332.657 83.3174 334.91 81.5366 336.927C80.7179 337.856 80.4141 338.404 80.4141 338.978C80.4141 340.21 81.3509 341.181 82.5663 341.198C83.3765 341.206 83.7479 341.021 84.6088 340.126C86.9129 337.737 88.4659 334.741 89.2086 331.256C89.4281 330.201 89.4618 329.846 89.504 328.2C89.5378 327.019 89.5125 326.023 89.4534 325.499C89.1495 322.942 88.3055 320.452 86.972 318.19C86.0351 316.604 84.4231 314.679 83.6972 314.283C83.174 313.996 82.3975 313.92 81.8995 314.105Z" fill="white"/>
<path d="M77.08 318.79C76.4638 318.941 75.949 319.347 75.6452 319.912C75.4426 320.275 75.4088 320.452 75.4088 320.942C75.4088 321.685 75.5186 321.921 76.2866 322.849C77.2488 324.014 77.6876 325.111 77.772 326.571C77.8649 328.158 77.3416 329.669 76.2444 330.952C75.5101 331.829 75.4004 332.057 75.4004 332.766C75.4004 333.678 75.8393 334.387 76.6748 334.826C76.9702 334.978 77.8058 335.028 78.1941 334.927C79.1984 334.657 80.7176 332.741 81.511 330.749C81.9836 329.568 82.2031 328.377 82.2115 326.943C82.2284 325.094 81.9246 323.769 81.1228 322.149C80.4391 320.765 79.1647 319.228 78.4473 318.925C78.0843 318.773 77.4007 318.705 77.08 318.79Z" fill="white"/>
<path d="M38.6 373.973C36.7806 373.973 35.2098 373.381 33.8876 372.196L35.3315 370.467C36.421 371.366 37.5264 371.815 38.6476 371.815C39.1448 371.815 39.5361 371.72 39.8217 371.53C40.1073 371.339 40.2501 371.075 40.2501 370.737C40.2501 370.419 40.1021 370.165 39.8059 369.975C39.5097 369.774 38.9121 369.557 38.0129 369.324C37.3783 369.166 36.8653 369.012 36.4739 368.864C36.0825 368.706 35.707 368.499 35.3473 368.245C34.9983 367.992 34.7391 367.674 34.5699 367.293C34.4112 366.902 34.3319 366.437 34.3319 365.897C34.3319 364.892 34.6915 364.083 35.4108 363.47C36.1407 362.856 37.0768 362.549 38.2192 362.549C39.7953 362.549 41.1704 363.02 42.3445 363.961L41.0752 365.802C40.028 365.072 39.0654 364.707 38.1875 364.707C37.7326 364.707 37.3783 364.802 37.1244 364.993C36.8811 365.173 36.7595 365.411 36.7595 365.707C36.7595 366.066 36.9129 366.336 37.2196 366.516C37.5264 366.696 38.1716 366.913 39.1553 367.167C40.3612 367.484 41.2497 367.891 41.8209 368.388C42.3921 368.885 42.6777 369.599 42.6777 370.53C42.6777 371.609 42.3022 372.455 41.5512 373.069C40.8108 373.672 39.827 373.973 38.6 373.973ZM44.5444 376.353V365.31H46.9562V366.532C47.6331 365.612 48.5164 365.151 49.6059 365.151C50.6637 365.151 51.5734 365.548 52.335 366.341C53.0966 367.135 53.4774 368.214 53.4774 369.578C53.4774 370.932 53.0966 372.006 52.335 372.799C51.5839 373.582 50.6742 373.973 49.6059 373.973C48.5481 373.973 47.6649 373.55 46.9562 372.704V376.353H44.5444ZM47.5115 371.276C47.9134 371.71 48.4053 371.927 48.9871 371.927C49.5689 371.927 50.0607 371.71 50.4627 371.276C50.8646 370.832 51.0656 370.255 51.0656 369.547C51.0656 368.859 50.8646 368.298 50.4627 367.865C50.0607 367.42 49.5689 367.198 48.9871 367.198C48.4053 367.198 47.9134 367.42 47.5115 367.865C47.1201 368.298 46.9244 368.87 46.9244 369.578C46.9244 370.266 47.1201 370.832 47.5115 371.276ZM59.2815 374.005C57.991 374.005 56.9279 373.598 56.0923 372.783C55.2566 371.958 54.8388 370.89 54.8388 369.578C54.8388 368.341 55.2355 367.293 56.0288 366.437C56.8221 365.58 57.827 365.151 59.0435 365.151C60.3868 365.151 61.4129 365.596 62.1216 366.484C62.8303 367.373 63.1847 368.468 63.1847 369.769C63.1847 369.896 63.1741 370.107 63.1529 370.403H57.2347C57.351 370.943 57.589 371.355 57.9487 371.641C58.3083 371.927 58.7631 372.069 59.3132 372.069C60.0642 372.069 60.7518 371.778 61.3759 371.197L62.7563 372.418C61.8995 373.476 60.7412 374.005 59.2815 374.005ZM57.2029 368.896H60.8364C60.7623 368.346 60.5667 367.907 60.2493 367.579C59.9426 367.251 59.5406 367.087 59.0435 367.087C58.5569 367.087 58.1496 367.251 57.8217 367.579C57.5044 367.896 57.2981 368.335 57.2029 368.896ZM67.3938 373.973C66.5581 373.973 65.86 373.741 65.2994 373.275C64.7493 372.81 64.4743 372.165 64.4743 371.339C64.4743 370.44 64.7811 369.763 65.3946 369.309C66.0187 368.854 66.8543 368.626 67.9015 368.626C68.6102 368.626 69.3031 368.743 69.9801 368.975V368.833C69.9801 367.796 69.3718 367.278 68.1554 367.278C67.4255 367.278 66.6428 367.431 65.8071 367.738L65.2042 365.897C66.2408 365.442 67.3409 365.215 68.5045 365.215C69.7844 365.215 70.7417 365.532 71.3763 366.167C71.9898 366.78 72.2966 367.685 72.2966 368.88V373.815H69.9642V372.894C69.3189 373.614 68.4621 373.973 67.3938 373.973ZM68.1237 372.307C68.6843 372.307 69.1391 372.17 69.4882 371.895C69.8373 371.609 70.0118 371.25 70.0118 370.816V370.387C69.5569 370.176 69.0439 370.07 68.4727 370.07C67.9438 370.07 67.5313 370.176 67.2351 370.387C66.9495 370.588 66.8067 370.885 66.8067 371.276C66.8067 371.593 66.9284 371.847 67.1717 372.038C67.4149 372.217 67.7323 372.307 68.1237 372.307ZM74.3719 373.815V362.232H76.7836V368.404L79.6079 365.31H82.4956L79.2588 368.658L82.6067 373.815H79.8459L77.6246 370.34L76.7836 371.228V373.815H74.3719ZM83.8093 364.374V362.232H86.348V364.374H83.8093ZM83.8728 373.815V365.31H86.2845V373.815H83.8728ZM88.5496 373.815V365.31H90.9614V366.516C91.6701 365.606 92.5004 365.151 93.4524 365.151C94.3621 365.151 95.0708 365.432 95.5786 365.992C96.0863 366.553 96.3402 367.325 96.3402 368.309V373.815H93.9284V369.071C93.9284 368.51 93.8015 368.082 93.5476 367.785C93.2938 367.489 92.9341 367.341 92.4687 367.341C92.0033 367.341 91.6331 367.489 91.358 367.785C91.0936 368.082 90.9614 368.51 90.9614 369.071V373.815H88.5496ZM102.243 376.385C100.858 376.385 99.6042 376.089 98.4829 375.497L99.308 373.688C100.228 374.206 101.186 374.465 102.18 374.465C103.798 374.465 104.607 373.693 104.607 372.149V371.736C104.227 372.202 103.819 372.551 103.386 372.783C102.963 373.005 102.444 373.117 101.831 373.117C100.784 373.117 99.8898 372.757 99.1493 372.038C98.4194 371.318 98.0545 370.345 98.0545 369.118C98.0545 367.902 98.4247 366.939 99.1652 366.23C99.9056 365.511 100.794 365.151 101.831 365.151C102.889 365.151 103.804 365.575 104.576 366.421V365.31H106.987V371.895C106.987 373.407 106.628 374.523 105.909 375.243C105.147 376.004 103.925 376.385 102.243 376.385ZM101.053 370.578C101.445 370.938 101.937 371.117 102.529 371.117C103.121 371.117 103.613 370.932 104.005 370.562C104.406 370.192 104.607 369.711 104.607 369.118C104.607 368.547 104.406 368.076 104.005 367.706C103.613 367.336 103.121 367.151 102.529 367.151C101.937 367.151 101.445 367.336 101.053 367.706C100.662 368.076 100.466 368.558 100.466 369.15C100.466 369.732 100.662 370.208 101.053 370.578Z" fill="white"/>
<rect x="280.816" y="263.815" width="140" height="140" rx="70" fill="#009349"/>
<path d="M360.462 286.969C359.594 287.63 357.03 289.987 354.839 292.262L350.786 296.397L347.685 294.37C345.948 293.295 344.418 292.386 344.294 292.386C343.633 292.386 338.174 295.28 335.487 297.058C331.806 299.539 325.025 304.956 323.247 306.9C322.378 307.851 321.262 310.208 319.773 314.095C318.574 317.279 316.631 322.406 315.39 325.507C314.15 328.567 313.157 331.296 313.157 331.544C313.157 331.793 313.405 332.206 313.736 332.454C314.232 332.868 314.15 333.24 313.116 334.728C311.545 337.127 307.203 346.1 307.492 346.431C307.782 346.679 310.511 346.017 315.638 344.446C318.574 343.536 318.905 343.288 321.634 340.311C323.247 338.533 324.777 337.168 325.066 337.292C332.881 339.773 339.746 340.476 345.328 339.36C349.587 338.491 353.722 338.243 356.368 338.739C363.936 340.104 365.672 340.104 372.288 338.739C373.322 338.533 374.232 338.409 374.315 338.491C374.356 338.574 374.645 339.732 374.935 341.055L375.39 343.453L383.081 343.577C390.152 343.66 390.813 343.619 391.103 342.957C391.723 341.386 393.377 334.191 393.832 331.09C394.494 326.665 394.08 316.203 393.088 312.441L392.343 309.546L389.656 309.257C388.167 309.091 384.735 308.76 382.006 308.554L377.044 308.099L376.134 309.215C375.224 310.332 375.183 310.332 373.033 309.794C370.51 309.215 361.537 304.832 359.677 303.344L358.436 302.31L360.297 300.573C364.266 296.852 367.285 293.13 367.574 291.724C367.905 289.946 367.161 288.127 365.59 286.803C363.977 285.439 362.447 285.48 360.462 286.969ZM346.941 297.637L348.264 298.795L339.994 307.272C330.897 316.576 328.829 319.139 326.679 323.895C325.852 325.673 324.694 327.782 324.074 328.567C322.999 329.973 320.724 331.544 320.352 331.131C320.228 331.007 320.642 329.89 321.221 328.567C322.999 324.68 323.04 323.688 321.303 321.951L319.815 320.463L321.841 315.459C324.074 309.918 324.653 309.174 330.524 304.212C334.784 300.573 338.712 297.761 341.482 296.397C343.757 295.239 344.377 295.363 346.941 297.637ZM360.297 307.396C367.533 311.531 371.585 313.061 375.266 313.061C376.217 313.061 376.465 313.309 376.796 314.591C378.243 320.132 378.367 326.004 377.209 332.165L376.672 334.935L373.736 335.638C367.45 337.085 364.018 337.044 356.906 335.597L353.309 334.853L348.016 336.176C344.584 337.003 341.648 337.458 339.787 337.458C336.975 337.458 334.039 336.837 334.37 336.258C335.652 333.901 335.9 332.785 335.487 331.255C335.073 329.808 333.295 327.906 332.799 328.443C332.716 328.526 332.923 329.684 333.254 331.007C333.833 333.24 333.833 333.488 333.088 334.687C332.427 335.845 332.137 336.01 330.938 335.886C326.141 335.39 324.074 332.454 326.679 329.849C329.491 327.037 334.701 325.879 344.666 325.879H350.91L352.523 324.225C354.88 321.703 354.632 321.29 351.324 322.365C349.752 322.861 347.478 323.398 346.238 323.523L343.963 323.729L346.031 321.62C348.305 319.263 349.546 316.328 349.546 313.309C349.546 311.696 349.794 311.283 352.688 308.182L355.872 304.791L357.361 305.659C358.188 306.155 359.511 306.941 360.297 307.396ZM388.705 314.012C389.656 316.824 390.11 321.041 390.11 326.169C390.11 331.627 389.986 332.785 388.787 337.334C388.374 338.988 388.002 340.435 388.002 340.559C388.002 340.683 385.645 340.766 382.791 340.766C378.036 340.766 377.581 340.683 377.829 340.063C377.995 339.691 378.574 337.416 379.194 335.018C380.848 328.112 381.055 322.53 379.897 314.384L379.607 312.193L383.908 312.317L388.208 312.441L388.705 314.012ZM346.941 314.88C346.817 315.211 346.486 316.203 346.279 317.113C345.328 320.587 342.392 323.398 339.746 323.398H338.298L341.979 319.387C343.963 317.155 345.824 315.128 346.031 314.839C346.61 314.136 347.189 314.177 346.941 314.88ZM320.021 322.861C320.89 323.977 320.724 326.748 319.691 328.774C318.905 330.304 318.45 330.717 317.21 331.007C316.341 331.214 315.556 331.296 315.432 331.214C315.225 331.007 319.029 322.158 319.319 322.158C319.401 322.158 319.732 322.489 320.021 322.861ZM316.135 338.161C316.713 338.822 317.416 339.732 317.665 340.228C318.119 341.096 317.995 341.22 315.969 342.254C312.041 344.239 311.09 344.239 311.09 342.254C311.09 341.634 314.315 337.044 314.77 337.044C314.935 337.044 315.556 337.54 316.135 338.161Z" fill="white"/>
<path d="M324.585 373.894L320.792 362.708H323.41L325.711 370.229L328.202 362.676H330.297L332.788 370.229L335.088 362.708H337.643L333.851 373.894H331.725L329.218 366.627L326.711 373.894H324.585ZM338.641 373.815V365.31H341.053V367.024C341.603 365.723 342.507 365.099 343.766 365.151V367.674H343.639C342.814 367.674 342.174 367.928 341.719 368.436C341.275 368.933 341.053 369.679 341.053 370.673V373.815H338.641ZM345.32 364.374V362.232H347.859V364.374H345.32ZM345.384 373.815V365.31H347.796V373.815H345.384ZM352.933 373.957C352.139 373.957 351.526 373.767 351.092 373.386C350.669 372.995 350.457 372.334 350.457 371.403V367.373H349.442V365.31H350.457V363.136H352.869V365.31H354.868V367.373H352.869V371.006C352.869 371.556 353.128 371.831 353.647 371.831C354.07 371.831 354.466 371.731 354.837 371.53V373.466C354.287 373.794 353.652 373.957 352.933 373.957ZM356.694 364.374V362.232H359.232V364.374H356.694ZM356.757 373.815V365.31H359.169V373.815H356.757ZM361.434 373.815V365.31H363.846V366.516C364.554 365.606 365.385 365.151 366.337 365.151C367.246 365.151 367.955 365.432 368.463 365.992C368.971 366.553 369.224 367.325 369.224 368.309V373.815H366.813V369.071C366.813 368.51 366.686 368.082 366.432 367.785C366.178 367.489 365.818 367.341 365.353 367.341C364.888 367.341 364.517 367.489 364.242 367.785C363.978 368.082 363.846 368.51 363.846 369.071V373.815H361.434ZM375.128 376.385C373.742 376.385 372.488 376.089 371.367 375.497L372.192 373.688C373.112 374.206 374.07 374.465 375.064 374.465C376.682 374.465 377.492 373.693 377.492 372.149V371.736C377.111 372.202 376.704 372.551 376.27 372.783C375.847 373.005 375.329 373.117 374.715 373.117C373.668 373.117 372.774 372.757 372.034 372.038C371.304 371.318 370.939 370.345 370.939 369.118C370.939 367.902 371.309 366.939 372.049 366.23C372.79 365.511 373.678 365.151 374.715 365.151C375.773 365.151 376.688 365.575 377.46 366.421V365.31H379.872V371.895C379.872 373.407 379.512 374.523 378.793 375.243C378.031 376.004 376.809 376.385 375.128 376.385ZM373.938 370.578C374.329 370.938 374.821 371.117 375.413 371.117C376.006 371.117 376.497 370.932 376.889 370.562C377.291 370.192 377.492 369.711 377.492 369.118C377.492 368.547 377.291 368.076 376.889 367.706C376.497 367.336 376.006 367.151 375.413 367.151C374.821 367.151 374.329 367.336 373.938 367.706C373.546 368.076 373.35 368.558 373.35 369.15C373.35 369.732 373.546 370.208 373.938 370.578Z" fill="white"/>
<path d="M69.3804 137.639C69.5101 136.956 70.2765 136.576 71.0923 136.791C71.908 137.007 72.4642 137.735 72.3345 138.419L69.3804 137.639ZM80.7541 172.722L81.8816 172.022L80.7541 172.722ZM114.313 188.415C114.976 188.922 115.115 189.743 114.624 190.25L106.608 198.506C106.116 199.013 105.179 199.013 104.516 198.506C103.852 197.999 103.713 197.178 104.205 196.671L111.33 189.332L101.718 181.993C101.054 181.487 100.915 180.665 101.407 180.159C101.899 179.652 102.835 179.652 103.499 180.159L114.313 188.415ZM71.9281 142.621C71.8992 143.326 71.2065 143.792 70.381 143.662C69.5555 143.531 68.9098 142.855 68.9387 142.15L71.9281 142.621ZM69.4295 151.279C69.3228 150.562 69.9002 149.992 70.7193 150.005C71.5384 150.018 72.2889 150.609 72.3956 151.325L69.4295 151.279ZM74.6191 160.001C74.8834 160.706 74.4631 161.381 73.6805 161.508C72.8979 161.635 72.0493 161.166 71.7851 160.461L74.6191 160.001ZM76.3913 169.32C75.9424 168.668 76.1404 167.898 76.8338 167.602C77.5271 167.305 78.4531 167.593 78.9021 168.245L76.3913 169.32ZM85.0021 175.226C85.5989 175.792 85.6199 176.607 85.0488 177.047C84.4778 177.486 83.531 177.383 82.9342 176.817L85.0021 175.226ZM90.4746 182.87C89.7771 182.402 89.5703 181.583 90.0128 181.041C90.4552 180.498 91.3793 180.439 92.0768 180.907L90.4746 182.87ZM100.122 185.262C100.905 185.587 101.327 186.369 101.064 187.007C100.801 187.645 99.9535 187.899 99.1704 187.574L100.122 185.262ZM108.747 190.269C107.921 190.148 107.266 189.478 107.284 188.771C107.302 188.065 107.985 187.59 108.811 187.711L108.747 190.269ZM70.8574 138.029C72.3345 138.419 72.3345 138.419 72.3345 138.418C72.3345 138.418 72.3345 138.418 72.3345 138.418C72.3346 138.418 72.3346 138.418 72.3346 138.418C72.3346 138.418 72.3346 138.418 72.3346 138.418C72.3346 138.418 72.3345 138.419 72.3343 138.42C72.3339 138.422 72.3333 138.425 72.3324 138.43C72.3305 138.44 72.3276 138.457 72.3236 138.479C72.3158 138.524 72.3041 138.594 72.2894 138.687C72.2601 138.872 72.2193 139.151 72.1748 139.513C72.0857 140.239 71.9824 141.299 71.9281 142.621L68.9387 142.15C68.9956 140.763 69.1043 139.645 69.1995 138.869C69.2471 138.481 69.2914 138.179 69.3242 137.971C69.3406 137.867 69.3542 137.786 69.3639 137.731C69.3687 137.703 69.3726 137.681 69.3754 137.666C69.3768 137.658 69.3779 137.652 69.3787 137.648C69.3792 137.645 69.3795 137.643 69.3798 137.642C69.3799 137.641 69.38 137.641 69.3801 137.64C69.3802 137.64 69.3802 137.64 69.3802 137.639C69.3803 137.639 69.3803 137.639 69.3803 137.639C69.3803 137.639 69.3804 137.639 70.8574 138.029ZM72.3956 151.325C72.7995 154.037 73.49 156.988 74.6191 160.001L71.7851 160.461C70.5824 157.251 69.8537 154.127 69.4295 151.279L72.3956 151.325ZM78.9021 168.245C79.7847 169.527 80.7738 170.791 81.8816 172.022L79.6267 173.421C78.4212 172.081 77.3473 170.708 76.3913 169.32L78.9021 168.245ZM81.8816 172.022C82.8731 173.125 83.9154 174.196 85.0021 175.226L82.9342 176.817C81.7812 175.724 80.6766 174.589 79.6267 173.421L81.8816 172.022ZM92.0768 180.907C94.6485 182.635 97.3489 184.11 100.122 185.262L99.1704 187.574C96.1464 186.318 93.229 184.721 90.4746 182.87L92.0768 180.907ZM108.811 187.711C110.271 187.924 111.737 188.035 113.202 188.035L113.642 190.63C112.005 190.63 110.371 190.506 108.747 190.269L108.811 187.711Z" fill="#9C1D6D"/>
<path d="M69.981 264.291C70.6469 264.629 71.579 264.388 72.063 263.753L79.9503 253.397C80.4343 252.762 80.2869 251.972 79.6211 251.634C78.9553 251.296 78.0232 251.537 77.5392 252.173L70.5282 261.378L60.8837 256.482C60.2178 256.144 59.2857 256.385 58.8017 257.02C58.3177 257.656 58.4651 258.445 59.1309 258.783L69.981 264.291ZM80.7541 227.88L81.8848 228.583L80.7541 227.88ZM113.214 212.3C114.03 212.3 114.783 211.717 114.898 210.997C115.013 210.277 114.445 209.694 113.63 209.694L113.214 212.3ZM71.9226 258.478C71.8941 257.769 71.2041 257.296 70.3814 257.42C69.5588 257.545 68.915 258.221 68.9435 258.93L71.9226 258.478ZM69.4367 249.649C69.331 250.369 69.9071 250.946 70.7234 250.938C71.5397 250.93 72.2872 250.34 72.3929 249.62L69.4367 249.649ZM74.6198 240.801C74.881 240.093 74.4598 239.413 73.6792 239.282C72.8986 239.151 72.0541 239.618 71.7929 240.326L74.6198 240.801ZM76.3928 231.339C75.9493 231.993 76.152 232.767 76.8455 233.066C77.539 233.366 78.4607 233.078 78.9041 232.423L76.3928 231.339ZM84.995 225.336C85.5849 224.767 85.5977 223.949 85.0236 223.508C84.4495 223.067 83.5058 223.171 82.916 223.74L84.995 225.336ZM90.4284 217.603C89.738 218.075 89.5417 218.899 89.9899 219.442C90.4381 219.985 91.3612 220.043 92.0516 219.571L90.4284 217.603ZM100.092 215.137C100.87 214.808 101.28 214.022 101.009 213.382C100.739 212.742 99.8888 212.49 99.1115 212.819L100.092 215.137ZM108.709 210.065C107.887 210.187 107.241 210.862 107.266 211.571C107.292 212.28 107.98 212.756 108.803 212.633L108.709 210.065ZM70.8574 263.141C72.3296 262.76 72.3296 262.76 72.3296 262.76C72.3296 262.76 72.3296 262.76 72.3296 262.76C72.3297 262.76 72.3297 262.76 72.3297 262.761C72.3297 262.761 72.3297 262.761 72.3297 262.761C72.3297 262.76 72.3295 262.76 72.3294 262.759C72.329 262.757 72.3283 262.753 72.3274 262.748C72.3256 262.738 72.3226 262.721 72.3187 262.698C72.3108 262.652 72.299 262.581 72.2843 262.487C72.255 262.297 72.214 262.014 72.1694 261.644C72.0802 260.905 71.9768 259.825 71.9226 258.478L68.9435 258.93C69.0003 260.342 69.109 261.48 69.2042 262.27C69.2519 262.664 69.2962 262.972 69.3291 263.184C69.3455 263.29 69.3591 263.372 69.3688 263.428C69.3736 263.457 69.3775 263.479 69.3803 263.494C69.3817 263.502 69.3828 263.508 69.3836 263.513C69.3841 263.515 69.3844 263.517 69.3847 263.518C69.3848 263.519 69.3849 263.52 69.385 263.52C69.3851 263.521 69.3851 263.521 69.3851 263.521C69.3852 263.521 69.3852 263.521 69.3852 263.521C69.3852 263.521 69.3853 263.522 70.8574 263.141ZM72.3929 249.62C72.7978 246.864 73.4895 243.864 74.6198 240.801L71.7929 240.326C70.5907 243.585 69.8616 246.756 69.4367 249.649L72.3929 249.62ZM78.9041 232.423C79.7872 231.12 80.7767 229.835 81.8848 228.583L79.6234 227.177C78.4198 228.537 77.3474 229.93 76.3928 231.339L78.9041 232.423ZM81.8848 228.583C82.8733 227.466 83.9121 226.381 84.995 225.336L82.916 223.74C81.7683 224.847 80.6688 225.995 79.6234 227.177L81.8848 228.583ZM92.0516 219.571C94.6219 217.813 97.3208 216.311 100.092 215.137L99.1115 212.819C96.0913 214.098 93.1783 215.723 90.4284 217.603L92.0516 219.571ZM108.803 212.633C110.27 212.414 111.742 212.3 113.214 212.3L113.63 209.694C111.984 209.694 110.341 209.821 108.709 210.065L108.803 212.633Z" fill="#1A73E8"/>
<path d="M351.874 137.639C351.744 136.956 350.977 136.576 350.162 136.791C349.346 137.007 348.79 137.735 348.919 138.419L351.874 137.639ZM340.5 172.722L339.372 172.022L340.5 172.722ZM306.941 188.415C306.278 188.922 306.138 189.743 306.63 190.25L314.646 198.506C315.138 199.013 316.075 199.013 316.738 198.506C317.402 197.999 317.541 197.178 317.049 196.671L309.924 189.332L319.536 181.993C320.2 181.487 320.339 180.665 319.847 180.159C319.355 179.652 318.418 179.652 317.755 180.159L306.941 188.415ZM349.326 142.621C349.355 143.326 350.047 143.792 350.873 143.662C351.698 143.531 352.344 142.855 352.315 142.15L349.326 142.621ZM351.824 151.279C351.931 150.562 351.354 149.992 350.535 150.005C349.715 150.018 348.965 150.609 348.858 151.325L351.824 151.279ZM346.635 160.001C346.371 160.706 346.791 161.381 347.573 161.508C348.356 161.635 349.205 161.166 349.469 160.461L346.635 160.001ZM344.863 169.32C345.312 168.668 345.113 167.898 344.42 167.602C343.727 167.305 342.801 167.593 342.352 168.245L344.863 169.32ZM336.252 175.226C335.655 175.792 335.634 176.607 336.205 177.047C336.776 177.486 337.723 177.383 338.32 176.817L336.252 175.226ZM330.779 182.87C331.477 182.402 331.684 181.583 331.241 181.041C330.799 180.498 329.875 180.439 329.177 180.907L330.779 182.87ZM321.132 185.262C320.349 185.587 319.927 186.369 320.19 187.007C320.453 187.645 321.3 187.899 322.083 187.574L321.132 185.262ZM312.507 190.269C313.333 190.148 313.988 189.478 313.97 188.771C313.952 188.065 313.268 187.59 312.443 187.711L312.507 190.269ZM350.396 138.029C348.919 138.419 348.919 138.419 348.919 138.418C348.919 138.418 348.919 138.418 348.919 138.418C348.919 138.418 348.919 138.418 348.919 138.418C348.919 138.418 348.919 138.418 348.919 138.418C348.919 138.418 348.919 138.419 348.92 138.42C348.92 138.422 348.921 138.425 348.922 138.43C348.923 138.44 348.926 138.457 348.93 138.479C348.938 138.524 348.95 138.594 348.964 138.687C348.994 138.872 349.035 139.151 349.079 139.513C349.168 140.239 349.272 141.299 349.326 142.621L352.315 142.15C352.258 140.763 352.15 139.645 352.054 138.869C352.007 138.481 351.963 138.179 351.93 137.971C351.913 137.867 351.9 137.786 351.89 137.731C351.885 137.703 351.881 137.681 351.879 137.666C351.877 137.658 351.876 137.652 351.875 137.648C351.875 137.645 351.874 137.643 351.874 137.642C351.874 137.641 351.874 137.641 351.874 137.64C351.874 137.64 351.874 137.64 351.874 137.639C351.874 137.639 351.874 137.639 351.874 137.639C351.874 137.639 351.874 137.639 350.396 138.029ZM348.858 151.325C348.454 154.037 347.764 156.988 346.635 160.001L349.469 160.461C350.672 157.251 351.4 154.127 351.824 151.279L348.858 151.325ZM342.352 168.245C341.469 169.527 340.48 170.791 339.372 172.022L341.627 173.421C342.833 172.081 343.907 170.708 344.863 169.32L342.352 168.245ZM339.372 172.022C338.381 173.125 337.339 174.196 336.252 175.226L338.32 176.817C339.473 175.724 340.577 174.589 341.627 173.421L339.372 172.022ZM329.177 180.907C326.605 182.635 323.905 184.11 321.132 185.262L322.083 187.574C325.108 186.318 328.025 184.721 330.779 182.87L329.177 180.907ZM312.443 187.711C310.983 187.924 309.517 188.035 308.052 188.035L307.612 190.63C309.249 190.63 310.883 190.506 312.507 190.269L312.443 187.711Z" fill="#F7B24D"/>
<path d="M351.273 264.291C350.607 264.629 349.675 264.388 349.191 263.753L341.304 253.397C340.82 252.761 340.967 251.972 341.633 251.634C342.299 251.296 343.231 251.537 343.715 252.173L350.726 261.378L360.37 256.482C361.036 256.144 361.968 256.385 362.452 257.02C362.936 257.656 362.789 258.445 362.123 258.783L351.273 264.291ZM340.5 227.88L339.369 228.583L340.5 227.88ZM308.039 212.3C307.224 212.3 306.471 211.717 306.356 210.997C306.241 210.277 306.809 209.694 307.624 209.694L308.039 212.3ZM349.331 258.478C349.36 257.769 350.05 257.296 350.872 257.42C351.695 257.545 352.339 258.221 352.31 258.93L349.331 258.478ZM351.817 249.649C351.923 250.369 351.347 250.946 350.531 250.938C349.714 250.93 348.967 250.34 348.861 249.62L351.817 249.649ZM346.634 240.801C346.373 240.093 346.794 239.413 347.575 239.282C348.355 239.151 349.2 239.618 349.461 240.326L346.634 240.801ZM344.861 231.339C345.305 231.993 345.102 232.767 344.408 233.066C343.715 233.366 342.793 233.078 342.35 232.423L344.861 231.339ZM336.259 225.336C335.669 224.767 335.656 223.949 336.23 223.508C336.804 223.067 337.748 223.171 338.338 223.74L336.259 225.336ZM330.825 217.603C331.516 218.075 331.712 218.899 331.264 219.442C330.816 219.985 329.893 220.043 329.202 219.571L330.825 217.603ZM321.161 215.137C320.384 214.808 319.974 214.022 320.244 213.382C320.515 212.742 321.365 212.49 322.142 212.819L321.161 215.137ZM312.545 210.065C313.367 210.187 314.013 210.862 313.987 211.571C313.962 212.28 313.274 212.756 312.451 212.633L312.545 210.065ZM350.396 263.141C348.924 262.76 348.924 262.76 348.924 262.76C348.924 262.76 348.924 262.76 348.924 262.76C348.924 262.76 348.924 262.76 348.924 262.761C348.924 262.761 348.924 262.761 348.924 262.761C348.924 262.76 348.924 262.76 348.925 262.759C348.925 262.757 348.926 262.753 348.926 262.748C348.928 262.738 348.931 262.721 348.935 262.698C348.943 262.652 348.955 262.581 348.97 262.487C348.999 262.297 349.04 262.014 349.084 261.644C349.174 260.905 349.277 259.825 349.331 258.478L352.31 258.93C352.254 260.342 352.145 261.48 352.05 262.27C352.002 262.664 351.958 262.972 351.925 263.184C351.908 263.29 351.895 263.372 351.885 263.428C351.88 263.457 351.876 263.479 351.874 263.494C351.872 263.502 351.871 263.508 351.87 263.513C351.87 263.515 351.87 263.517 351.869 263.518C351.869 263.519 351.869 263.52 351.869 263.52C351.869 263.521 351.869 263.521 351.869 263.521C351.869 263.521 351.869 263.521 351.869 263.521C351.869 263.521 351.869 263.522 350.396 263.141ZM348.861 249.62C348.456 246.864 347.764 243.864 346.634 240.801L349.461 240.326C350.663 243.585 351.392 246.756 351.817 249.649L348.861 249.62ZM342.35 232.423C341.467 231.12 340.477 229.835 339.369 228.583L341.63 227.177C342.834 228.537 343.906 229.93 344.861 231.339L342.35 232.423ZM339.369 228.583C338.381 227.466 337.342 226.381 336.259 225.336L338.338 223.74C339.486 224.847 340.585 225.995 341.63 227.177L339.369 228.583ZM329.202 219.571C326.632 217.813 323.933 216.311 321.161 215.137L322.142 212.819C325.163 214.098 328.076 215.723 330.825 217.603L329.202 219.571ZM312.451 212.633C310.984 212.414 309.512 212.3 308.039 212.3L307.624 209.694C309.27 209.694 310.913 209.821 312.545 210.065L312.451 212.633Z" fill="#1A73E8"/>
</svg>
