<svg width="1781" height="572" viewBox="0 0 1781 572" fill="none" xmlns="http://www.w3.org/2000/svg">
<path d="M80.7971 348.225L8.47863 350.632C19.6009 485.956 124.372 528.459 174.971 536.428L167.227 459.117C167.227 459.117 103.762 447.783 80.7971 348.225Z" fill="white"/>
<path d="M1666.8 36.2254L1594.48 38.6322C1605.6 173.956 1710.37 216.459 1760.97 224.428L1753.23 147.117C1753.23 147.117 1689.76 135.783 1666.8 36.2254Z" fill="white"/>
<path d="M209.844 319.417L235.961 296.667C190.933 249.797 139.197 265.686 118.006 278.021L144.247 304.377C144.247 304.377 171.23 289.403 209.844 319.417Z" fill="white"/>
<path d="M1586.6 271.872L1612.72 249.122C1567.69 202.252 1515.96 218.141 1494.77 230.476L1521.01 256.833C1521.01 256.833 1547.99 241.858 1586.6 271.872Z" fill="white"/>
<path d="M1675.91 522.269L1670.06 556.407C1734.57 564.253 1764.61 519.234 1773.23 496.28L1736.24 492.449C1736.24 492.449 1724.8 521.111 1675.91 522.269Z" fill="white"/>
<path d="M1614.12 485.229L1630.36 454.633C1571.53 427.003 1528.92 460.37 1513.55 479.477L1547.49 494.685C1547.49 494.685 1567.32 471.039 1614.12 485.229Z" fill="white"/>
<path d="M1682.1 438.628L1696.59 447.855C1712.56 419.854 1697.74 397.478 1688.9 389.131L1680.04 405.314C1680.04 405.314 1690.96 416.045 1682.1 438.628Z" fill="white"/>
<path d="M157.217 94.6381L173.456 89.0372C161.474 59.1129 134.733 56.7932 122.696 58.5219L129.857 75.5207C129.857 75.5207 145.048 73.656 157.217 94.6381Z" fill="white"/>
<path d="M35.9927 205.475L57.1663 232.886C106.605 190.695 93.7898 138.113 82.7241 116.233L54.8682 140.877C54.8682 140.877 68.2283 168.695 35.9927 205.475Z" fill="white"/>
</svg>
